<?xml version="1.0" encoding="UTF-8"?>
<svg xmlns="http://www.w3.org/2000/svg" xmlns:xlink="http://www.w3.org/1999/xlink" width="56px" height="56px" viewBox="0 0 56 56" version="1.1">
<g id="surface1">
<path style=" stroke:none;fill-rule:nonzero;fill:rgb(0%,0%,0%);fill-opacity:1;" d="M 47.160156 8.457031 C 48.21875 9.433594 49.214844 10.449219 50.09375 11.59375 C 50.179688 11.703125 50.269531 11.808594 50.355469 11.921875 C 51.078125 12.824219 51.691406 13.773438 52.28125 14.765625 C 52.328125 14.839844 52.371094 14.914062 52.417969 14.992188 C 54.890625 19.140625 56.050781 23.84375 56.042969 28.644531 C 56.039062 28.804688 56.039062 28.804688 56.039062 28.96875 C 56.035156 30.722656 55.933594 32.40625 55.5625 34.125 C 55.539062 34.234375 55.515625 34.34375 55.492188 34.457031 C 54.203125 40.523438 50.660156 46.308594 45.71875 50.09375 C 45.589844 50.195312 45.460938 50.296875 45.332031 50.398438 C 43.023438 52.199219 39.023438 55.109375 35.953125 54.886719 C 35.433594 54.761719 35.179688 54.617188 34.890625 54.140625 C 34.765625 53.761719 34.769531 53.472656 34.773438 53.074219 C 34.773438 53 34.773438 52.925781 34.773438 52.847656 C 34.773438 52.683594 34.773438 52.523438 34.777344 52.359375 C 34.777344 52.101562 34.78125 51.839844 34.78125 51.582031 C 34.78125 50.84375 34.785156 50.105469 34.792969 49.371094 C 34.792969 48.917969 34.796875 48.46875 34.796875 48.015625 C 34.796875 47.84375 34.800781 47.675781 34.800781 47.503906 C 34.808594 46.589844 34.785156 45.6875 34.6875 44.773438 C 34.679688 44.695312 34.667969 44.617188 34.660156 44.535156 C 34.488281 43.078125 33.851562 41.90625 32.921875 40.796875 C 33.496094 40.679688 34.074219 40.566406 34.652344 40.460938 C 37.214844 39.980469 39.613281 39.292969 41.671875 37.625 C 41.757812 37.558594 41.84375 37.492188 41.929688 37.421875 C 44.273438 35.46875 45.238281 32.371094 45.566406 29.4375 C 45.847656 26.3125 45.4375 23.5 43.640625 20.890625 C 43.433594 20.65625 43.230469 20.433594 42.996094 20.222656 C 42.800781 19.886719 42.90625 19.621094 42.984375 19.25 C 43.023438 19.050781 43.023438 19.050781 43.066406 18.847656 C 43.097656 18.707031 43.125 18.566406 43.15625 18.421875 C 43.527344 16.480469 43.257812 14.523438 42.546875 12.6875 C 39.882812 12.507812 37.257812 13.992188 35.109375 15.421875 C 34.898438 15.425781 34.898438 15.425781 34.664062 15.394531 C 34.578125 15.382812 34.488281 15.371094 34.398438 15.359375 C 33.945312 15.28125 33.492188 15.191406 33.039062 15.101562 C 29.40625 14.402344 25.601562 14.402344 22 15.292969 C 21.355469 15.445312 20.84375 15.460938 20.238281 15.140625 C 20.132812 15.070312 20.023438 14.996094 19.914062 14.921875 C 17.9375 13.644531 15.730469 12.613281 13.34375 12.6875 C 12.6875 14.78125 12.371094 16.671875 12.824219 18.847656 C 12.851562 18.980469 12.878906 19.113281 12.90625 19.25 C 12.9375 19.382812 12.964844 19.515625 12.996094 19.652344 C 13.015625 20.015625 13.015625 20.015625 12.867188 20.277344 C 12.792969 20.355469 12.714844 20.433594 12.640625 20.515625 C 10.578125 22.902344 10.113281 25.898438 10.3125 28.949219 C 10.570312 32.230469 11.628906 35.351562 14.140625 37.578125 C 14.671875 38.023438 15.253906 38.378906 15.859375 38.71875 C 16.039062 38.820312 16.039062 38.820312 16.222656 38.925781 C 17.882812 39.8125 19.675781 40.21875 21.515625 40.535156 C 21.847656 40.59375 22.179688 40.652344 22.511719 40.714844 C 22.664062 40.742188 22.816406 40.769531 22.96875 40.796875 C 22.929688 40.84375 22.890625 40.886719 22.851562 40.933594 C 22.128906 41.835938 21.574219 42.820312 21.445312 43.976562 C 21.378906 44.328125 21.378906 44.328125 21.21875 44.625 C 20.660156 44.925781 20.089844 45.0625 19.46875 45.171875 C 19.304688 45.203125 19.304688 45.203125 19.136719 45.238281 C 17.40625 45.472656 15.875 45.207031 14.4375 44.1875 C 13.726562 43.617188 13.253906 42.925781 12.765625 42.167969 C 11.988281 40.976562 10.945312 40.0625 9.5625 39.644531 C 8.890625 39.515625 8.152344 39.453125 7.546875 39.8125 C 7.691406 40.25 7.839844 40.460938 8.210938 40.730469 C 8.296875 40.792969 8.386719 40.859375 8.476562 40.925781 C 8.652344 41.054688 8.824219 41.179688 9 41.300781 C 10.386719 42.320312 11.066406 43.683594 11.757812 45.210938 C 12.578125 46.953125 13.933594 48.019531 15.714844 48.667969 C 17.414062 49.164062 19.371094 48.933594 21.109375 48.78125 C 21.117188 49.503906 21.125 50.226562 21.128906 50.949219 C 21.128906 51.191406 21.132812 51.4375 21.132812 51.683594 C 21.136719 52.039062 21.140625 52.390625 21.140625 52.742188 C 21.144531 52.855469 21.144531 52.964844 21.148438 53.074219 C 21.148438 54.027344 21.148438 54.027344 20.78125 54.46875 C 20.351562 54.84375 19.96875 54.945312 19.398438 54.933594 C 18.882812 54.878906 18.417969 54.683594 17.9375 54.496094 C 17.824219 54.453125 17.710938 54.410156 17.589844 54.363281 C 14.359375 53.089844 11.582031 51.265625 8.96875 49 C 8.816406 48.871094 8.816406 48.871094 8.664062 48.734375 C 8.175781 48.308594 7.726562 47.871094 7.308594 47.371094 C 7.167969 47.207031 7.023438 47.046875 6.875 46.890625 C 5.550781 45.492188 4.429688 43.902344 3.5 42.21875 C 3.449219 42.128906 3.398438 42.039062 3.347656 41.945312 C 1.355469 38.359375 0 34.226562 -0.0234375 30.085938 C -0.0234375 29.9375 -0.0234375 29.9375 -0.0234375 29.78125 C -0.0507812 25.539062 -0.0507812 25.539062 0.328125 23.734375 C 0.363281 23.570312 0.363281 23.570312 0.398438 23.398438 C 1.40625 18.679688 3.445312 14.332031 6.671875 10.71875 C 6.792969 10.582031 6.792969 10.582031 6.914062 10.4375 C 7.945312 9.269531 9.042969 8.167969 10.28125 7.21875 C 10.351562 7.164062 10.425781 7.105469 10.5 7.050781 C 11.816406 6.027344 13.1875 5.164062 14.65625 4.375 C 14.734375 4.332031 14.808594 4.292969 14.886719 4.25 C 24.335938 -0.851562 36.445312 0.308594 47.160156 8.457031 Z M 47.160156 8.457031 "/>
</g>
</svg>
