<?xml version="1.0" encoding="UTF-8"?>
<svg xmlns="http://www.w3.org/2000/svg" xmlns:xlink="http://www.w3.org/1999/xlink" width="56px" height="56px" viewBox="0 0 56 56" version="1.1">
<g id="surface1">
<path style=" stroke:none;fill-rule:nonzero;fill:rgb(0%,0%,0%);fill-opacity:1;" d="M 16.023438 0.519531 C 16.1875 0.515625 16.1875 0.515625 16.355469 0.515625 C 16.714844 0.515625 17.078125 0.515625 17.4375 0.515625 C 17.699219 0.515625 17.960938 0.515625 18.222656 0.511719 C 18.855469 0.511719 19.488281 0.511719 20.121094 0.511719 C 20.632812 0.511719 21.148438 0.511719 21.660156 0.507812 C 23.121094 0.507812 24.582031 0.507812 26.042969 0.507812 C 26.121094 0.507812 26.199219 0.507812 26.277344 0.507812 C 26.398438 0.507812 26.398438 0.507812 26.515625 0.507812 C 27.792969 0.507812 29.070312 0.503906 30.34375 0.5 C 31.65625 0.5 32.96875 0.496094 34.28125 0.496094 C 35.015625 0.496094 35.75 0.496094 36.488281 0.492188 C 37.179688 0.492188 37.871094 0.492188 38.5625 0.492188 C 38.8125 0.492188 39.066406 0.492188 39.320312 0.492188 C 39.667969 0.488281 40.015625 0.492188 40.359375 0.492188 C 40.511719 0.492188 40.511719 0.492188 40.664062 0.488281 C 41.457031 0.496094 41.902344 0.707031 42.503906 1.234375 C 42.632812 1.367188 42.632812 1.367188 42.765625 1.503906 C 42.894531 1.636719 42.894531 1.636719 43.023438 1.769531 C 43.238281 2 43.445312 2.230469 43.648438 2.472656 C 44.105469 2.996094 44.59375 3.484375 45.085938 3.972656 C 45.238281 4.121094 45.386719 4.273438 45.539062 4.421875 C 45.699219 4.582031 45.859375 4.742188 46.019531 4.902344 C 46.355469 5.234375 46.6875 5.570312 47.023438 5.902344 C 47.730469 6.609375 48.441406 7.316406 49.148438 8.027344 C 49.917969 8.792969 50.6875 9.558594 51.453125 10.324219 C 51.785156 10.65625 52.121094 10.988281 52.453125 11.320312 C 52.707031 11.574219 52.960938 11.828125 53.214844 12.082031 C 53.308594 12.171875 53.402344 12.265625 53.496094 12.359375 C 53.582031 12.441406 53.664062 12.527344 53.75 12.613281 C 53.824219 12.6875 53.898438 12.757812 53.972656 12.835938 C 54.285156 13.171875 54.265625 13.417969 54.265625 13.867188 C 54.265625 14.003906 54.265625 14.140625 54.265625 14.28125 C 54.265625 14.433594 54.265625 14.585938 54.265625 14.738281 C 54.265625 14.898438 54.265625 15.058594 54.265625 15.21875 C 54.265625 15.660156 54.265625 16.105469 54.265625 16.546875 C 54.265625 17.023438 54.265625 17.5 54.265625 17.976562 C 54.269531 18.914062 54.269531 19.847656 54.269531 20.78125 C 54.269531 21.542969 54.269531 22.304688 54.269531 23.0625 C 54.269531 25.21875 54.269531 27.371094 54.269531 29.527344 C 54.269531 29.703125 54.269531 29.703125 54.269531 29.878906 C 54.269531 29.996094 54.269531 30.113281 54.269531 30.230469 C 54.269531 32.117188 54.269531 34.003906 54.273438 35.886719 C 54.273438 37.824219 54.273438 39.757812 54.273438 41.691406 C 54.273438 42.777344 54.273438 43.867188 54.277344 44.953125 C 54.277344 45.878906 54.277344 46.804688 54.277344 47.730469 C 54.277344 48.203125 54.277344 48.671875 54.277344 49.144531 C 54.277344 49.578125 54.277344 50.011719 54.277344 50.441406 C 54.277344 50.597656 54.277344 50.753906 54.277344 50.910156 C 54.28125 52.21875 54.195312 53.292969 53.375 54.359375 C 52.277344 55.4375 50.949219 55.46875 49.496094 55.46875 C 49.355469 55.46875 49.21875 55.46875 49.078125 55.46875 C 48.695312 55.46875 48.316406 55.46875 47.933594 55.46875 C 47.523438 55.46875 47.113281 55.46875 46.699219 55.46875 C 45.894531 55.46875 45.089844 55.46875 44.285156 55.46875 C 43.628906 55.46875 42.972656 55.46875 42.316406 55.46875 C 42.222656 55.46875 42.128906 55.46875 42.03125 55.46875 C 41.839844 55.46875 41.652344 55.46875 41.460938 55.46875 C 39.679688 55.46875 37.898438 55.46875 36.113281 55.46875 C 34.589844 55.464844 33.066406 55.46875 31.539062 55.46875 C 29.769531 55.46875 27.996094 55.46875 26.222656 55.46875 C 26.03125 55.46875 25.839844 55.46875 25.652344 55.46875 C 25.511719 55.46875 25.511719 55.46875 25.367188 55.46875 C 24.714844 55.46875 24.0625 55.46875 23.410156 55.46875 C 22.609375 55.46875 21.808594 55.46875 21.011719 55.46875 C 20.605469 55.46875 20.199219 55.46875 19.792969 55.46875 C 18.808594 55.46875 17.828125 55.464844 16.84375 55.453125 C 16.714844 55.453125 16.582031 55.449219 16.449219 55.449219 C 16.078125 55.445312 15.703125 55.433594 15.332031 55.425781 C 15.222656 55.421875 15.113281 55.421875 15.003906 55.421875 C 13.992188 55.386719 13.074219 55.105469 12.359375 54.359375 C 11.640625 53.363281 11.449219 52.460938 11.457031 51.253906 C 11.457031 51.144531 11.457031 51.03125 11.457031 50.917969 C 11.457031 50.546875 11.457031 50.171875 11.460938 49.800781 C 11.460938 49.535156 11.460938 49.265625 11.460938 49 C 11.460938 48.425781 11.460938 47.847656 11.460938 47.273438 C 11.464844 46.445312 11.464844 45.613281 11.464844 44.78125 C 11.464844 43.433594 11.464844 42.085938 11.46875 40.734375 C 11.46875 39.425781 11.472656 38.117188 11.472656 36.804688 C 11.472656 36.726562 11.472656 36.644531 11.472656 36.5625 C 11.472656 36.15625 11.472656 35.75 11.472656 35.347656 C 11.476562 31.984375 11.480469 28.625 11.484375 25.265625 C 11.398438 25.265625 11.316406 25.265625 11.230469 25.265625 C 10.433594 25.273438 9.636719 25.273438 8.839844 25.277344 C 8.429688 25.277344 8.019531 25.28125 7.613281 25.28125 C 7.214844 25.285156 6.820312 25.285156 6.425781 25.285156 C 6.273438 25.285156 6.125 25.289062 5.972656 25.289062 C 4.789062 25.296875 3.683594 25.289062 2.734375 24.5 C 1.972656 23.722656 1.714844 22.773438 1.707031 21.703125 C 1.707031 21.605469 1.707031 21.507812 1.710938 21.40625 C 1.707031 21.300781 1.707031 21.195312 1.707031 21.085938 C 1.707031 20.734375 1.707031 20.386719 1.710938 20.039062 C 1.710938 19.792969 1.710938 19.550781 1.710938 19.308594 C 1.710938 18.796875 1.710938 18.285156 1.714844 17.777344 C 1.714844 17.125 1.714844 16.472656 1.714844 15.820312 C 1.714844 15.316406 1.714844 14.8125 1.714844 14.3125 C 1.71875 14.070312 1.71875 13.828125 1.71875 13.589844 C 1.71875 13.253906 1.71875 12.917969 1.71875 12.582031 C 1.71875 12.480469 1.71875 12.382812 1.71875 12.28125 C 1.726562 11.265625 1.925781 10.398438 2.625 9.625 C 3.320312 9.109375 3.898438 8.84375 4.765625 8.847656 C 4.839844 8.847656 4.910156 8.847656 4.988281 8.847656 C 5.226562 8.847656 5.464844 8.847656 5.707031 8.847656 C 5.871094 8.847656 6.039062 8.847656 6.203125 8.847656 C 6.640625 8.847656 7.078125 8.851562 7.515625 8.851562 C 7.964844 8.851562 8.410156 8.851562 8.855469 8.855469 C 9.734375 8.855469 10.609375 8.855469 11.484375 8.859375 C 11.484375 8.765625 11.484375 8.765625 11.480469 8.667969 C 11.476562 8.007812 11.46875 7.34375 11.464844 6.683594 C 11.464844 6.4375 11.460938 6.191406 11.460938 5.941406 C 11.457031 5.585938 11.453125 5.230469 11.453125 4.875 C 11.449219 4.765625 11.449219 4.65625 11.445312 4.546875 C 11.445312 3.460938 11.636719 2.480469 12.351562 1.640625 C 13.386719 0.636719 14.636719 0.511719 16.023438 0.519531 Z M 13.386719 2.644531 C 12.859375 3.332031 12.859375 4.195312 12.875 5.023438 C 12.875 5.136719 12.875 5.246094 12.875 5.359375 C 12.878906 5.707031 12.882812 6.054688 12.886719 6.40625 C 12.886719 6.644531 12.890625 6.882812 12.890625 7.117188 C 12.894531 7.699219 12.898438 8.277344 12.90625 8.859375 C 13.050781 8.859375 13.050781 8.859375 13.195312 8.859375 C 15.519531 8.863281 17.84375 8.871094 20.164062 8.878906 C 21.289062 8.882812 22.414062 8.886719 23.535156 8.890625 C 24.515625 8.890625 25.496094 8.894531 26.476562 8.898438 C 26.992188 8.902344 27.511719 8.902344 28.03125 8.902344 C 28.519531 8.902344 29.007812 8.902344 29.496094 8.90625 C 29.675781 8.910156 29.851562 8.910156 30.03125 8.90625 C 31.101562 8.90625 32.085938 8.925781 32.964844 9.609375 C 33.019531 9.679688 33.078125 9.746094 33.132812 9.816406 C 33.191406 9.882812 33.25 9.949219 33.308594 10.019531 C 33.773438 10.777344 33.84375 11.453125 33.84375 12.324219 C 33.84375 12.4375 33.84375 12.550781 33.84375 12.667969 C 33.847656 13.039062 33.847656 13.414062 33.847656 13.789062 C 33.847656 14.046875 33.851562 14.308594 33.851562 14.570312 C 33.851562 15.117188 33.851562 15.664062 33.851562 16.210938 C 33.851562 16.90625 33.855469 17.605469 33.859375 18.304688 C 33.863281 18.84375 33.863281 19.382812 33.863281 19.921875 C 33.863281 20.175781 33.863281 20.433594 33.863281 20.691406 C 33.867188 21.054688 33.867188 21.414062 33.863281 21.773438 C 33.867188 21.878906 33.867188 21.984375 33.867188 22.09375 C 33.859375 22.925781 33.628906 23.644531 33.058594 24.273438 C 32.265625 25.011719 31.347656 25.167969 30.292969 25.171875 C 30.21875 25.175781 30.144531 25.175781 30.066406 25.175781 C 29.820312 25.175781 29.570312 25.179688 29.320312 25.179688 C 29.140625 25.179688 28.964844 25.179688 28.785156 25.183594 C 28.300781 25.183594 27.816406 25.1875 27.328125 25.1875 C 26.824219 25.191406 26.316406 25.195312 25.808594 25.199219 C 24.847656 25.203125 23.886719 25.207031 22.929688 25.210938 C 21.835938 25.21875 20.742188 25.222656 19.648438 25.230469 C 17.402344 25.242188 15.152344 25.253906 12.90625 25.265625 C 12.898438 28.675781 12.894531 32.085938 12.890625 35.5 C 12.890625 35.902344 12.886719 36.304688 12.886719 36.707031 C 12.886719 36.789062 12.886719 36.867188 12.886719 36.949219 C 12.886719 38.25 12.882812 39.546875 12.882812 40.84375 C 12.878906 42.175781 12.875 43.507812 12.875 44.839844 C 12.875 45.664062 12.875 46.484375 12.871094 47.304688 C 12.867188 47.9375 12.867188 48.566406 12.867188 49.199219 C 12.867188 49.457031 12.867188 49.714844 12.867188 49.972656 C 12.867188 50.324219 12.867188 50.679688 12.867188 51.03125 C 12.867188 51.132812 12.863281 51.234375 12.863281 51.339844 C 12.867188 52.050781 12.941406 52.773438 13.386719 53.355469 C 14.230469 54.171875 15.476562 54.0625 16.574219 54.058594 C 16.71875 54.058594 16.867188 54.058594 17.015625 54.058594 C 17.417969 54.0625 17.820312 54.058594 18.222656 54.058594 C 18.65625 54.058594 19.09375 54.058594 19.527344 54.0625 C 20.378906 54.0625 21.230469 54.0625 22.082031 54.0625 C 22.773438 54.058594 23.464844 54.058594 24.15625 54.058594 C 24.253906 54.0625 24.351562 54.0625 24.453125 54.0625 C 24.652344 54.0625 24.855469 54.0625 25.054688 54.0625 C 26.929688 54.0625 28.808594 54.0625 30.683594 54.058594 C 32.292969 54.058594 33.902344 54.058594 35.511719 54.058594 C 37.378906 54.0625 39.25 54.0625 41.121094 54.0625 C 41.320312 54.0625 41.519531 54.0625 41.71875 54.058594 C 41.816406 54.058594 41.914062 54.058594 42.015625 54.058594 C 42.707031 54.058594 43.398438 54.0625 44.085938 54.0625 C 44.929688 54.0625 45.769531 54.0625 46.613281 54.058594 C 47.042969 54.058594 47.472656 54.058594 47.902344 54.058594 C 48.292969 54.0625 48.6875 54.0625 49.082031 54.058594 C 49.289062 54.058594 49.5 54.058594 49.707031 54.058594 C 50.675781 54.054688 51.5 54.011719 52.28125 53.375 C 52.742188 52.78125 52.84375 52.371094 52.839844 51.632812 C 52.84375 51.496094 52.84375 51.363281 52.84375 51.226562 C 52.84375 51.078125 52.839844 50.929688 52.839844 50.78125 C 52.839844 50.621094 52.839844 50.464844 52.839844 50.304688 C 52.84375 49.871094 52.839844 49.4375 52.839844 49.003906 C 52.839844 48.535156 52.839844 48.066406 52.839844 47.597656 C 52.839844 46.789062 52.839844 45.976562 52.839844 45.164062 C 52.839844 43.992188 52.839844 42.820312 52.839844 41.648438 C 52.839844 39.746094 52.835938 37.84375 52.835938 35.941406 C 52.835938 34.089844 52.835938 32.242188 52.835938 30.394531 C 52.835938 30.28125 52.835938 30.167969 52.835938 30.050781 C 52.832031 29.476562 52.832031 28.90625 52.832031 28.335938 C 52.832031 23.59375 52.832031 18.851562 52.828125 14.109375 C 52.710938 14.109375 52.59375 14.109375 52.472656 14.109375 C 51.371094 14.105469 50.265625 14.097656 49.164062 14.089844 C 48.59375 14.085938 48.027344 14.082031 47.460938 14.078125 C 46.914062 14.078125 46.363281 14.074219 45.816406 14.070312 C 45.609375 14.066406 45.398438 14.066406 45.191406 14.066406 C 42.867188 14.0625 42.867188 14.0625 41.855469 13.316406 C 41.003906 12.445312 40.765625 11.503906 40.761719 10.3125 C 40.761719 10.175781 40.761719 10.175781 40.757812 10.039062 C 40.753906 9.742188 40.753906 9.445312 40.75 9.148438 C 40.75 8.9375 40.746094 8.730469 40.746094 8.523438 C 40.738281 7.980469 40.734375 7.4375 40.730469 6.894531 C 40.726562 6.339844 40.722656 5.785156 40.714844 5.230469 C 40.707031 4.144531 40.695312 3.054688 40.6875 1.96875 C 37.445312 1.964844 34.203125 1.960938 30.960938 1.957031 C 30.578125 1.957031 30.195312 1.957031 29.8125 1.957031 C 29.738281 1.957031 29.660156 1.957031 29.582031 1.957031 C 28.347656 1.957031 27.113281 1.953125 25.882812 1.953125 C 24.613281 1.949219 23.347656 1.949219 22.082031 1.949219 C 21.371094 1.949219 20.660156 1.945312 19.949219 1.945312 C 19.28125 1.945312 18.609375 1.945312 17.941406 1.945312 C 17.695312 1.945312 17.449219 1.945312 17.203125 1.941406 C 16.867188 1.941406 16.53125 1.941406 16.195312 1.941406 C 16.101562 1.941406 16.003906 1.941406 15.90625 1.941406 C 14.996094 1.945312 14.070312 1.980469 13.386719 2.644531 Z M 42.109375 3.0625 C 42.101562 4.089844 42.097656 5.113281 42.09375 6.140625 C 42.089844 6.617188 42.089844 7.09375 42.085938 7.570312 C 42.082031 8.03125 42.078125 8.488281 42.078125 8.949219 C 42.078125 9.125 42.078125 9.300781 42.074219 9.476562 C 42.023438 10.898438 42.023438 10.898438 42.625 12.148438 C 42.691406 12.195312 42.753906 12.246094 42.820312 12.296875 C 42.917969 12.375 42.917969 12.375 43.015625 12.453125 C 43.429688 12.726562 43.84375 12.703125 44.320312 12.699219 C 44.441406 12.699219 44.441406 12.699219 44.5625 12.699219 C 44.828125 12.699219 45.09375 12.699219 45.359375 12.699219 C 45.542969 12.699219 45.726562 12.699219 45.90625 12.699219 C 46.390625 12.699219 46.875 12.695312 47.355469 12.695312 C 47.847656 12.695312 48.339844 12.695312 48.835938 12.691406 C 49.800781 12.691406 50.769531 12.691406 51.734375 12.6875 C 51.699219 12.617188 51.664062 12.542969 51.625 12.46875 C 51.554688 12.46875 51.480469 12.46875 51.40625 12.46875 C 51.378906 12.40625 51.347656 12.339844 51.320312 12.273438 C 51.179688 12.015625 51.027344 11.847656 50.820312 11.636719 C 50.746094 11.5625 50.671875 11.484375 50.59375 11.40625 C 50.507812 11.324219 50.425781 11.242188 50.339844 11.160156 C 50.210938 11.027344 50.210938 11.027344 50.078125 10.894531 C 49.789062 10.605469 49.496094 10.316406 49.207031 10.027344 C 49.007812 9.828125 48.808594 9.625 48.605469 9.425781 C 48.1875 9.003906 47.765625 8.585938 47.34375 8.167969 C 46.859375 7.679688 46.371094 7.195312 45.886719 6.707031 C 45.417969 6.242188 44.949219 5.773438 44.480469 5.308594 C 44.28125 5.109375 44.082031 4.910156 43.882812 4.710938 C 43.605469 4.433594 43.328125 4.15625 43.050781 3.878906 C 42.96875 3.796875 42.882812 3.710938 42.800781 3.625 C 42.722656 3.550781 42.648438 3.476562 42.570312 3.398438 C 42.503906 3.335938 42.4375 3.269531 42.371094 3.203125 C 42.238281 3.050781 42.238281 3.050781 42.109375 3.0625 Z M 3.464844 10.875 C 3.207031 11.265625 3.160156 11.589844 3.15625 12.050781 C 3.15625 12.144531 3.15625 12.234375 3.15625 12.328125 C 3.15625 12.425781 3.15625 12.523438 3.152344 12.625 C 3.152344 12.730469 3.152344 12.835938 3.152344 12.941406 C 3.152344 13.289062 3.148438 13.632812 3.148438 13.976562 C 3.148438 14.21875 3.148438 14.457031 3.148438 14.699219 C 3.148438 15.203125 3.144531 15.707031 3.144531 16.210938 C 3.144531 16.855469 3.140625 17.5 3.140625 18.144531 C 3.136719 18.644531 3.136719 19.140625 3.136719 19.636719 C 3.136719 19.875 3.136719 20.109375 3.132812 20.347656 C 3.132812 20.683594 3.132812 21.015625 3.132812 21.347656 C 3.132812 21.445312 3.132812 21.542969 3.128906 21.644531 C 3.132812 22.304688 3.21875 22.855469 3.660156 23.378906 C 4.136719 23.746094 4.46875 23.855469 5.058594 23.859375 C 5.152344 23.859375 5.246094 23.859375 5.34375 23.859375 C 5.445312 23.859375 5.546875 23.859375 5.648438 23.859375 C 5.8125 23.859375 5.8125 23.859375 5.980469 23.859375 C 6.34375 23.859375 6.707031 23.859375 7.070312 23.863281 C 7.332031 23.863281 7.59375 23.863281 7.851562 23.863281 C 8.5625 23.863281 9.269531 23.863281 9.980469 23.867188 C 10.421875 23.867188 10.867188 23.867188 11.308594 23.867188 C 12.535156 23.867188 13.761719 23.871094 14.984375 23.871094 C 15.066406 23.871094 15.144531 23.871094 15.222656 23.871094 C 15.300781 23.871094 15.382812 23.871094 15.460938 23.871094 C 15.621094 23.871094 15.78125 23.871094 15.941406 23.871094 C 16.058594 23.871094 16.058594 23.871094 16.179688 23.871094 C 17.460938 23.871094 18.742188 23.871094 20.023438 23.875 C 21.335938 23.878906 22.652344 23.878906 23.96875 23.878906 C 24.707031 23.878906 25.445312 23.878906 26.183594 23.882812 C 26.875 23.882812 27.570312 23.882812 28.265625 23.882812 C 28.519531 23.882812 28.773438 23.882812 29.03125 23.882812 C 29.378906 23.886719 29.726562 23.886719 30.074219 23.882812 C 30.175781 23.886719 30.277344 23.886719 30.378906 23.886719 C 30.980469 23.882812 31.40625 23.804688 31.9375 23.515625 C 32.339844 23.09375 32.496094 22.757812 32.5 22.179688 C 32.5 22.082031 32.503906 21.988281 32.503906 21.890625 C 32.503906 21.789062 32.503906 21.6875 32.503906 21.578125 C 32.503906 21.472656 32.503906 21.363281 32.507812 21.25 C 32.507812 20.890625 32.507812 20.527344 32.511719 20.167969 C 32.511719 20.042969 32.511719 19.921875 32.511719 19.792969 C 32.515625 19.140625 32.515625 18.492188 32.515625 17.839844 C 32.519531 17.164062 32.523438 16.492188 32.527344 15.820312 C 32.527344 15.300781 32.53125 14.78125 32.53125 14.265625 C 32.53125 14.015625 32.53125 13.769531 32.535156 13.519531 C 32.535156 13.171875 32.535156 12.824219 32.535156 12.476562 C 32.539062 12.375 32.539062 12.273438 32.539062 12.167969 C 32.535156 11.558594 32.46875 11.191406 32.046875 10.71875 C 31.46875 10.230469 31.011719 10.21875 30.289062 10.226562 C 30.179688 10.226562 30.070312 10.226562 29.957031 10.222656 C 29.585938 10.222656 29.214844 10.226562 28.847656 10.226562 C 28.582031 10.226562 28.316406 10.226562 28.050781 10.222656 C 27.40625 10.222656 26.761719 10.222656 26.113281 10.226562 C 25.363281 10.226562 24.609375 10.226562 23.859375 10.226562 C 22.519531 10.226562 21.175781 10.226562 19.835938 10.230469 C 18.535156 10.234375 17.230469 10.234375 15.929688 10.234375 C 14.511719 10.230469 13.09375 10.230469 11.679688 10.234375 C 11.527344 10.234375 11.375 10.234375 11.222656 10.234375 C 11.148438 10.234375 11.074219 10.234375 11 10.234375 C 10.476562 10.234375 9.953125 10.234375 9.425781 10.234375 C 8.722656 10.234375 8.015625 10.234375 7.3125 10.234375 C 7.050781 10.238281 6.792969 10.238281 6.535156 10.234375 C 6.179688 10.234375 5.828125 10.238281 5.476562 10.238281 C 5.371094 10.238281 5.269531 10.238281 5.164062 10.238281 C 4.460938 10.242188 3.96875 10.34375 3.464844 10.875 Z M 3.464844 10.875 "/>
<path style=" stroke:none;fill-rule:nonzero;fill:rgb(0%,0%,0%);fill-opacity:1;" d="M 18.265625 13.453125 C 18.609375 13.832031 18.851562 14.242188 19.089844 14.691406 C 19.140625 14.789062 19.140625 14.789062 19.195312 14.890625 C 19.304688 15.097656 19.414062 15.304688 19.523438 15.511719 C 19.597656 15.648438 19.671875 15.785156 19.742188 15.921875 C 20.097656 16.589844 20.449219 17.257812 20.78125 17.9375 C 21.097656 17.554688 21.3125 17.125 21.53125 16.683594 C 21.613281 16.523438 21.695312 16.359375 21.777344 16.199219 C 21.90625 15.949219 22.03125 15.695312 22.160156 15.441406 C 22.28125 15.195312 22.40625 14.953125 22.53125 14.707031 C 22.566406 14.632812 22.605469 14.558594 22.644531 14.480469 C 22.851562 14.074219 23.042969 13.734375 23.40625 13.453125 C 24.085938 13.476562 24.085938 13.476562 24.390625 13.78125 C 24.417969 14.050781 24.417969 14.050781 24.421875 14.394531 C 24.421875 14.519531 24.425781 14.648438 24.425781 14.78125 C 24.425781 14.921875 24.425781 15.058594 24.425781 15.203125 C 24.429688 15.414062 24.429688 15.414062 24.429688 15.632812 C 24.429688 15.933594 24.429688 16.234375 24.429688 16.535156 C 24.429688 16.921875 24.433594 17.308594 24.4375 17.695312 C 24.441406 18.0625 24.441406 18.429688 24.441406 18.796875 C 24.441406 18.9375 24.445312 19.074219 24.445312 19.21875 C 24.445312 19.347656 24.445312 19.476562 24.445312 19.609375 C 24.445312 19.722656 24.445312 19.835938 24.445312 19.953125 C 24.390625 20.234375 24.390625 20.234375 24.191406 20.4375 C 23.828125 20.628906 23.578125 20.5625 23.1875 20.453125 C 22.957031 20.121094 22.9375 19.820312 22.921875 19.421875 C 22.917969 19.253906 22.917969 19.253906 22.910156 19.082031 C 22.90625 18.964844 22.902344 18.851562 22.898438 18.730469 C 22.894531 18.554688 22.894531 18.554688 22.886719 18.371094 C 22.878906 18.082031 22.867188 17.789062 22.859375 17.5 C 22.820312 17.574219 22.785156 17.648438 22.742188 17.726562 C 22.570312 18.0625 22.398438 18.398438 22.222656 18.738281 C 22.164062 18.855469 22.105469 18.972656 22.042969 19.09375 C 21.984375 19.203125 21.925781 19.316406 21.867188 19.433594 C 21.8125 19.535156 21.757812 19.640625 21.703125 19.746094 C 21.558594 19.996094 21.445312 20.167969 21.21875 20.34375 C 20.84375 20.398438 20.84375 20.398438 20.453125 20.34375 C 20.128906 19.992188 19.902344 19.617188 19.6875 19.191406 C 19.628906 19.082031 19.570312 18.96875 19.511719 18.855469 C 19.453125 18.738281 19.394531 18.625 19.332031 18.503906 C 19.269531 18.386719 19.210938 18.269531 19.148438 18.148438 C 19 17.859375 18.851562 17.570312 18.703125 17.28125 C 18.703125 17.367188 18.699219 17.457031 18.699219 17.546875 C 18.691406 17.945312 18.679688 18.339844 18.667969 18.738281 C 18.664062 18.945312 18.664062 18.945312 18.660156 19.15625 C 18.65625 19.289062 18.652344 19.421875 18.648438 19.554688 C 18.648438 19.679688 18.644531 19.800781 18.640625 19.925781 C 18.59375 20.234375 18.59375 20.234375 18.445312 20.4375 C 18.164062 20.632812 17.941406 20.605469 17.609375 20.5625 C 17.328125 20.359375 17.285156 20.242188 17.171875 19.90625 C 17.160156 19.722656 17.15625 19.539062 17.15625 19.355469 C 17.15625 19.242188 17.15625 19.132812 17.152344 19.015625 C 17.152344 18.894531 17.152344 18.773438 17.152344 18.648438 C 17.152344 18.523438 17.152344 18.398438 17.152344 18.273438 C 17.152344 18.007812 17.152344 17.746094 17.152344 17.480469 C 17.152344 17.078125 17.148438 16.675781 17.148438 16.273438 C 17.148438 16.015625 17.148438 15.761719 17.148438 15.503906 C 17.144531 15.382812 17.144531 15.261719 17.144531 15.140625 C 17.144531 15.027344 17.144531 14.914062 17.144531 14.796875 C 17.144531 14.699219 17.144531 14.601562 17.144531 14.5 C 17.175781 14.183594 17.246094 13.953125 17.390625 13.671875 C 17.746094 13.433594 17.855469 13.382812 18.265625 13.453125 Z M 18.265625 13.453125 "/>
<path style=" stroke:none;fill-rule:nonzero;fill:rgb(0%,0%,0%);fill-opacity:1;" d="M 38.558594 36.207031 C 38.886719 36.359375 39.210938 36.519531 39.539062 36.683594 C 39.65625 36.742188 39.777344 36.800781 39.902344 36.863281 C 40.285156 37.050781 40.667969 37.242188 41.050781 37.433594 C 41.304688 37.558594 41.5625 37.6875 41.816406 37.8125 C 42.394531 38.097656 42.972656 38.386719 43.550781 38.675781 C 43.757812 38.777344 43.96875 38.878906 44.175781 38.980469 C 44.273438 39.03125 44.371094 39.078125 44.472656 39.128906 C 44.5625 39.171875 44.648438 39.214844 44.738281 39.257812 C 44.953125 39.375 44.953125 39.375 45.171875 39.59375 C 45.21875 39.960938 45.21875 39.960938 45.171875 40.359375 C 44.699219 40.84375 44.054688 41.089844 43.449219 41.371094 C 43.203125 41.484375 42.960938 41.601562 42.71875 41.714844 C 42.652344 41.746094 42.585938 41.777344 42.519531 41.808594 C 41.988281 42.0625 41.460938 42.320312 40.933594 42.582031 C 40.691406 42.699219 40.445312 42.820312 40.203125 42.941406 C 40.042969 43.019531 39.882812 43.097656 39.726562 43.179688 C 39.5 43.289062 39.273438 43.402344 39.050781 43.511719 C 38.984375 43.546875 38.917969 43.578125 38.847656 43.613281 C 38.40625 43.828125 38.007812 43.933594 37.515625 43.96875 C 37.25 43.859375 37.25 43.859375 37.078125 43.640625 C 37.015625 43.265625 37.015625 43.265625 37.078125 42.875 C 37.472656 42.496094 37.929688 42.265625 38.417969 42.035156 C 38.492188 42 38.570312 41.960938 38.648438 41.925781 C 38.890625 41.808594 39.132812 41.691406 39.375 41.574219 C 39.535156 41.5 39.695312 41.421875 39.851562 41.347656 C 40.785156 40.898438 41.71875 40.460938 42.65625 40.03125 C 42.351562 39.792969 42.054688 39.609375 41.707031 39.445312 C 41.554688 39.375 41.554688 39.375 41.402344 39.300781 C 41.242188 39.226562 41.242188 39.226562 41.078125 39.148438 C 40.964844 39.097656 40.855469 39.042969 40.742188 38.992188 C 40.175781 38.722656 39.605469 38.453125 39.039062 38.1875 C 38.933594 38.140625 38.828125 38.089844 38.722656 38.039062 C 38.523438 37.949219 38.324219 37.855469 38.125 37.761719 C 38.035156 37.722656 37.945312 37.679688 37.851562 37.636719 C 37.773438 37.597656 37.695312 37.5625 37.613281 37.523438 C 37.390625 37.398438 37.238281 37.28125 37.078125 37.078125 C 37.03125 36.695312 37.03125 36.695312 37.078125 36.3125 C 37.472656 35.804688 38.035156 35.992188 38.558594 36.207031 Z M 38.558594 36.207031 "/>
<path style=" stroke:none;fill-rule:nonzero;fill:rgb(0%,0%,0%);fill-opacity:1;" d="M 28.4375 36.09375 C 28.65625 36.3125 28.65625 36.3125 28.703125 36.679688 C 28.65625 37.078125 28.65625 37.078125 28.429688 37.296875 C 28.074219 37.539062 27.707031 37.734375 27.316406 37.917969 C 27.242188 37.953125 27.164062 37.992188 27.085938 38.027344 C 26.84375 38.144531 26.601562 38.261719 26.359375 38.375 C 26.199219 38.453125 26.039062 38.53125 25.882812 38.605469 C 24.949219 39.054688 24.015625 39.492188 23.078125 39.921875 C 23.382812 40.160156 23.679688 40.34375 24.027344 40.507812 C 24.128906 40.554688 24.230469 40.601562 24.332031 40.652344 C 24.441406 40.703125 24.546875 40.75 24.65625 40.804688 C 24.769531 40.855469 24.878906 40.910156 24.992188 40.960938 C 25.558594 41.230469 26.128906 41.5 26.695312 41.765625 C 26.800781 41.8125 26.90625 41.863281 27.011719 41.914062 C 27.210938 42.003906 27.410156 42.097656 27.609375 42.191406 C 27.699219 42.230469 27.789062 42.273438 27.882812 42.316406 C 27.960938 42.355469 28.039062 42.390625 28.121094 42.429688 C 28.34375 42.554688 28.496094 42.671875 28.65625 42.875 C 28.703125 43.257812 28.703125 43.257812 28.65625 43.640625 C 28.484375 43.859375 28.484375 43.859375 28.21875 43.96875 C 27.511719 43.9375 26.980469 43.652344 26.359375 43.328125 C 26.144531 43.214844 25.929688 43.105469 25.714844 42.996094 C 25.605469 42.941406 25.496094 42.882812 25.382812 42.824219 C 24.84375 42.550781 24.296875 42.292969 23.75 42.035156 C 23 41.679688 22.253906 41.320312 21.511719 40.953125 C 21.441406 40.917969 21.367188 40.882812 21.292969 40.847656 C 21.011719 40.707031 20.789062 40.585938 20.5625 40.359375 C 20.515625 39.992188 20.515625 39.992188 20.5625 39.59375 C 20.921875 39.257812 21.300781 39.042969 21.746094 38.832031 C 21.871094 38.773438 21.996094 38.710938 22.125 38.652344 C 22.261719 38.585938 22.394531 38.523438 22.53125 38.460938 C 22.671875 38.390625 22.8125 38.324219 22.953125 38.257812 C 23.167969 38.15625 23.386719 38.050781 23.605469 37.945312 C 24.132812 37.695312 24.660156 37.441406 25.183594 37.1875 C 25.257812 37.152344 25.328125 37.117188 25.40625 37.082031 C 25.6875 36.945312 25.972656 36.804688 26.253906 36.667969 C 26.449219 36.574219 26.644531 36.480469 26.839844 36.386719 C 26.949219 36.332031 27.0625 36.277344 27.175781 36.222656 C 27.65625 36 27.921875 35.972656 28.4375 36.09375 Z M 28.4375 36.09375 "/>
<path style=" stroke:none;fill-rule:nonzero;fill:rgb(0%,0%,0%);fill-opacity:1;" d="M 6.890625 13.671875 C 7.132812 14.03125 7.136719 14.140625 7.128906 14.558594 C 7.128906 14.65625 7.128906 14.753906 7.128906 14.851562 C 7.125 15.035156 7.125 15.035156 7.125 15.222656 C 7.117188 15.613281 7.113281 16.003906 7.109375 16.40625 C 7.976562 16.40625 8.84375 16.40625 9.734375 16.40625 C 9.722656 15.628906 9.722656 15.628906 9.703125 14.851562 C 9.703125 14.753906 9.703125 14.660156 9.703125 14.558594 C 9.699219 14.460938 9.699219 14.359375 9.695312 14.257812 C 9.742188 13.949219 9.816406 13.855469 10.0625 13.671875 C 10.375 13.609375 10.613281 13.640625 10.9375 13.671875 C 11.183594 14.042969 11.183594 14.171875 11.1875 14.605469 C 11.1875 14.726562 11.191406 14.851562 11.191406 14.980469 C 11.191406 15.113281 11.191406 15.246094 11.191406 15.382812 C 11.195312 15.519531 11.195312 15.660156 11.195312 15.800781 C 11.195312 16.089844 11.195312 16.378906 11.195312 16.671875 C 11.195312 17.042969 11.199219 17.414062 11.203125 17.785156 C 11.207031 18.140625 11.207031 18.496094 11.207031 18.851562 C 11.207031 18.984375 11.210938 19.117188 11.210938 19.253906 C 11.210938 19.378906 11.210938 19.503906 11.210938 19.628906 C 11.210938 19.738281 11.210938 19.847656 11.210938 19.960938 C 11.15625 20.234375 11.15625 20.234375 10.957031 20.4375 C 10.59375 20.628906 10.339844 20.554688 9.953125 20.453125 C 9.714844 20.097656 9.707031 20 9.714844 19.589844 C 9.714844 19.5 9.714844 19.40625 9.714844 19.308594 C 9.714844 19.195312 9.71875 19.078125 9.71875 18.957031 C 9.726562 18.582031 9.730469 18.210938 9.734375 17.828125 C 8.867188 17.828125 8 17.828125 7.109375 17.828125 C 7.125 18.605469 7.125 18.605469 7.148438 19.382812 C 7.152344 19.527344 7.152344 19.527344 7.152344 19.675781 C 7.15625 19.773438 7.15625 19.875 7.160156 19.976562 C 7.109375 20.234375 7.109375 20.234375 6.914062 20.433594 C 6.546875 20.628906 6.296875 20.554688 5.90625 20.453125 C 5.660156 20.085938 5.660156 19.960938 5.65625 19.53125 C 5.65625 19.410156 5.65625 19.289062 5.65625 19.164062 C 5.65625 19.03125 5.65625 18.898438 5.65625 18.765625 C 5.652344 18.628906 5.652344 18.496094 5.652344 18.355469 C 5.652344 18 5.652344 17.640625 5.652344 17.28125 C 5.652344 17.0625 5.652344 16.84375 5.652344 16.625 C 5.648438 16.203125 5.648438 15.78125 5.648438 15.359375 C 5.648438 15.230469 5.644531 15.097656 5.644531 14.960938 C 5.644531 14.839844 5.644531 14.71875 5.648438 14.59375 C 5.648438 14.488281 5.648438 14.378906 5.648438 14.269531 C 5.753906 13.550781 6.296875 13.617188 6.890625 13.671875 Z M 6.890625 13.671875 "/>
<path style=" stroke:none;fill-rule:nonzero;fill:rgb(0%,0%,0%);fill-opacity:1;" d="M 35.164062 32.335938 C 35.546875 32.375 35.546875 32.375 35.875 32.59375 C 35.984375 33.335938 35.695312 34.007812 35.457031 34.703125 C 35.414062 34.839844 35.371094 34.972656 35.324219 35.109375 C 35.203125 35.476562 35.082031 35.839844 34.957031 36.207031 C 34.828125 36.589844 34.703125 36.972656 34.574219 37.355469 C 34.359375 37.996094 34.144531 38.640625 33.929688 39.28125 C 33.679688 40.023438 33.433594 40.765625 33.1875 41.507812 C 32.949219 42.222656 32.710938 42.9375 32.472656 43.652344 C 32.371094 43.957031 32.269531 44.261719 32.167969 44.566406 C 32.027344 44.988281 31.882812 45.414062 31.738281 45.839844 C 31.699219 45.964844 31.65625 46.089844 31.613281 46.21875 C 31.574219 46.335938 31.535156 46.449219 31.496094 46.570312 C 31.460938 46.671875 31.429688 46.769531 31.394531 46.875 C 31.277344 47.152344 31.160156 47.355469 30.953125 47.578125 C 30.472656 47.628906 30.265625 47.628906 29.859375 47.359375 C 29.75 46.617188 30.039062 45.945312 30.277344 45.25 C 30.320312 45.113281 30.363281 44.980469 30.410156 44.84375 C 30.53125 44.476562 30.652344 44.113281 30.777344 43.746094 C 30.90625 43.363281 31.03125 42.980469 31.160156 42.597656 C 31.375 41.957031 31.589844 41.3125 31.804688 40.671875 C 32.054688 39.929688 32.300781 39.1875 32.546875 38.445312 C 32.785156 37.730469 33.023438 37.015625 33.261719 36.300781 C 33.363281 35.996094 33.464844 35.691406 33.566406 35.386719 C 33.707031 34.964844 33.851562 34.539062 33.996094 34.113281 C 34.035156 33.988281 34.078125 33.863281 34.121094 33.734375 C 34.160156 33.617188 34.199219 33.503906 34.238281 33.382812 C 34.273438 33.28125 34.304688 33.183594 34.339844 33.078125 C 34.539062 32.605469 34.632812 32.390625 35.164062 32.335938 Z M 35.164062 32.335938 "/>
<path style=" stroke:none;fill-rule:nonzero;fill:rgb(0%,0%,0%);fill-opacity:1;" d="M 12.195312 13.75 C 12.347656 13.75 12.347656 13.75 12.5 13.75 C 12.605469 13.75 12.714844 13.75 12.824219 13.75 C 12.933594 13.746094 13.046875 13.746094 13.160156 13.746094 C 13.390625 13.746094 13.625 13.746094 13.859375 13.746094 C 14.21875 13.746094 14.574219 13.746094 14.933594 13.742188 C 15.160156 13.742188 15.386719 13.742188 15.613281 13.742188 C 15.71875 13.742188 15.828125 13.738281 15.9375 13.738281 C 16.039062 13.738281 16.136719 13.738281 16.242188 13.742188 C 16.328125 13.742188 16.414062 13.742188 16.507812 13.742188 C 16.792969 13.792969 16.890625 13.875 17.0625 14.109375 C 17.109375 14.492188 17.109375 14.492188 17.0625 14.875 C 16.785156 15.1875 16.621094 15.203125 16.199219 15.234375 C 16.039062 15.234375 15.882812 15.230469 15.722656 15.222656 C 15.601562 15.222656 15.601562 15.222656 15.476562 15.21875 C 15.277344 15.214844 15.074219 15.210938 14.875 15.203125 C 14.875 15.265625 14.875 15.328125 14.878906 15.390625 C 14.886719 16.039062 14.894531 16.6875 14.898438 17.335938 C 14.902344 17.578125 14.902344 17.816406 14.90625 18.058594 C 14.914062 18.40625 14.914062 18.753906 14.917969 19.101562 C 14.921875 19.210938 14.921875 19.320312 14.925781 19.429688 C 14.925781 19.53125 14.925781 19.632812 14.925781 19.734375 C 14.925781 19.824219 14.925781 19.914062 14.925781 20.003906 C 14.875 20.234375 14.875 20.234375 14.679688 20.429688 C 14.316406 20.628906 14.0625 20.554688 13.671875 20.453125 C 13.441406 20.109375 13.425781 20.03125 13.429688 19.636719 C 13.429688 19.539062 13.429688 19.4375 13.429688 19.335938 C 13.429688 19.230469 13.429688 19.125 13.433594 19.015625 C 13.433594 18.90625 13.433594 18.796875 13.433594 18.6875 C 13.433594 18.339844 13.4375 17.992188 13.4375 17.644531 C 13.441406 17.40625 13.441406 17.171875 13.441406 16.9375 C 13.445312 16.359375 13.449219 15.78125 13.453125 15.203125 C 13.269531 15.210938 13.269531 15.210938 13.085938 15.222656 C 12.925781 15.226562 12.765625 15.234375 12.605469 15.238281 C 12.527344 15.242188 12.445312 15.246094 12.363281 15.25 C 11.9375 15.261719 11.746094 15.242188 11.425781 14.949219 C 11.265625 14.65625 11.265625 14.65625 11.273438 14.308594 C 11.4375 13.808594 11.714844 13.753906 12.195312 13.75 Z M 12.195312 13.75 "/>
<path style=" stroke:none;fill-rule:nonzero;fill:rgb(0%,0%,0%);fill-opacity:1;" d="M 26.578125 13.5625 C 26.8125 13.914062 26.824219 14.003906 26.820312 14.410156 C 26.820312 14.566406 26.820312 14.566406 26.820312 14.726562 C 26.820312 14.839844 26.820312 14.953125 26.816406 15.070312 C 26.816406 15.1875 26.816406 15.304688 26.816406 15.421875 C 26.816406 15.792969 26.8125 16.164062 26.8125 16.535156 C 26.808594 16.789062 26.808594 17.039062 26.808594 17.289062 C 26.804688 17.90625 26.800781 18.523438 26.796875 19.140625 C 26.878906 19.140625 26.960938 19.136719 27.042969 19.136719 C 27.410156 19.128906 27.777344 19.125 28.144531 19.121094 C 28.269531 19.117188 28.398438 19.113281 28.53125 19.113281 C 28.652344 19.109375 28.773438 19.109375 28.902344 19.109375 C 29.015625 19.105469 29.125 19.105469 29.242188 19.101562 C 29.53125 19.140625 29.53125 19.140625 29.730469 19.28125 C 29.945312 19.59375 29.898438 19.871094 29.859375 20.234375 C 29.746094 20.417969 29.746094 20.417969 29.53125 20.5625 C 29.238281 20.59375 28.96875 20.609375 28.671875 20.605469 C 28.546875 20.605469 28.546875 20.605469 28.417969 20.605469 C 28.242188 20.605469 28.066406 20.605469 27.890625 20.605469 C 27.617188 20.605469 27.347656 20.605469 27.078125 20.605469 C 26.90625 20.605469 26.734375 20.605469 26.5625 20.605469 C 26.480469 20.605469 26.398438 20.605469 26.316406 20.609375 C 25.757812 20.601562 25.757812 20.601562 25.519531 20.433594 C 25.316406 20.152344 25.332031 19.953125 25.332031 19.609375 C 25.328125 19.480469 25.328125 19.355469 25.328125 19.222656 C 25.328125 19.082031 25.328125 18.945312 25.328125 18.800781 C 25.328125 18.660156 25.328125 18.519531 25.324219 18.371094 C 25.324219 18.070312 25.324219 17.769531 25.328125 17.46875 C 25.328125 17.085938 25.324219 16.699219 25.320312 16.316406 C 25.320312 15.949219 25.320312 15.582031 25.320312 15.214844 C 25.320312 15.003906 25.320312 15.003906 25.316406 14.792969 C 25.316406 14.664062 25.320312 14.539062 25.320312 14.40625 C 25.320312 14.292969 25.320312 14.179688 25.320312 14.0625 C 25.375 13.78125 25.375 13.78125 25.574219 13.578125 C 25.9375 13.390625 26.191406 13.460938 26.578125 13.5625 Z M 26.578125 13.5625 "/>
</g>
</svg>
