<?xml version="1.0" encoding="UTF-8"?>
<svg version="1.1" xmlns="http://www.w3.org/2000/svg" width="2048" height="2048">
<path d="M0 0 C0.95551758 0.24202148 1.91103516 0.48404297 2.89550781 0.73339844 C28.4691074 7.36801843 51.88525729 18.04909011 75.10205078 30.47705078 C78.26537573 32.13946199 81.46842341 33.68759281 84.69970703 35.21191406 C100.48800756 42.69964472 115.47525437 53.98521068 127.5625 66.56640625 C129.08693982 68.15558695 129.08693982 68.15558695 131.4375 69.8125 C131.953125 70.204375 132.46875 70.59625 133 71 C133 71.66 133 72.32 133 73 C133.66 73 134.32 73 135 73 C137.58203948 75.41520001 139.74469774 78.28373224 142 81 C142.7115625 81.84522217 142.7115625 81.84522217 143.4375 82.70751953 C151.30541363 92.06787802 158.50903719 101.63579516 165 112 C165.3810791 112.60666504 165.7621582 113.21333008 166.15478516 113.83837891 C168.85948369 118.17488533 171.46062764 122.56483345 174 127 C174.35916504 127.62503418 174.71833008 128.25006836 175.08837891 128.89404297 C186.00599085 148.11629552 194.29686753 168.96284729 201 190 C201.2882666 190.90331055 201.5765332 191.80662109 201.87353516 192.73730469 C220.73049772 252.68908647 225.18757514 317.05516844 218.4296875 379.41015625 C217.99368657 383.58746447 217.96525728 387.67242329 218.0625 391.875 C218.25306585 417.6764616 212.07486091 441.97041268 203 466 C203.59683594 465.7834375 204.19367188 465.566875 204.80859375 465.34375 C217.51519328 461.26555461 231.7981117 461.26462507 244 467 C256.61503318 474.54063164 263.38824033 487.88860916 266.97265625 501.765625 C274.0762416 534.47221085 266.14461158 569.19180759 248.25878906 597.10791016 C235.51693878 616.26022584 219.09347309 633.84965622 201 648 C200.07574219 648.74121094 199.15148438 649.48242188 198.19921875 650.24609375 C192.79945893 654.46214438 187.24699058 658.21840329 181.3125 661.625 C180.6407373 662.01445801 179.96897461 662.40391602 179.27685547 662.80517578 C175.80831027 664.73250969 172.58400066 666.21147316 168.7265625 667.171875 C160.91894721 669.24863313 156.43662717 671.74201246 152.015625 678.73828125 C149.01175142 683.9896519 146.26758144 689.3626635 143.60050964 694.79182434 C140.91237495 700.25833516 137.91583091 705.48660261 134.75 710.6875 C134.02478149 711.88850342 134.02478149 711.88850342 133.28491211 713.11376953 C128.87320439 720.34678788 124.14434396 727.33637685 119.22998047 734.23535156 C118.04772445 735.93152991 116.92594343 737.65407522 115.81640625 739.3984375 C115.15511719 740.40132812 114.49382813 741.40421875 113.8125 742.4375 C112.98685547 743.73494141 112.98685547 743.73494141 112.14453125 745.05859375 C110 747 110 747 106.11328125 747.125 C103.97719763 747.19724803 103.97719763 747.19724803 102 748 C99.44726703 751.18617548 97.98787368 754.83350379 96.375 758.5625 C95.34945245 760.76629399 94.31666726 762.96673176 93.27734375 765.1640625 C92.7447998 766.2974707 92.21225586 767.43087891 91.66357422 768.59863281 C74.21582347 804.27254879 48.20512656 843.88671058 18.25390625 870.5546875 C15.42376073 873.81684901 15.56262242 878.87565218 15 883 C14.71962891 884.82337891 14.71962891 884.82337891 14.43359375 886.68359375 C10.96649366 911.68603203 11.91667111 938.16162922 16 963 C16.27408691 964.72814941 16.27408691 964.72814941 16.55371094 966.49121094 C22.335626 1002.35047724 30.50746352 1038.22802156 41 1073 C41.27730957 1073.92554688 41.55461914 1074.85109375 41.84033203 1075.8046875 C53.62548818 1114.55040634 72.5046162 1148.98158144 98.5 1179.875 C98.98001465 1180.4520166 99.4600293 1181.0290332 99.95458984 1181.62353516 C103.30601726 1185.52862545 106.52032471 1188.00218546 111.28125 1189.91796875 C113 1191 113 1191 113.46875 1192.98828125 C113.4790625 1193.75527344 113.489375 1194.52226563 113.5 1195.3125 C113.56105309 1199.80753402 114.91523426 1201.74193282 118 1205 C120.39463536 1207.05693037 122.89454276 1208.94344151 125.4375 1210.8125 C126.1476123 1211.33875977 126.85772461 1211.86501953 127.58935547 1212.40722656 C133.84894855 1216.99151982 140.28962738 1221.09938931 147 1225 C148.53914063 1225.91265625 148.53914063 1225.91265625 150.109375 1226.84375 C160.20430461 1232.73648403 170.59595778 1238.06163326 180.97558594 1243.43115234 C183.92823172 1244.9627718 186.87526599 1246.50460695 189.8203125 1248.05078125 C199.25284149 1253.00043698 208.71042575 1257.88450104 218.25 1262.625 C225.47493948 1266.21538091 232.64526215 1269.88661239 239.76928711 1273.67285156 C246.94619083 1277.4738903 254.17550509 1281.1695655 261.40649414 1284.86621094 C275.79486934 1292.2220788 290.14118382 1299.62109781 304.26367188 1307.47949219 C307.3326462 1309.18484302 310.4083603 1310.87769541 313.484375 1312.5703125 C343.29076038 1329.00531086 372.59200726 1346.24188426 401 1365 C402.32680465 1365.87112157 403.65362655 1366.74221687 404.98046875 1367.61328125 C418.64442688 1376.61895071 431.98626486 1386.07783627 445 1396 C446.31756572 1396.99628238 447.63528411 1397.99236288 448.953125 1398.98828125 C461.48569466 1408.4853602 473.9402908 1418.1039466 485.50561523 1428.77319336 C487.90028478 1430.91098145 490.36511878 1432.89356865 492.88671875 1434.87890625 C499.52566838 1440.29055695 505.57368216 1446.23679441 511.61572266 1452.30004883 C513.48868379 1454.17616473 515.37459063 1456.03853873 517.26171875 1457.90039062 C525.1999635 1465.7969677 532.32334281 1474.01394622 539 1483 C539.85198975 1484.14214966 539.85198975 1484.14214966 540.72119141 1485.30737305 C548.06749996 1495.36363622 554.18083953 1506.00847774 560 1517 C560.51401367 1517.96244629 561.02802734 1518.92489258 561.55761719 1519.91650391 C609 1608.95854253 609 1608.95854253 609 1642 C118.62 1642 -371.76 1642 -877 1642 C-875.63144086 1633.10436558 -874.13279675 1624.96536599 -871.5625 1616.4375 C-871.04079224 1614.70209961 -871.04079224 1614.70209961 -870.50854492 1612.93164062 C-863.789459 1591.15587405 -854.67701574 1570.58787602 -844.57128906 1550.20019531 C-842.57731557 1546.13913184 -840.65563617 1542.04614583 -838.73413086 1537.95043945 C-828.50834897 1516.22226019 -816.85229836 1495.90753341 -802 1477 C-800.92878906 1475.61941406 -800.92878906 1475.61941406 -799.8359375 1474.2109375 C-793.33969564 1466.19114706 -786.10099294 1458.91720756 -778.8125 1451.625 C-778.29130585 1451.10280884 -777.77011169 1450.58061768 -777.23312378 1450.04260254 C-771.33641365 1444.14716647 -765.37820623 1438.37908144 -759 1433 C-758.46431396 1432.54254395 -757.92862793 1432.08508789 -757.37670898 1431.61376953 C-755.30162778 1429.84468655 -753.21527421 1428.08904301 -751.12915039 1426.33300781 C-748.39625604 1424.03073033 -745.67142925 1421.72174298 -742.9765625 1419.375 C-734.14899434 1411.72491784 -724.83828413 1404.7730496 -715.45410156 1397.82373047 C-713.16665566 1396.12384777 -710.88946622 1394.41148897 -708.6171875 1392.69140625 C-700.54563327 1386.58219357 -692.38877358 1380.67028347 -684 1375 C-682.92363281 1374.26910156 -681.84726562 1373.53820313 -680.73828125 1372.78515625 C-662.2038009 1360.27372101 -643.2964466 1348.29988029 -624 1337 C-623.03578125 1336.43490723 -622.0715625 1335.86981445 -621.078125 1335.28759766 C-603.87819556 1325.23338763 -586.49514992 1315.52813522 -569 1306 C-567.88496094 1305.39220703 -566.76992188 1304.78441406 -565.62109375 1304.15820312 C-546.93578259 1293.99930609 -528.0252273 1284.29718163 -509.08476257 1274.62557983 C-501.4782693 1270.73894831 -493.89397872 1266.81013203 -486.3125 1262.875 C-478.3634786 1258.75046308 -470.39584883 1254.67070702 -462.375 1250.6875 C-436.85808303 1238.00827046 -411.29157664 1224.90175498 -389 1207 C-388.22140625 1206.43410156 -387.4428125 1205.86820313 -386.640625 1205.28515625 C-384.45146817 1203.71691831 -384.45146817 1203.71691831 -382 1201 C-381.58307147 1197.41600593 -381.58307147 1197.41600593 -382 1194 C-381.4375 1191.75 -381.4375 1191.75 -380 1190 C-378.92105469 1189.57460937 -377.84210938 1189.14921875 -376.73046875 1188.7109375 C-350.15514656 1177.67620164 -329.38789448 1127.23727204 -319.3125 1102.875 C-310.07613144 1079.91489836 -303.55912483 1056.084163 -298 1032 C-297.73929718 1030.87180847 -297.73929718 1030.87180847 -297.47332764 1029.7208252 C-293.10190763 1010.74722845 -288.96718602 991.73537668 -285.5625 972.5625 C-285.38302322 971.56316437 -285.38302322 971.56316437 -285.19992065 970.54364014 C-282.19412005 953.67610707 -280.60601601 937.12418986 -280.6875 920 C-280.68998749 919.16081024 -280.69247498 918.32162048 -280.69503784 917.45700073 C-280.74442658 906.62701325 -281.00257906 895.84693828 -282.0625 885.0625 C-282.18854614 883.53012695 -282.18854614 883.53012695 -282.31713867 881.96679688 C-283.18469223 874.71022076 -285.79407105 870.99271215 -291 866 C-291.97951001 864.96093477 -292.95387822 863.91698683 -293.921875 862.8671875 C-294.38376221 862.37919678 -294.84564941 861.89120605 -295.3215332 861.38842773 C-301.44357852 854.90226145 -307.05761317 848.13599153 -312.45166016 841.03710938 C-313.55151467 839.59006017 -314.65582469 838.14639267 -315.76318359 836.70507812 C-324.39783826 825.46224917 -332.56310736 814.0701948 -340 802 C-340.47501953 801.23252441 -340.95003906 800.46504883 -341.43945312 799.67431641 C-352.45954394 781.79752218 -362.44948432 763.44664622 -371.625 744.5625 C-371.9311322 743.93594513 -372.2372644 743.30939026 -372.55267334 742.66384888 C-373.4297827 740.86375798 -374.29708174 739.05889723 -375.1640625 737.25390625 C-375.66373535 736.21564697 -376.1634082 735.1773877 -376.67822266 734.10766602 C-378 731 -378 731 -379.0690918 727.18041992 C-379.6358908 723.97244094 -379.6358908 723.97244094 -381.73046875 722.859375 C-382.47941406 722.57578125 -383.22835938 722.2921875 -384 722 C-403.29530462 708.08883245 -423.21978355 690.56043291 -434 669 C-436.4413925 667.70802222 -438.88179919 666.49590998 -441.375 665.3125 C-481.87212684 645.49370932 -515.3603622 607.98923946 -531.1484375 565.94140625 C-538.53742838 544.13554969 -538.67115047 521.31502969 -534 499 C-533.24248595 495.21242973 -532.94476795 492.39998676 -533.6875 488.625 C-534.86818987 477.90305955 -530.31540593 467.53702158 -526.1875 457.875 C-516.75584873 435.54060218 -512.25903096 409.81671713 -511.60546875 385.65234375 C-511.09280946 370.24497259 -509.86227444 354.91093598 -508.58081055 339.55249023 C-508.31809876 336.40189541 -508.06127295 333.25091702 -507.81030273 330.09936523 C-506.50723294 313.73953334 -505.06994011 297.41671548 -502.9765625 281.13671875 C-502.82176926 279.92579056 -502.66697601 278.71486237 -502.50749207 277.46723938 C-498.80320821 249.75505819 -492.55668256 222.11953244 -480 197 C-479.69513672 196.38366699 -479.39027344 195.76733398 -479.07617188 195.13232422 C-473.78368424 184.64165353 -466.68231071 175.8188082 -459 167 C-458.32324219 166.21882812 -457.64648438 165.43765625 -456.94921875 164.6328125 C-437.30290097 143.63608263 -410.21015176 131.53085842 -381.79296875 129.87109375 C-364.85403401 129.39969482 -348.66529276 134.74195839 -333.8125 142.5 C-333.13018311 142.85521729 -332.44786621 143.21043457 -331.74487305 143.57641602 C-327.07607328 146.12864706 -322.64598318 149.08412764 -319 153 C-319 153.66 -319 154.32 -319 155 C-318.34 155 -317.68 155 -317 155 C-316.67 153.845 -316.34 152.69 -316 151.5 C-311.56705251 138.36610442 -304.39643109 126.92001647 -296 116 C-295.34427002 115.13810059 -295.34427002 115.13810059 -294.67529297 114.25878906 C-287.78405479 105.22333015 -280.52059787 96.51701009 -273 88 C-272.51418457 87.44957031 -272.02836914 86.89914062 -271.52783203 86.33203125 C-259.83932178 73.17904009 -247.05960232 61.56462132 -233 51 C-232.34612305 50.50032715 -231.69224609 50.0006543 -231.01855469 49.48583984 C-165.45230955 -0.47458093 -80.17176758 -20.36499942 0 0 Z " fill="#EDC0A0" transform="translate(1121,406)"/>
<path d="M0 0 C7.13210769 2.21247806 13.43001048 5.74340069 19.94628906 9.34082031 C22.45363995 10.70458505 24.96526734 12.06036453 27.47753906 13.41503906 C28.43452446 13.93167114 28.43452446 13.93167114 29.4108429 14.45874023 C79.3425699 41.35996495 132.61474772 60.09398998 187.48887634 74.07229614 C191.09012362 74.99166446 194.67261879 75.95354479 198.24316406 76.98535156 C217.69968041 82.36032526 239.91329588 81.37455366 259.13378906 75.52832031 C260.24753906 75.19316406 261.36128906 74.85800781 262.50878906 74.51269531 C264.61701238 73.86162635 266.72132598 73.19774591 268.82128906 72.52050781 C272.57885764 71.39500968 276.37175279 70.51278641 280.19628906 69.65332031 C289.99198582 67.42099772 299.55729549 64.55543343 309.13378906 61.52832031 C310.00229492 61.25568359 310.87080078 60.98304687 311.765625 60.70214844 C356.29767484 46.6119931 399.49064541 28.33859467 440.12133789 5.25878906 C446.91851959 1.44711165 453.12126614 -1.37875775 461.13378906 -0.47167969 C463.25878906 1.34082031 463.25878906 1.34082031 465.13378906 3.52832031 C466.00003906 4.02332031 466.86628906 4.51832031 467.75878906 5.02832031 C470.13378906 6.52832031 470.13378906 6.52832031 470.89160156 8.30175781 C472.70104159 11.54509371 475.47393293 13.44884816 478.38378906 15.65332031 C479.01003174 16.13414063 479.63627441 16.61496094 480.28149414 17.11035156 C482.22461599 18.5934204 484.17795785 20.0620682 486.13378906 21.52832031 C486.70210449 21.95983398 487.27041992 22.39134766 487.85595703 22.8359375 C504.91191876 35.73523458 524.02784687 45.18380002 542.99560547 54.91064453 C547.28921647 57.12392184 551.55556657 59.38692421 555.82128906 61.65332031 C562.87179034 65.3881514 569.98978683 68.97596408 577.13378906 72.52832031 C584.80851872 76.34471266 592.43624092 80.22690725 600.00366211 84.25146484 C607.14490216 88.03631472 614.33968612 91.71353671 621.53588867 95.39233398 C635.92578455 102.74882187 650.27354412 110.14862309 664.39746094 118.0078125 C667.46643526 119.71316333 670.54214936 121.40601572 673.61816406 123.09863281 C703.42454944 139.53363117 732.72579632 156.77020457 761.13378906 175.52832031 C762.46059372 176.39944188 763.78741561 177.27053719 765.11425781 178.14160156 C778.77821595 187.14727102 792.12005393 196.60615658 805.13378906 206.52832031 C806.45135478 207.5246027 807.76907317 208.5206832 809.08691406 209.51660156 C821.61948372 219.01368052 834.07407986 228.63226692 845.6394043 239.30151367 C848.03407384 241.43930176 850.49890784 243.42188896 853.02050781 245.40722656 C859.65945744 250.81887726 865.70747122 256.76511472 871.74951172 262.82836914 C873.62247285 264.70448504 875.50837969 266.56685905 877.39550781 268.42871094 C885.33375257 276.32528802 892.45713187 284.54226654 899.13378906 293.52832031 C899.70178223 294.28975342 900.26977539 295.05118652 900.85498047 295.83569336 C908.20128903 305.89195653 914.3146286 316.53679805 920.13378906 327.52832031 C920.64780273 328.4907666 921.16181641 329.45321289 921.69140625 330.44482422 C969.13378906 419.48686284 969.13378906 419.48686284 969.13378906 452.52832031 C478.75378906 452.52832031 -11.62621094 452.52832031 -516.86621094 452.52832031 C-515.4976518 443.63268589 -513.99900769 435.4936863 -511.42871094 426.96582031 C-511.08090576 425.80888672 -510.73310059 424.65195313 -510.37475586 423.45996094 C-503.65566993 401.68419436 -494.54322668 381.11619633 -484.4375 360.72851562 C-482.44352651 356.66745215 -480.52184711 352.57446615 -478.6003418 348.47875977 C-468.37455991 326.7505805 -456.7185093 306.43585372 -441.86621094 287.52832031 C-441.15207031 286.60792969 -440.43792969 285.68753906 -439.70214844 284.73925781 C-433.20590658 276.71946738 -425.96720388 269.44552787 -418.67871094 262.15332031 C-418.15751678 261.63112915 -417.63632263 261.10893799 -417.09933472 260.57092285 C-411.20262458 254.67548678 -405.24441716 248.90740175 -398.86621094 243.52832031 C-398.3305249 243.07086426 -397.79483887 242.6134082 -397.24291992 242.14208984 C-395.16783872 240.37300687 -393.08148515 238.61736332 -390.99536133 236.86132812 C-388.26246698 234.55905064 -385.53764018 232.25006329 -382.84277344 229.90332031 C-374.01520528 222.25323815 -364.70449506 215.30136991 -355.3203125 208.35205078 C-353.03286659 206.65216808 -350.75567715 204.93980928 -348.48339844 203.21972656 C-340.41184421 197.11051389 -332.25498452 191.19860379 -323.86621094 185.52832031 C-322.78984375 184.79742188 -321.71347656 184.06652344 -320.60449219 183.31347656 C-302.07001184 170.80204133 -283.16265753 158.8282006 -263.86621094 147.52832031 C-262.90199219 146.96322754 -261.93777344 146.39813477 -260.94433594 145.81591797 C-243.7444065 135.76170795 -226.36136086 126.05645553 -208.86621094 116.52832031 C-207.75117187 115.92052734 -206.63613281 115.31273437 -205.48730469 114.68652344 C-186.80199353 104.5276264 -167.89143824 94.82550194 -148.95097351 85.15390015 C-141.34448024 81.26726863 -133.76018965 77.33845234 -126.17871094 73.40332031 C-118.22968954 69.27878339 -110.26205977 65.19902733 -102.24121094 61.21582031 C-65.51996364 42.97778016 -65.51996364 42.97778016 -31.78417969 19.84863281 C-29.93406638 18.37745837 -28.06356974 16.93127607 -26.16699219 15.52050781 C-22.00076609 12.42099661 -19.51249389 10.01549575 -16.86621094 5.52832031 C-11.57514048 0.41970056 -7.46169715 -1.88592346 0 0 Z " fill="#171A1D" transform="translate(760.8662109375,1595.4716796875)"/>
<path d="M0 0 C0.95551758 0.24202148 1.91103516 0.48404297 2.89550781 0.73339844 C28.4691074 7.36801843 51.88525729 18.04909011 75.10205078 30.47705078 C78.26537573 32.13946199 81.46842341 33.68759281 84.69970703 35.21191406 C100.48800756 42.69964472 115.47525437 53.98521068 127.5625 66.56640625 C129.08693982 68.15558695 129.08693982 68.15558695 131.4375 69.8125 C131.953125 70.204375 132.46875 70.59625 133 71 C133 71.66 133 72.32 133 73 C133.66 73 134.32 73 135 73 C137.58203948 75.41520001 139.74469774 78.28373224 142 81 C142.7115625 81.84522217 142.7115625 81.84522217 143.4375 82.70751953 C151.30541363 92.06787802 158.50903719 101.63579516 165 112 C165.3810791 112.60666504 165.7621582 113.21333008 166.15478516 113.83837891 C168.85948369 118.17488533 171.46062764 122.56483345 174 127 C174.35916504 127.62503418 174.71833008 128.25006836 175.08837891 128.89404297 C186.00599085 148.11629552 194.29686753 168.96284729 201 190 C201.2882666 190.90331055 201.5765332 191.80662109 201.87353516 192.73730469 C220.73049772 252.68908647 225.18757514 317.05516844 218.4296875 379.41015625 C217.99368657 383.58746447 217.96525728 387.67242329 218.0625 391.875 C218.23071924 414.65086558 213.35585964 436.20652145 206.375 457.8125 C206.09825439 458.68382568 205.82150879 459.55515137 205.53637695 460.45288086 C204.01049098 464.96645248 202.66467122 467.80104741 199 471 C198.26526254 472.80344649 197.54334385 474.61413588 196.9140625 476.45703125 C195.74228658 479.71697196 194.37613781 482.88517876 193 486.0625 C192.505 487.20847656 192.01 488.35445312 191.5 489.53515625 C191.005 490.67855469 190.51 491.82195312 190 493 C189.55269531 494.0621875 189.10539062 495.124375 188.64453125 496.21875 C186.44527193 501.34678252 184.06635687 506.39094825 181.6875 511.4375 C181.22666016 512.43587891 180.76582031 513.43425781 180.29101562 514.46289062 C172.6813381 530.56069245 172.6813381 530.56069245 164.9921875 534.37109375 C160.98245688 535.63691067 157.11852397 535.82787897 153 535 C149.875 532.625 149.875 532.625 148 530 C148 529.34 148 528.68 148 528 C147.34 528 146.68 528 146 528 C146.06695068 526.92218262 146.13390137 525.84436523 146.20288086 524.73388672 C146.44496847 520.66865711 146.63544543 516.60225912 146.81176758 512.53369141 C146.89443698 510.7855947 146.99041135 509.0380674 147.10083008 507.29150391 C147.98829376 493.03482928 146.05984932 483.96355121 137.40234375 472.2890625 C126.70788669 460.73023569 112.90084751 452.69367869 97 451 C95.46884767 450.98270548 93.93741363 450.98373622 92.40625 451 C79.50284385 451.07406043 79.50284385 451.07406043 75.20703125 448.00390625 C71 442.58247423 71 442.58247423 71 439 C71.88751953 438.76216797 71.88751953 438.76216797 72.79296875 438.51953125 C77.98577242 436.98625643 81.85447446 435.66755403 85 431 C85.8063808 426.6940831 85.48170963 423.16624437 83.8125 419.125 C79.76173452 414.37582668 73.94938251 412.40319916 68 411 C65.39600445 410.88682635 62.85171363 410.98164489 60.24853516 411.09423828 C49.19003456 411.47820004 49.19003456 411.47820004 45.17626953 408.76904297 C42.05190959 405.56619669 39.96159763 401.80488368 37.95263672 397.83496094 C36.56847509 395.1688003 34.87119376 392.73460517 33.1875 390.25 C25 377.15388033 25 377.15388033 25 373 C24.34 373 23.68 373 23 373 C21.47810732 369.81300478 19.95757918 366.62536057 18.4375 363.4375 C17.98294434 362.48472168 17.52838867 361.53194336 17.06005859 360.55029297 C14.9936913 356.21274385 12.93272064 351.87352188 10.91796875 347.51171875 C10.45789429 346.51603882 10.45789429 346.51603882 9.98852539 345.50024414 C9.17963488 343.74364589 8.37482498 341.98517018 7.5703125 340.2265625 C6.41963016 337.86222515 5.23475718 335.6317548 3.9140625 333.3671875 C2.40740429 330.71669897 1.26171849 328.34932964 0.25 325.5 C-2.00789197 319.6508153 -4.99995134 314.23384557 -7.98828125 308.73828125 C-9.76304412 305.46854165 -11.42840715 302.15516177 -13.0625 298.8125 C-27.32692126 270.0914146 -46.39173234 245.58486478 -74 229 C-74.75216797 228.54222168 -75.50433594 228.08444336 -76.27929688 227.61279297 C-86.17688805 221.64738433 -96.07279543 217.04300352 -107.10253906 213.59521484 C-108.80239093 213.06198802 -110.49188026 212.4959864 -112.1796875 211.92578125 C-126.90274479 207.08820528 -142.46283572 203.22945179 -158 203 C-158.81919922 202.98098633 -159.63839844 202.96197266 -160.48242188 202.94238281 C-163.25914281 202.88158598 -166.03528494 202.84271602 -168.8125 202.8125 C-169.68463135 202.79920654 -170.5567627 202.78591309 -171.45532227 202.7722168 C-177.24069905 202.76615766 -182.40774301 203.56472097 -188 205 C-188.93328125 205.18820312 -189.8665625 205.37640625 -190.828125 205.5703125 C-206.94726863 209.26211636 -221.09427548 221.68238784 -230.2421875 235.1171875 C-235.66120474 244.00437577 -239.14175952 251.44929633 -238 262 C-240.43942885 261.04446088 -242.84498065 260.07361751 -245.2121582 258.94946289 C-252.22362565 255.74793796 -258.54572355 255.33854252 -266.1875 255.4375 C-267.38060791 255.44845703 -268.57371582 255.45941406 -269.80297852 255.47070312 C-287.46931575 255.90349533 -301.08074975 262.48329721 -313.4765625 275.140625 C-315.29321637 277.21821607 -315.29321637 277.21821607 -317 281 C-312.38 281 -307.76 281 -303 281 C-303 281.33 -303 281.66 -303 282 C-304.45019531 281.89945313 -304.45019531 281.89945313 -305.9296875 281.796875 C-313.94383442 281.6529339 -313.94383442 281.6529339 -320.87109375 285.2109375 C-323.50368268 288.35319565 -325.76547466 291.57184905 -328 295 C-328.90504258 296.29823843 -329.81399722 297.59375716 -330.7265625 298.88671875 C-334.80124716 304.75362742 -338.34937895 310.34361723 -341 317 C-341.66 317 -342.32 317 -343 317 C-343.37125 318.2065625 -343.37125 318.2065625 -343.75 319.4375 C-344.68901484 322.1136923 -345.68983912 324.56337275 -346.875 327.125 C-354.73941342 344.90032847 -355.882317 363.34446914 -357.0625 382.5625 C-357.10315582 383.22451416 -357.14381165 383.88652832 -357.18569946 384.56860352 C-357.3851803 387.83404953 -357.58213562 391.09964761 -357.77929688 394.36523438 C-359.87379481 428.85957647 -359.87379481 428.85957647 -368.11962891 444.14501953 C-369.21163836 446.28881709 -369.21163836 446.28881709 -370 450 C-366.7 450 -363.4 450 -360 450 C-360 450.33 -360 450.66 -360 451 C-360.84425537 450.98259766 -360.84425537 450.98259766 -361.70556641 450.96484375 C-377.08167929 450.78936743 -387.19178971 452.76921235 -398.9375 463.25 C-407.87170655 473.19945729 -412.42615286 485.3793224 -413.88037109 498.46606445 C-415.04056263 508.51029819 -416.80188246 514.41527199 -425 521 C-425.69222656 521.62648438 -426.38445312 522.25296875 -427.09765625 522.8984375 C-437.55969291 531.85472309 -453.98396453 540.07677272 -467.94921875 539.453125 C-470 539 -470 539 -472.3125 536.8125 C-472.869375 535.884375 -473.42625 534.95625 -474 534 C-474.9075 533.21625 -475.815 532.4325 -476.75 531.625 C-479 529 -479 529 -479.75 525.875 C-478.01550229 516.91342851 -471.10510738 509.75797849 -465.57519531 502.72094727 C-459.63390528 495.57617128 -459.63390528 495.57617128 -457 487 C-458.32 486.34 -459.64 485.68 -461 485 C-461 484.34 -461 483.68 -461 483 C-482.44954177 476.15058633 -482.44954177 476.15058633 -504 480.09765625 C-508.72873755 483.09621769 -512.0838712 487.06983658 -515.625 491.35546875 C-518.6530358 494.72714677 -520.48026552 495.83832612 -524.9375 496.3125 C-528.66378771 495.93226656 -530.2875483 495.63495308 -533 493 C-537.05222653 481.76213922 -530.58933191 468.17818898 -526.1875 457.875 C-516.75584873 435.54060218 -512.25903096 409.81671713 -511.60546875 385.65234375 C-511.09280946 370.24497259 -509.86227444 354.91093598 -508.58081055 339.55249023 C-508.31809876 336.40189541 -508.06127295 333.25091702 -507.81030273 330.09936523 C-506.50723294 313.73953334 -505.06994011 297.41671548 -502.9765625 281.13671875 C-502.82176926 279.92579056 -502.66697601 278.71486237 -502.50749207 277.46723938 C-498.80320821 249.75505819 -492.55668256 222.11953244 -480 197 C-479.69513672 196.38366699 -479.39027344 195.76733398 -479.07617188 195.13232422 C-473.78368424 184.64165353 -466.68231071 175.8188082 -459 167 C-458.32324219 166.21882812 -457.64648438 165.43765625 -456.94921875 164.6328125 C-437.30290097 143.63608263 -410.21015176 131.53085842 -381.79296875 129.87109375 C-364.85403401 129.39969482 -348.66529276 134.74195839 -333.8125 142.5 C-333.13018311 142.85521729 -332.44786621 143.21043457 -331.74487305 143.57641602 C-327.07607328 146.12864706 -322.64598318 149.08412764 -319 153 C-319 153.66 -319 154.32 -319 155 C-318.34 155 -317.68 155 -317 155 C-316.67 153.845 -316.34 152.69 -316 151.5 C-311.56705251 138.36610442 -304.39643109 126.92001647 -296 116 C-295.56284668 115.42540039 -295.12569336 114.85080078 -294.67529297 114.25878906 C-287.78405479 105.22333015 -280.52059787 96.51701009 -273 88 C-272.51418457 87.44957031 -272.02836914 86.89914062 -271.52783203 86.33203125 C-259.83932178 73.17904009 -247.05960232 61.56462132 -233 51 C-232.01918457 50.25049072 -232.01918457 50.25049072 -231.01855469 49.48583984 C-165.45230955 -0.47458093 -80.17176758 -20.36499942 0 0 Z " fill="#1A1B1C" transform="translate(1121,406)"/>
<path d="M0 0 C0.85271484 -0.00386719 1.70542969 -0.00773438 2.58398438 -0.01171875 C15.47617937 0.00736666 27.5288295 1.37784758 40.0625 4.4375 C41.32964844 4.73333984 42.59679687 5.02917969 43.90234375 5.33398438 C55.75284252 8.15930926 67.0038379 11.73106003 77.9375 17.125 C78.95674561 17.62362549 78.95674561 17.62362549 79.99658203 18.13232422 C112.2159459 34.02944059 134.75213105 56.65667996 151.9375 88.125 C153.09889377 90.08646503 154.26547311 92.04486995 155.4375 94 C159.28075433 100.56079572 162.63740341 107.34552266 165.9753418 114.17260742 C167.31460923 116.89022266 168.69043859 119.58915543 170.06835938 122.28735352 C170.9375 124.125 170.9375 124.125 172.25 127.8125 C173.60092639 131.59064028 175.43980128 134.9878202 177.375 138.5 C179.90349073 143.09245707 181.99355241 147.6036663 183.828125 152.50390625 C185.71597297 156.96427944 188.15967781 161.13215795 190.546875 165.33984375 C191.9375 168.125 191.9375 168.125 191.9375 171.125 C192.5975 171.125 193.2575 171.125 193.9375 171.125 C194.411875 172.135625 194.88625 173.14625 195.375 174.1875 C198.14216883 179.70235055 201.2846689 184.98218365 204.55859375 190.20703125 C206.13550147 192.73221879 207.51211136 195.25920745 208.78515625 197.94921875 C210.70470726 201.69948538 212.58453153 204.4572783 215.9375 207.125 C221.16144987 208.46749894 226.51364453 208.20494002 231.8671875 208.109375 C239.23593887 207.98471058 244.89182389 210.13598703 251 214.125 C254.08151793 217.30592173 255.24480274 220.14345168 255.375 224.5625 C255.28192728 228.10508055 255.03211523 228.99311211 252.875 232 C248.81573701 234.93648812 245.08131742 237.125 239.9375 237.125 C241.60925016 241.29302867 243.44763178 244.25762232 246.9375 247.125 C252.37526834 248.56663484 258.18163418 248.17360123 263.76464844 248.11523438 C278.11177792 248.17971586 292.95877434 256.25606375 303.1875 265.875 C312.89076742 276.13615548 317.30407906 286.18418513 316.9375 300.125 C316.71088181 305.06722001 316.39436327 310.00133888 316.0625 314.9375 C315.9710777 316.32542127 315.87993741 317.71336114 315.7890625 319.10131836 C315.64806113 321.25408408 315.50673715 323.40682333 315.36383057 325.5594635 C315.07449418 329.93808138 314.80485892 334.31734733 314.55368042 338.69831848 C314.39182454 341.51928363 314.22416327 344.33989119 314.05609131 347.16049194 C313.94007006 349.14357148 313.83152237 351.12708376 313.72314453 353.1105957 C312.42211411 374.53489422 300.31112839 393.58266934 284.875 408.125 C277.83153259 414.08824862 270.51200506 418.08599742 261.9375 421.375 C260.977229 421.74467896 260.977229 421.74467896 259.99755859 422.12182617 C248.02102946 426.49327442 236.32313028 426.43616629 223.73046875 426.42578125 C221.75808117 426.42967554 219.78569441 426.43401171 217.81330872 426.43876648 C213.69053421 426.44620153 209.56784538 426.44595744 205.44506836 426.44067383 C200.19347988 426.43488667 194.94224495 426.45180539 189.69071484 426.4750185 C185.61975597 426.48983827 181.54888062 426.49061632 177.47789955 426.48750877 C175.54324965 426.48801798 173.60859457 426.49317929 171.67397118 426.50332069 C147.4109499 426.61490626 130.15355001 420.86989294 112.25 403.75 C97.03247763 388.02611524 89.44014644 367.80681448 84.45361328 346.90966797 C81.7051539 335.73186764 76.82684403 323.71005338 68.9375 315.125 C57.0124286 308.70380771 43.75806427 306.87932741 30.4375 306.8125 C29.02126343 306.80416138 29.02126343 306.80416138 27.57641602 306.7956543 C17.56874841 306.90026406 8.11096089 310.25053072 0.70703125 317.2265625 C-3.57445765 322.08185919 -5.09144425 324.77789285 -5.55541992 331.34472656 C-7.75586189 360.66554681 -19.75410694 390.16818416 -42.12890625 409.921875 C-56.65389962 422.02041414 -74.11002837 428.0863444 -92.8984375 428.703125 C-93.97055481 428.74152496 -95.04267212 428.77992493 -96.14727783 428.81948853 C-109.85725317 429.27011303 -123.57062466 429.41992906 -137.28710938 429.47509766 C-140.32581723 429.48857745 -143.36387594 429.51676883 -146.40234375 429.55712891 C-150.15305089 429.60683382 -153.90316037 429.63125373 -157.65418243 429.63832474 C-159.05579551 429.64493986 -160.45740032 429.65989868 -161.85881805 429.68421555 C-180.35907355 429.98803348 -195.10598689 421.70705909 -209.0625 410.125 C-209.69285156 409.65191406 -210.32320312 409.17882812 -210.97265625 408.69140625 C-224.11819131 398.29914547 -231.49198534 383.53564535 -237.0625 368.125 C-237.31612305 367.43986328 -237.56974609 366.75472656 -237.83105469 366.04882812 C-241.07079237 357.22589877 -243.34690401 348.35705095 -245.0625 339.125 C-245.26875 338.14917969 -245.475 337.17335938 -245.6875 336.16796875 C-249.87448954 313.98273946 -248.48095673 287.10843641 -235.8125 267.8125 C-229.24506741 259.07951313 -219.96361865 250.60707319 -208.91796875 248.53515625 C-206.28745819 248.28865141 -203.70358373 248.13521696 -201.0625 248.125 C-200.98 247.320625 -200.8975 246.51625 -200.8125 245.6875 C-200.19042069 242.73262329 -199.53115554 240.84024558 -198.25 238.1875 C-192.58245414 225.82756966 -191.29298037 213.06745437 -190.4375 199.6875 C-190.31801325 198.00216394 -190.19690143 196.31694236 -190.07421875 194.63183594 C-189.83406525 191.31179172 -189.6003603 187.99142498 -189.37402344 184.67041016 C-187.66694157 159.64777208 -185.99300372 137.60941086 -174.0625 115.125 C-173.4025 115.125 -172.7425 115.125 -172.0625 115.125 C-171.959375 114.40441406 -171.85625 113.68382812 -171.75 112.94140625 C-168.91623413 101.33262674 -157.53145828 89.45744528 -149.47265625 80.94140625 C-147.93231675 79.13576505 -147.93231675 79.13576505 -147.109375 76.671875 C-142.92292238 66.4869231 -130.57857844 60.38303922 -121.2890625 55.73828125 C-113.56952578 52.72448952 -105.70216553 52.68689303 -97.5 52.5625 C-95.79626221 52.52189453 -95.79626221 52.52189453 -94.05810547 52.48046875 C-84.93922889 52.52269188 -78.12984254 55.09132873 -70.0625 59.125 C-70.1553125 58.58875 -70.248125 58.0525 -70.34375 57.5 C-71.3354767 46.7326815 -64.83353509 36.48155253 -58.5625 28.125 C-57.42121118 26.76988055 -56.25466123 25.43558784 -55.0625 24.125 C-54.44761719 23.44179688 -53.83273437 22.75859375 -53.19921875 22.0546875 C-48.34395729 16.93671651 -42.97167113 12.9503078 -37.0625 9.125 C-35.969375 8.403125 -34.87625 7.68125 -33.75 6.9375 C-23.3614718 1.21270536 -11.62571557 -0.05110205 0 0 Z " fill="#010101" transform="translate(952.0625,607.875)"/>
<path d="M0 0 C4.02153227 1.33817537 6.25566334 2.96950782 9.125 6.0625 C13.59263627 10.66929216 18.30276706 14.73737736 23.34814453 18.69873047 C24.51277024 19.61617874 25.67213261 20.54032782 26.82763672 21.46923828 C49.3042006 39.52141469 74.54166296 51.9616566 100.8125 63.5 C101.50226929 63.80363464 102.19203857 64.10726929 102.90270996 64.42010498 C112.79986209 68.79007216 112.79986209 68.79007216 123.00390625 72.36254883 C125 73 125 73 126.8984375 73.83081055 C134.26435177 76.88420997 142.00383343 76.41669378 149.84008789 76.33618164 C152.32405579 76.31238931 154.8069611 76.31566105 157.29101562 76.32226562 C158.87761055 76.31669392 160.46420098 76.30958725 162.05078125 76.30078125 C162.78935867 76.30169266 163.5279361 76.30260406 164.28889465 76.30354309 C168.06217678 76.25152227 170.7580627 75.96171209 174 74 C176.578125 73.5859375 176.578125 73.5859375 179.25 73.375 C180.58804688 73.26285156 180.58804688 73.26285156 181.953125 73.1484375 C182.62859375 73.09945313 183.3040625 73.05046875 184 73 C184 72.34 184 71.68 184 71 C184.87140625 70.70867187 185.7428125 70.41734375 186.640625 70.1171875 C193.85076946 67.63577415 200.60508951 64.86217581 207.390625 61.34375 C210.54140001 59.7211952 213.72713043 58.35854963 217 57 C231.66323237 50.64149421 245.71361425 43.54379127 259.08349609 34.75976562 C259.83195801 34.26927734 260.58041992 33.77878906 261.3515625 33.2734375 C262.00979004 32.83435059 262.66801758 32.39526367 263.34619141 31.94287109 C265 31 265 31 267 31 C267 30.34 267 29.68 267 29 C272.41176471 25 272.41176471 25 275 25 C275 24.34 275 23.68 275 23 C276.65 22.34 278.3 21.68 280 21 C280 20.34 280 19.68 280 19 C284.47058824 15 284.47058824 15 287 15 C287 14.34 287 13.68 287 13 C288.57421875 11.4140625 288.57421875 11.4140625 290.6875 9.625 C291.41582031 9.00753906 292.14414063 8.39007812 292.89453125 7.75390625 C293.58933594 7.17511719 294.28414062 6.59632812 295 6 C295.94875 5.195625 296.8975 4.39125 297.875 3.5625 C300 2 300 2 302 2 C301.90912109 2.72026367 301.81824219 3.44052734 301.72460938 4.18261719 C298.1016073 33.80762643 297.14266964 63.45347662 302 93 C302.27408691 94.72814941 302.27408691 94.72814941 302.55371094 96.49121094 C308.335626 132.35047724 316.50746352 168.22802156 327 203 C327.27730957 203.92554688 327.55461914 204.85109375 327.84033203 205.8046875 C339.62548818 244.55040634 358.5046162 278.98158144 384.5 309.875 C384.98001465 310.4520166 385.4600293 311.0290332 385.95458984 311.62353516 C389.29816551 315.51947657 392.50269249 318.0096884 397.265625 319.8984375 C399 321 399 321 399.609375 323.1640625 C399.65578125 323.97617188 399.7021875 324.78828125 399.75 325.625 C399.80671875 326.44226562 399.8634375 327.25953125 399.921875 328.1015625 C399.94765625 328.72804688 399.9734375 329.35453125 400 330 C399.01 330 398.02 330 397 330 C396.54625 329.236875 396.0925 328.47375 395.625 327.6875 C393.76635995 324.6135953 392.11676179 323.67825635 389 322 C388.34 321.34 387.68 320.68 387 320 C376.24294886 318.90234172 366.9982973 324.91328247 357.9057312 329.86218262 C354.32950985 331.80610874 350.73776566 333.72104328 347.1484375 335.640625 C346.43870285 336.02091858 345.7289682 336.40121216 344.99772644 336.79302979 C315.76330187 352.45343951 285.46692469 364.54341333 254.21948242 375.51171875 C251.36715507 376.51361833 248.52205739 377.53324653 245.6809082 378.56640625 C236.52326529 381.88119306 227.37594352 384.6949576 217.9375 387.125 C216.62144293 387.46919513 215.30552648 387.81392836 213.98974609 388.15917969 C205.01028631 390.50869499 196.0149373 392.79084504 187 395 C184.08262411 395.72633706 181.16632058 396.45693899 178.25 397.1875 C176.94272686 397.51439702 175.63543648 397.84122509 174.328125 398.16796875 C172.60764196 398.59808951 170.88739472 399.03336003 169.18701172 399.53710938 C163.88334554 400.65965359 158.27259599 400.27285067 152.875 400.3125 C151.61300781 400.34150391 150.35101562 400.37050781 149.05078125 400.40039062 C138.5673912 400.46915151 129.12245563 398.60874074 119 396 C118.13205811 395.78082916 117.26411621 395.56165833 116.36987305 395.33584595 C109.5836479 393.6199399 102.81943694 391.82757648 96.0625 390 C94.49337357 389.57581787 94.49337357 389.57581787 92.89254761 389.14306641 C38.10552724 374.25736365 -14.74791268 352.6527409 -64.16259766 324.64282227 C-65.41049072 323.94370728 -65.41049072 323.94370728 -66.68359375 323.23046875 C-67.75951782 322.61788208 -67.75951782 322.61788208 -68.85717773 321.99291992 C-73.38016377 319.8971031 -78.07323826 319.56011056 -83 320 C-85.73486777 321.73787565 -85.73486777 321.73787565 -88 324 C-88.721875 324.495 -89.44375 324.99 -90.1875 325.5 C-92.195152 327.1615051 -93.01204925 328.61245235 -94 331 C-94.66 330.67 -95.32 330.34 -96 330 C-96.10790728 326.84371212 -95.96646175 324.02152053 -95 321 C-91.625 319.1875 -91.625 319.1875 -89.42578125 318.3046875 C-54.45701152 299.4970078 -32.64966303 235.51426221 -22.13208008 200.88134766 C-18.33381074 188.02106565 -15.01555488 175.06448724 -12 162 C-11.82619812 161.24787231 -11.65239624 160.49574463 -11.47332764 159.7208252 C-7.10190763 140.74722845 -2.96718602 121.73537668 0.4375 102.5625 C0.55715118 101.89627625 0.67680237 101.23005249 0.80007935 100.54364014 C3.80635863 83.67342087 5.38444969 67.12594204 5.3125 50 C5.31167419 49.16213959 5.31084839 48.32427917 5.30999756 47.46102905 C6.22074373 22.93773403 6.22074373 22.93773403 0 0 Z " fill="#DD896E" transform="translate(835,1276)"/>
<path d="M0 0 C3.57479501 1.04684959 7.12682203 2.15710079 10.67456055 3.29199219 C17.70284203 5.50883884 24.81996789 7.44230544 31.9128418 9.44042969 C34.15350001 10.08042714 36.38427448 10.74677817 38.61499023 11.42041016 C49.56219367 14.62217834 60.69341337 16.50664782 71.93530273 18.33056641 C72.71164062 18.4572168 73.48797852 18.58386719 74.2878418 18.71435547 C100.54635813 22.96319863 126.47131833 24.34766467 153.06030273 24.26806641 C154.11572266 24.26518616 155.17114258 24.26230591 156.25854492 24.25933838 C162.4337788 24.23962671 168.60877811 24.20455663 174.78387451 24.15942383 C177.00971083 24.1453605 179.23530988 24.13862411 181.46118164 24.13720703 C197.90578565 24.08997278 213.84367251 21.81522957 230.03686523 19.13867188 C230.88141769 19.00154785 231.72597015 18.86442383 232.59611511 18.72314453 C234.18916493 18.46306286 235.78100547 18.19542061 237.37129211 17.91894531 C244.91469694 16.68926155 244.91469694 16.68926155 248.37280273 18.14306641 C250.0793457 20.48681641 250.0793457 20.48681641 251.61499023 23.64306641 C252.19853271 24.82368652 252.7820752 26.00430664 253.38330078 27.22070312 C254.00540935 28.5278684 254.62689231 29.83533158 255.24780273 31.14306641 C255.90529859 32.4940324 256.56392929 33.84444661 257.22363281 35.19433594 C262.68152845 46.42994604 267.81644254 57.81495824 272.9453125 69.20336914 C283.85702748 93.47895041 283.85702748 93.47895041 297.42871094 116.3269043 C299.65635012 119.67136279 300.37280273 120.98471662 300.37280273 125.14306641 C299.39196716 125.14227081 298.41113159 125.14147522 297.40057373 125.14065552 C288.1598337 125.13705416 278.91965015 125.16481875 269.67908859 125.2233448 C264.92825973 125.25242518 260.17792532 125.27042819 255.42700195 125.26318359 C250.84250467 125.25659921 246.25898518 125.27902377 241.67469025 125.32162094 C239.92522919 125.33276819 238.17566916 125.33343769 236.42620087 125.32349014 C233.97600003 125.31134313 231.52879567 125.33634513 229.07885742 125.37011719 C227.99236656 125.35178581 227.99236656 125.35178581 226.88392639 125.33308411 C224.59028274 125.32613573 224.59028274 125.32613573 221.37280273 126.14306641 C216.73029237 131.63319949 216.01803233 136.45572945 216.09155273 143.41259766 C216.48768903 147.25842083 217.76772595 149.32676718 220.37280273 152.14306641 C225.03576497 155.89948078 229.49688308 155.54719105 235.20849609 155.48022461 C236.68743095 155.48105545 236.68743095 155.48105545 238.19624329 155.48190308 C240.33352093 155.48164348 242.47080573 155.47477578 244.60804558 155.46206093 C247.99178686 155.44368944 251.37490897 155.44634958 254.75868225 155.4551239 C264.37779287 155.47694236 273.99666602 155.46597241 283.61572266 155.42797852 C289.50258135 155.40619798 295.38883053 155.41340255 301.27566719 155.43843651 C303.5175435 155.44203147 305.75946738 155.43435976 308.00126457 155.41518593 C311.1374331 155.38888149 314.27153557 155.39927396 317.40771484 155.41772461 C318.33206329 155.40079056 319.25641174 155.38385651 320.20877075 155.3664093 C324.84566523 155.4329282 327.57252369 155.78035846 330.99562073 159.06340027 C333.37280273 162.14306641 333.37280273 162.14306641 333.37280273 164.14306641 C332.16035889 164.16812256 330.94791504 164.19317871 329.69873047 164.21899414 C318.02215061 164.46262332 306.34625301 164.72828273 294.6706543 165.01513672 C291.59192056 165.0906178 288.51334873 165.16075415 285.43432617 165.22412109 C261.25424141 165.72924548 229.02632352 166.77590479 211.18530273 185.33056641 C210.61424805 185.98412109 210.04319336 186.63767578 209.45483398 187.31103516 C202.70706969 193.24856133 195.23515148 192.57297535 186.68530273 192.45556641 C185.33284621 192.44548189 183.98038848 192.43555704 182.62792969 192.42578125 C171.76167165 192.31214965 160.9107887 191.84361429 150.06030273 191.26806641 C149.29626129 191.22904205 148.53221985 191.1900177 147.74502563 191.14981079 C125.58894948 189.98694014 125.58894948 189.98694014 115.87280273 184.58056641 C115.23262207 184.23413086 114.59244141 183.88769531 113.93286133 183.53076172 C108.86341472 180.67434068 104.8250589 177.14506491 100.62670898 173.11962891 C91.60674607 165.20957477 78.14169918 163.65804785 66.63842773 163.89306641 C64.91695526 163.9105896 64.91695526 163.9105896 63.16070557 163.9284668 C59.23080266 163.97773487 55.30199307 164.0556713 51.37280273 164.14306641 C50.65472443 164.15851501 49.93664612 164.17396362 49.19680786 164.18988037 C38.5940544 164.41960356 27.99295402 164.70428454 17.39181519 164.99810791 C-13.95498315 165.86462027 -45.26633046 166.47166419 -76.62719727 166.14306641 C-76.05898889 162.49879156 -75.50054547 159.48994796 -73.81469727 156.20556641 C-68.13422589 143.85829954 -66.85713275 131.07699857 -66.00219727 117.70556641 C-65.88271052 116.02023035 -65.76159869 114.33500877 -65.63891602 112.64990234 C-65.39876251 109.32985813 -65.16505757 106.00949139 -64.9387207 102.68847656 C-63.23163884 77.66583848 -61.55770099 55.62747727 -49.62719727 33.14306641 C-48.96719727 33.14306641 -48.30719727 33.14306641 -47.62719727 33.14306641 C-47.52407227 32.42248047 -47.42094727 31.70189453 -47.31469727 30.95947266 C-45.24462642 22.47923927 -38.00152047 14.64594531 -32.71704102 7.89306641 C-30.64276076 5.29148752 -30.64276076 5.29148752 -29.31860352 2.83056641 C-23.60941924 -6.45387753 -8.72356942 -2.378481 0 0 Z " fill="#E9B698" transform="translate(827.627197265625,689.85693359375)"/>
<path d="M0 0 C3.02158284 -0.0517205 6.04282062 -0.0863139 9.0647049 -0.11445999 C9.94406267 -0.13045274 10.82342045 -0.14644548 11.72942543 -0.16292286 C19.23716165 -0.19741374 25.14006542 1.40467586 31.77613068 5.06107712 C32.48898224 5.44521774 33.2018338 5.82935837 33.93628693 6.22513962 C41.42028703 10.89668109 44.58218836 18.84839809 46.77613068 27.06107712 C47.33937085 30.36340787 47.64290676 33.65988643 47.90113068 36.99857712 C47.97895782 37.91026657 48.05678497 38.82195602 48.13697052 39.76127243 C48.36607978 42.52691415 48.57545354 45.29323767 48.77613068 48.06107712 C48.83542755 48.86883591 48.89472443 49.6765947 48.95581818 50.50883102 C49.32194626 55.69019724 49.5863132 60.87038936 49.77613068 66.06107712 C49.81915314 67.13567184 49.81915314 67.13567184 49.86304474 68.23197556 C50.81690084 95.00031715 42.12281869 123.0819952 23.77613068 143.06107712 C23.07874786 143.83838181 22.38136505 144.61568649 21.66284943 145.41654587 C11.48963798 156.20412533 -3.90282222 165.40230261 -18.97386932 166.62357712 C-22.22057893 166.88839931 -22.22057893 166.88839931 -25.22386932 168.06107712 C-27.72143199 168.30262936 -30.19237976 168.48162664 -32.69652557 168.61185837 C-33.48406723 168.65369751 -34.27160889 168.69553665 -35.08301544 168.73864365 C-45.44390667 169.23303441 -55.81146632 169.24711075 -66.18212128 169.24637985 C-69.65254145 169.24857154 -73.12264537 169.26681916 -76.59300995 169.28568649 C-86.73277959 169.31254125 -96.82088365 169.23247371 -106.91918182 168.24076462 C-107.66095169 168.17193573 -108.40272156 168.10310684 -109.1669693 168.03219223 C-125.1321326 166.20608012 -140.09570231 153.93477993 -150.22386932 142.06107712 C-152.55760173 138.87561756 -154.41661788 135.56927109 -156.22386932 132.06107712 C-156.53179413 131.4682695 -156.83971893 130.87546188 -157.15697479 130.2646904 C-171.82986724 101.67081068 -180.6202782 66.80686207 -172.22386932 35.06107712 C-168.80428265 24.56729395 -164.08042986 19.3362404 -155.42308807 12.76810837 C-153.56575613 11.32644929 -151.83679876 9.8280894 -150.09886932 8.24857712 C-145.11643073 4.45759123 -139.6188536 3.81565722 -133.4899826 3.48319626 C-132.81648333 3.44660684 -132.14298405 3.41001741 -131.4490757 3.37231922 C-119.96431667 2.79479166 -108.46089779 2.58506328 -96.96605682 2.30717087 C-94.32877399 2.24152353 -91.69149583 2.17568849 -89.05422211 2.10967636 C-83.5457182 1.97227397 -78.03715793 1.83734436 -72.52855682 1.70389938 C-66.22335836 1.55112346 -59.91827164 1.39426092 -53.61322868 1.23520607 C-47.47627226 1.08050499 -41.3392416 0.92895164 -35.20217514 0.77868462 C-32.62462817 0.71528173 -30.04709996 0.65111056 -27.46959305 0.58609962 C-18.31352586 0.35622657 -9.15725746 0.17348684 0 0 Z " fill="#ECBFA0" transform="translate(888.2238693237305,860.9389228820801)"/>
<path d="M0 0 C3.01777217 0.02210179 6.03401441 0.02712319 9.05175781 0.00195312 C22.01282317 -0.09666183 32.38552063 0.21410418 43.64501953 7.06738281 C46.45962066 8.76561571 48.78668057 9.76491399 51.89501953 10.71582031 C57.5885302 12.86628108 61.79199895 16.88740843 66.38598633 20.75878906 C80.8524008 32.80716202 98.33326334 43.18414858 115.89501953 50.02832031 C116.12914088 62.210992 115.60699259 74.17400859 114.40576172 86.29907227 C114.14296683 88.98681435 113.90524232 91.67606697 113.66845703 94.36621094 C111.76793443 114.70740729 104.13010445 131.9079977 88.89501953 146.02832031 C88.38068359 146.55941406 87.86634766 147.09050781 87.33642578 147.63769531 C72.85454716 161.71470421 50.17908703 165.72991487 30.79516602 165.51928711 C28.89092987 165.48166277 26.98671428 165.44298475 25.08251953 165.40332031 C23.07611153 165.37912843 21.06968054 165.35677932 19.06323242 165.33618164 C13.98838386 165.27696228 8.91473208 165.18444226 3.84057617 165.08294678 C0.0828898 165.01325906 -3.67487561 164.96872618 -7.43293762 164.92492676 C-10.87052344 164.88180168 -14.30770758 164.82375487 -17.7449646 164.75982666 C-19.33379352 164.7309647 -20.92268687 164.70541832 -22.5116272 164.68353271 C-41.16229594 164.39972962 -56.800455 160.58182101 -71.10498047 148.02832031 C-71.75853516 147.46886719 -72.41208984 146.90941406 -73.08544922 146.33300781 C-91.49251383 129.35882847 -99.83624681 103.13523105 -103.10498047 79.02832031 C-103.29060547 77.79855469 -103.47623047 76.56878906 -103.66748047 75.30175781 C-105.02200512 65.58295669 -105.3418654 55.89784654 -105.41748047 46.09082031 C-105.43504395 44.87080322 -105.45260742 43.65078613 -105.47070312 42.39379883 C-105.46415782 32.79511337 -104.72953175 22.52452307 -98.10498047 15.02832031 C-91.98971008 10.12774936 -85.90379122 7.64049204 -78.35498047 5.77832031 C-77.38270508 5.52800049 -76.41042969 5.27768066 -75.40869141 5.01977539 C-50.72949754 -1.19528335 -25.26642954 -0.20226786 0 0 Z " fill="#ECBFA0" transform="translate(1145.10498046875,861.9716796875)"/>
<path d="M0 0 C12.70359099 11.13880507 18.09769368 28.06740384 19.625 44.4375 C22.11747321 82.98775233 8.91174847 117.52631759 -16.375 146.4375 C-26.28438257 157.64879094 -36.56416562 168.20061297 -48.375 177.4375 C-49.76138672 178.54931641 -49.76138672 178.54931641 -51.17578125 179.68359375 C-56.57554107 183.89964438 -62.12800942 187.65590329 -68.0625 191.0625 C-69.07014404 191.64668701 -69.07014404 191.64668701 -70.09814453 192.24267578 C-73.56668973 194.17000969 -76.79099934 195.64897316 -80.6484375 196.609375 C-88.45605279 198.68613313 -92.93837283 201.17951246 -97.359375 208.17578125 C-100.36324858 213.4271519 -103.10741856 218.8001635 -105.77449036 224.22932434 C-108.46262505 229.69583516 -111.45916909 234.92410261 -114.625 240.125 C-115.108479 240.92566895 -115.59195801 241.72633789 -116.09008789 242.55126953 C-120.50133721 249.78353634 -125.23032981 256.77087405 -130.14501953 263.66845703 C-131.33206497 265.37574787 -132.45173895 267.11104664 -133.55859375 268.87109375 C-138.29566619 276.11983032 -138.29566619 276.11983032 -141.64453125 277.10546875 C-143.875 277.125 -143.875 277.125 -147.375 276.4375 C-148.13321913 268.54424449 -145.41583033 262.43279392 -142.5 255.1875 C-141.48473505 252.60786213 -140.47892564 250.02456403 -139.47265625 247.44140625 C-139.21501999 246.78376785 -138.95738373 246.12612946 -138.69194031 245.44856262 C-136.90042657 240.85622325 -135.19919039 236.2381276 -133.55859375 231.58984375 C-133.33578735 230.95859589 -133.11298096 230.32734802 -132.88342285 229.67697144 C-131.82286641 226.66264281 -130.77129185 223.64531914 -129.72509766 220.62597656 C-127.628147 214.65059505 -125.36230781 209.02424193 -122.375 203.4375 C-121.715 203.4375 -121.055 203.4375 -120.375 203.4375 C-108.83652832 165.32603968 -103.09677908 127.1449939 -99.5625 87.5625 C-99.49915466 86.86061554 -99.43580933 86.15873108 -99.37054443 85.43557739 C-98.68696388 77.75444624 -98.18052028 70.15072499 -98.375 62.4375 C-97.385 62.9325 -97.385 62.9325 -96.375 63.4375 C-90.45163866 64.20819757 -85.24673837 63.9667818 -80.3046875 60.4140625 C-75.87177126 55.87346409 -73.16551707 50.07232723 -70.375 44.4375 C-70.02904785 43.73915039 -69.6830957 43.04080078 -69.32666016 42.32128906 C-65.41340196 34.33571183 -61.80644542 26.24809041 -58.4609375 18.0078125 C-57.20903492 15.04467617 -55.76228512 12.2237483 -54.265625 9.37890625 C-53.26156066 7.19022214 -52.64813601 5.00496308 -52 2.6875 C-50.936169 -0.60019049 -50.39408972 -1.54477383 -47.75 -4 C-33.08376495 -10.78992363 -13.09173109 -9.58747825 0 0 Z " fill="#E08D6D" transform="translate(1370.375,876.5625)"/>
<path d="M0 0 C0 0.66 0 1.32 0 2 C1.65 2.66 3.3 3.32 5 4 C3.64494013 8.80037166 1.63616721 12.32062226 -1.25 16.375 C-1.65186523 16.94371826 -2.05373047 17.51243652 -2.46777344 18.09838867 C-4.67661972 21.20960791 -6.94063508 24.27544457 -9.25 27.3125 C-14.76497968 34.36719932 -14.76497968 34.36719932 -17.625 42.6875 C-16.82735893 46.91499767 -15.21656877 48.23225478 -12 51 C-11.53464844 51.69480469 -11.06929687 52.38960937 -10.58984375 53.10546875 C-9.18088573 55.1268958 -9.18088573 55.1268958 -7.1171875 55.6015625 C10.09069452 55.78143583 27.0768041 45.59199602 39 34 C40.027205 37.08161499 40.32953084 39.6790976 40.61669922 42.91064453 C40.72706512 44.13107452 40.83743103 45.35150452 40.95114136 46.60891724 C41.03730524 47.58994604 41.03730524 47.58994604 41.12520981 48.59079361 C41.30751006 50.66492641 41.4943821 52.73860382 41.68240356 54.81222534 C42.15034124 59.98327042 42.61070948 65.15498388 43.07092285 70.32672119 C46.04294105 105.8827646 46.04294105 105.8827646 51.4375 141.125 C51.65140381 142.25260742 51.86530762 143.38021484 52.08569336 144.54199219 C53.69014797 152.82143145 55.66672246 160.89493065 58 169 C58.33665511 170.30350204 58.66852166 171.60824829 58.99609375 172.9140625 C60.55274717 179.08843442 62.1392515 185.04973158 64.97265625 190.77734375 C67.61198143 196.48751876 69.51348448 202.48598406 71.44824219 208.46166992 C75.67274038 224.95697043 75.67274038 224.95697043 85 238 C84.67 239.32 84.34 240.64 84 242 C79.12617197 241.56836947 76.37795589 239.14986721 72.875 236 C71.71832726 234.98727604 70.56076164 233.97557104 69.40234375 232.96484375 C68.54165283 232.20856689 68.54165283 232.20856689 67.66357422 231.43701172 C65.31226133 229.40592459 62.87411723 227.48986777 60.4375 225.5625 C48.65179524 215.91809334 37.07202316 204.52660166 30.375 190.6875 C26.61794761 184.07251888 19.57165575 181.90068803 12.93310547 178.90722656 C-24.56908796 161.30705597 -55.9176816 120.84168471 -70.1484375 82.94140625 C-77.42551025 61.46583442 -80.44389357 32.31035114 -71 11 C-70.34773437 11.11859375 -69.69546875 11.2371875 -69.0234375 11.359375 C-64.81104753 11.98067146 -61.90928325 12.38969282 -57.9375 10.6875 C-55.29275274 8.26783761 -53.16499154 5.80721258 -50.875 3.0625 C-37.17265092 -12.50208109 -16.721428 -7.55929841 0 0 Z " fill="#E08D6D" transform="translate(660,889)"/>
<path d="M0 0 C1.89368271 2.01599184 2.91534608 3.23662953 3.22265625 6.0078125 C3.16980469 6.70648437 3.11695313 7.40515625 3.0625 8.125 C2.92135019 11.43249283 3.16550223 14.28069693 3.90234375 17.50390625 C5.17937162 23.56684684 5.84028109 29.65646991 6.5 35.8125 C7.62395902 46.02566643 7.62395902 46.02566643 9.125 56.1875 C11.21280891 69.07790812 11.16097461 82.13132447 11.13037109 95.15429688 C11.12496647 97.89198231 11.13037475 100.62950672 11.13671875 103.3671875 C11.13605854 105.13802119 11.13477855 106.90885478 11.1328125 108.6796875 C11.13483673 109.48300507 11.13686096 110.28632263 11.13894653 111.11398315 C11.108913 118.46720845 10.58862512 125.65331306 8.5625 132.75 C8.31628906 133.63171875 8.07007813 134.5134375 7.81640625 135.421875 C6.99758211 138.00763544 6.04031736 140.49603267 5 143 C4.34 143 3.68 143 3 143 C2.814375 143.86625 2.62875 144.7325 2.4375 145.625 C0.11013628 151.08924526 -4.01346251 153.79980026 -9 156.8125 C-16.49238903 159.77823732 -24.76629202 159.21864559 -32.70556641 159.24023438 C-34.86269644 159.24994462 -37.0188737 159.28103383 -39.17578125 159.3125 C-50.45913774 159.40008093 -59.59282278 158.11218855 -68 150 C-78.59575153 137.14983325 -79.33512034 119.73223124 -79.20581055 103.86743164 C-79.18777447 101.59705002 -79.18530044 99.32708597 -79.18554688 97.05664062 C-79.17575796 92.36976894 -79.10335471 87.68568907 -79 83 C-78.98302063 82.19326843 -78.96604126 81.38653687 -78.94854736 80.55535889 C-78.57728523 65.53531193 -76.68116897 50.85199572 -74.5 36 C-74.17491698 33.72929023 -73.85069411 31.45845715 -73.52734375 29.1875 C-72.93666411 25.06566598 -72.34456773 20.94407507 -71.74023438 16.82421875 C-71.62111694 16.01041748 -71.50199951 15.19661621 -71.37927246 14.3581543 C-70.98239662 11.89054969 -70.50513578 9.44753711 -70 7 C-70.66 6.67 -71.32 6.34 -72 6 C-53.22597421 -11.886365 -22.69028091 -13.55767822 0 0 Z " fill="#DA866F" transform="translate(1021,922)"/>
<path d="M0 0 C11.20767224 -0.13667893 22.28083 -0.01509519 33.06640625 3.26953125 C35.92710248 4.12815292 38.79949348 4.79242146 41.7109375 5.45703125 C48.03281171 7.02112189 53.84110342 9.42789445 59.7734375 12.08203125 C60.4555127 12.37674316 61.13758789 12.67145508 61.84033203 12.97509766 C104.66074083 31.61152908 138.6302918 65.03926254 161.7734375 105.08203125 C162.14984375 105.72495117 162.52625 106.36787109 162.9140625 107.03027344 C168.85084826 117.25294529 173.07211754 127.87075623 176.7734375 139.08203125 C177.20438721 140.37367188 177.20438721 140.37367188 177.64404297 141.69140625 C184.96254439 164.02650931 188.76426538 187.24192255 192.71504211 210.3588562 C198.33360037 243.21293269 204.7738903 269.87384584 229.2578125 293.60546875 C231.94639522 296.25230329 234.37556196 299.02854654 236.8046875 301.91015625 C238.44002067 303.71421427 240.10687495 305.38821355 241.8671875 307.06640625 C242.41705322 307.59500244 242.96691895 308.12359863 243.53344727 308.66821289 C244.63276922 309.71761658 245.742382 310.75636803 246.86303711 311.78295898 C249.33618098 314.15202029 250.70019743 315.47882932 251.12109375 318.9453125 C251.00636719 319.65042969 250.89164063 320.35554688 250.7734375 321.08203125 C242.26772936 323.9172673 232.93894322 322.26055026 224.7734375 319.08203125 C224.02578125 318.80359375 223.278125 318.52515625 222.5078125 318.23828125 C203.28717111 310.44249663 188.91210998 293.58385728 178.7734375 276.08203125 C178.25652344 275.25832031 177.73960937 274.43460938 177.20703125 273.5859375 C172.86951815 266.01006312 170.47433668 257.58652717 168.7734375 249.08203125 C168.4434375 248.75203125 168.1134375 248.42203125 167.7734375 248.08203125 C167.26969592 245.52254607 166.81799617 242.97203198 166.3984375 240.3984375 C166.26904785 239.62773422 166.1396582 238.85703094 166.00634766 238.06297302 C165.59156077 235.59077875 165.18200583 233.11776033 164.7734375 230.64453125 C164.3645953 228.1749228 163.95456242 225.70554458 163.54052734 223.23680115 C163.28253019 221.69814571 163.02756322 220.1589786 162.77587891 218.61927795 C162.16147427 214.73424166 162.16147427 214.73424166 160.7734375 211.08203125 C160.57803387 209.45083575 160.38842908 207.8187215 160.22924805 206.18359375 C158.39436964 187.44737394 154.51754821 168.99458703 148.7734375 151.08203125 C148.4228125 149.880625 148.0721875 148.67921875 147.7109375 147.44140625 C146.12988288 142.03123497 144.46845025 136.98711062 141.76318359 132.03442383 C140.7734375 130.08203125 140.7734375 130.08203125 139.40625 126.328125 C137.86273678 122.14450587 135.91542737 118.32703848 133.7109375 114.45703125 C133.32099609 113.76971924 132.93105469 113.08240723 132.52929688 112.37426758 C108.65448369 71.09152721 68.93926497 38.10010327 22.71484375 25.23046875 C2.1776568 20.52947104 -18.62205029 21.5112288 -37.2109375 31.99609375 C-41.42142656 34.90853049 -44.74982582 38.39032646 -48.10546875 42.23828125 C-50.2265625 44.08203125 -50.2265625 44.08203125 -52.44140625 43.98828125 C-54.2265625 43.08203125 -54.2265625 43.08203125 -55.2265625 41.08203125 C-55.84720846 32.08266487 -53.66790947 26.42756949 -47.8515625 19.58203125 C-36.89674284 8.15229166 -21.6610596 1.0631473 -5.765625 0.1328125 C-3.84362453 0.09437249 -1.92176385 0.0488584 0 0 Z " fill="#000000" transform="translate(1006.2265625,508.91796875)"/>
<path d="M0 0 C7.83698108 5.59341262 13.81064724 11.86320666 16.625 21.25 C17.06413585 25.7877371 17.16396078 27.44155883 14.625 31.25 C9.49542482 32.02018403 5.88583033 30.22234871 1.5 27.8125 C-5.29576451 24.16933538 -10.20503684 23.05611876 -17.9375 23.0625 C-18.73655762 23.06185547 -19.53561523 23.06121094 -20.35888672 23.06054688 C-26.52309898 23.11530669 -32.37664254 23.770229 -38.375 25.25 C-38.375 25.91 -38.375 26.57 -38.375 27.25 C-39.4475 27.559375 -40.52 27.86875 -41.625 28.1875 C-59.60415351 35.06373766 -73.56647421 53.4608478 -83.375 69.25 C-83.7973291 69.92933594 -84.2196582 70.60867188 -84.65478516 71.30859375 C-99.31823209 95.14866574 -110.11359676 119.63831098 -118.69506836 146.21728516 C-118.92424454 146.92273468 -119.15342072 147.6281842 -119.38954163 148.35501099 C-120.01889756 150.29587763 -120.64220085 152.2387039 -121.26513672 154.18164062 C-122.375 157.25 -122.375 157.25 -124.375 160.25 C-125.695 159.92 -127.015 159.59 -128.375 159.25 C-129.65287214 155.3165098 -129.55405902 151.3401685 -129.578125 147.25 C-129.58513931 146.46598816 -129.59215363 145.68197632 -129.59938049 144.87420654 C-129.61692889 142.3327464 -129.62323995 139.79151864 -129.625 137.25 C-129.62567474 136.38652954 -129.62634949 135.52305908 -129.62704468 134.63342285 C-129.61125506 121.96100144 -129.30871902 109.6374387 -126.375 97.25 C-126.19275879 96.47333984 -126.01051758 95.69667969 -125.82275391 94.89648438 C-123.50587483 85.33476121 -120.57007902 76.16740841 -116.375 67.25 C-116.09817383 66.65541992 -115.82134766 66.06083984 -115.53613281 65.44824219 C-108.22623842 49.8722402 -99.27598364 35.55974937 -88.375 22.25 C-87.65828125 21.36699219 -86.9415625 20.48398437 -86.203125 19.57421875 C-82.04011605 14.68952029 -77.54560666 10.56117478 -72.5 6.625 C-71.94014404 6.18647705 -71.38028809 5.7479541 -70.8034668 5.29614258 C-66.75566749 2.25 -66.75566749 2.25 -63.375 2.25 C-63.375 1.59 -63.375 0.93 -63.375 0.25 C-61.03037225 -0.72519915 -58.67932078 -1.6733197 -56.3125 -2.59375 C-54.4619075 -3.32217471 -52.62529431 -4.08828183 -50.8125 -4.90625 C-34.5601527 -11.52057739 -14.63703987 -9.15716287 0 0 Z " fill="#000000" transform="translate(754.375,581.75)"/>
<path d="M0 0 C1.24813477 -0.0071553 2.49626953 -0.01431061 3.78222656 -0.02168274 C7.18555989 -0.03563977 10.58736051 -0.02731955 13.99056745 -0.00759244 C17.5627253 0.00886868 21.13483609 -0.00002899 24.70701599 -0.00511169 C30.70307942 -0.0096238 36.69883 0.00618337 42.69482422 0.03417969 C49.61485592 0.06624252 56.53432404 0.06620749 63.45439583 0.04896492 C70.12865956 0.03307141 76.80271778 0.03985049 83.47697258 0.05690193 C86.30977832 0.06375229 89.14241834 0.06276093 91.97522163 0.05535698 C95.93421852 0.04623498 99.89264193 0.07029037 103.8515625 0.09765625 C105.60432747 0.08786743 105.60432747 0.08786743 107.39250183 0.07788086 C113.93205577 0.15468128 118.06117412 0.69022961 123.36108398 4.63110352 C125.80542804 7.54854643 126.31670988 9.28244987 126.79858398 13.06860352 C126.27252086 17.3522604 125.05174504 19.28595734 122.36108398 22.63110352 C121.40597931 23.92862801 121.40597931 23.92862801 120.43157959 25.25236511 C115.83515602 28.81325256 111.59662296 28.46475524 105.9206543 28.56591797 C104.76395233 28.60566238 103.60725037 28.6454068 102.41549683 28.68635559 C98.59039404 28.81202112 94.76528014 28.9033621 90.93920898 28.99438477 C88.27739811 29.07485408 85.61571025 29.15719335 82.95404053 29.24198914 C76.65780298 29.43839457 70.36114058 29.60994324 64.06395411 29.7727291 C56.93054909 29.95843082 49.79810934 30.17314554 42.66558695 30.38975203 C31.55061225 30.72624674 20.43522538 31.04730415 9.3190918 31.34326172 C8.23721588 31.37280945 7.15533997 31.40235718 6.04067993 31.43280029 C3.14759156 31.50814846 0.25455592 31.57256365 -2.63891602 31.63110352 C-3.94340069 31.66396989 -3.94340069 31.66396989 -5.27423859 31.69750023 C-10.27626407 31.77686395 -12.99753061 31.47463014 -17.01391602 28.38110352 C-17.82602539 27.77782227 -18.63813477 27.17454102 -19.47485352 26.55297852 C-22.22579398 24.10990503 -24.32899138 22.16676611 -25.07250977 18.48266602 C-25.0820662 13.03549862 -24.44343983 9.81607971 -20.63891602 5.63110352 C-14.2467947 0.10382728 -8.18354329 -0.08202725 0 0 Z " fill="#010100" transform="translate(790.638916015625,816.368896484375)"/>
<path d="M0 0 C2.17126748 2.36401707 2.49609375 4.47949226 2.49609375 7.62890625 C1.03729266 7.48782878 -0.42094176 7.3408821 -1.87890625 7.19140625 C-3.09707031 7.06958984 -3.09707031 7.06958984 -4.33984375 6.9453125 C-6.50390625 6.62890625 -6.50390625 6.62890625 -8.50390625 5.62890625 C-17.0631699 4.93552633 -24.08340378 5.1541609 -31.50390625 9.62890625 C-32.21675781 10.02980469 -32.92960938 10.43070313 -33.6640625 10.84375 C-43.97067724 17.11497061 -52.21998349 26.43341809 -58.50390625 36.62890625 C-58.84631348 37.17579102 -59.1887207 37.72267578 -59.54150391 38.28613281 C-71.98010926 58.37884248 -80.96143643 82.80954944 -81.50390625 106.62890625 C-80.68599609 105.28699219 -80.68599609 105.28699219 -79.8515625 103.91796875 C-75.0348461 96.14325988 -69.99645759 89.13311388 -63.50390625 82.62890625 C-62.53517578 81.64277344 -62.53517578 81.64277344 -61.546875 80.63671875 C-55.36466846 74.76928851 -47.91964527 71.05427466 -39.50390625 69.62890625 C-39.50390625 70.61890625 -39.50390625 71.60890625 -39.50390625 72.62890625 C-41.2265625 74.20703125 -41.2265625 74.20703125 -43.56640625 75.87890625 C-50.71891867 81.01404337 -56.29142597 87.19256156 -61.31640625 94.37890625 C-62.08126343 95.47211182 -62.08126343 95.47211182 -62.86157227 96.58740234 C-73.85848908 112.672037 -81.93950906 129.69598787 -84.34155273 149.17236328 C-85.06084847 154.28400558 -85.06084847 154.28400558 -87.42578125 156.125 C-90.11151008 156.77623876 -91.88892302 156.47700892 -94.50390625 155.62890625 C-95.66537917 153.30596042 -95.64244697 151.93188721 -95.66503906 149.34472656 C-95.67464661 148.45489075 -95.68425415 147.56505493 -95.69415283 146.64825439 C-95.69840271 145.67765076 -95.70265259 144.70704712 -95.70703125 143.70703125 C-95.71273132 142.69662781 -95.7184314 141.68622437 -95.7243042 140.64520264 C-95.73377714 138.48971608 -95.74029723 136.33421489 -95.74414062 134.17871094 C-95.75366239 130.96130634 -95.78458184 127.74459307 -95.81640625 124.52734375 C-95.88772448 110.64173866 -94.78034409 97.32057684 -92.50390625 83.62890625 C-92.24516724 81.93145264 -92.24516724 81.93145264 -91.98120117 80.19970703 C-87.30981342 51.48195164 -71.35229763 20.11381105 -47.6796875 2.53125 C-32.54870529 -7.40834919 -15.48355777 -12.43046187 0 0 Z " fill="#000000" transform="translate(776.50390625,646.37109375)"/>
<path d="M0 0 C1.125 3.75 1.125 3.75 0 6 C0.54785156 5.7834375 1.09570312 5.566875 1.66015625 5.34375 C10.53432138 2.22697005 21.03931681 0.94564744 29.9375 4.625 C31.31693762 5.37176322 32.67277439 6.16395237 34 7 C34.69609375 7.4125 35.3921875 7.825 36.109375 8.25 C42.97868815 12.79510945 47.32063364 19.47683035 49.375 27.4375 C49.62099072 28.95269813 49.82906234 30.47451086 50 32 C50.10570312 32.74894531 50.21140625 33.49789062 50.3203125 34.26953125 C51.94069006 56.63778669 36.88681005 82.60815365 24 100 C19.63270863 104.88611245 19.63270863 104.88611245 15.875 105.5625 C13 105 13 105 11.0625 103.5625 C9.41436731 99.58759175 9.97292529 96.06412758 11 92 C12.93672118 87.7609947 15.29635004 83.80876812 17.6875 79.8125 C31.17104503 56.9049029 31.17104503 56.9049029 34 31 C32.47247463 26.72292897 30.86169871 24.39691644 27 22 C26.9175 23.11375 26.835 24.2275 26.75 25.375 C24.21171701 44.6997945 7.29840892 63.59077101 -6 77 C-9.24153166 79.1610211 -10.23692901 79.64247553 -14 79 C-16.79606595 76.49825678 -17.93008657 75.02539691 -18.1875 71.25 C-16.40394527 66.36869231 -13.3226044 62.95521947 -10 59 C1.50361654 45.98309363 1.50361654 45.98309363 10 31 C9.68623092 29.09583804 9.68623092 29.09583804 9 27 C8.89887329 24.32690557 8.95539508 21.67629528 9 19 C7.9378125 19.53109375 6.875625 20.0621875 5.78125 20.609375 C-4.609375 25.8046875 -4.609375 25.8046875 -15 31 C-13.29588779 26.34575805 -10.97663116 22.09805557 -8.625 17.75 C-5.50177128 11.92209389 -2.55313759 6.10532901 0 0 Z " fill="#CC715D" transform="translate(1308,904)"/>
<path d="M0 0 C7.24771317 7.57715468 10.17856568 15.07344109 10.09765625 25.44140625 C9.3289316 33.03364189 5.51040645 38.97865452 -0.25 43.875 C-0.971875 44.57625 -1.69375 45.2775 -2.4375 46 C-8.78512975 50.23175317 -16.68943216 52.02327737 -24.25 50.875 C-32.23481561 48.70067329 -38.30562457 45.1577279 -43.01171875 38.3125 C-47.40779857 30.60655123 -48.58869775 23.64861907 -47.25 14.875 C-44.96300761 6.99032147 -39.95204211 1.45655994 -33.25 -3.125 C-22.05578481 -9.04080412 -10.19029951 -6.66288814 0 0 Z " fill="#020201" transform="translate(882.25,886.125)"/>
<path d="M0 0 C0.74056641 0.00902344 1.48113281 0.01804687 2.24414062 0.02734375 C4.05873467 0.05075787 5.87316071 0.08662385 7.6875 0.125 C5.35416667 3.625 3.02083333 7.125 0.6875 10.625 C-0.07433594 11.78128906 -0.07433594 11.78128906 -0.8515625 12.9609375 C-2.07014126 14.76599801 -3.36969898 16.5160513 -4.6875 18.25 C-6.7538451 21.90584134 -6.98951242 23.98770187 -6.3125 28.125 C-4.0625 30.875 -4.0625 30.875 -1.3125 33.125 C-0.67828125 34.17880859 -0.67828125 34.17880859 -0.03125 35.25390625 C1.59972712 37.43016692 1.59972712 37.43016692 4.60546875 37.515625 C5.68441406 37.46921875 6.76335938 37.4228125 7.875 37.375 C8.96167969 37.33890625 10.04835938 37.3028125 11.16796875 37.265625 C11.99941406 37.21921875 12.83085938 37.1728125 13.6875 37.125 C13.77128906 37.68316406 13.85507812 38.24132812 13.94140625 38.81640625 C14.92350808 41.85526582 16.5497243 43.63708991 18.625 46.0625 C19.82962891 47.50689453 19.82962891 47.50689453 21.05859375 48.98046875 C21.69837158 49.74496338 21.69837158 49.74496338 22.35107422 50.52490234 C24.65785003 53.28679651 26.93995751 56.06465161 29.1875 58.875 C29.62054443 59.39312256 30.05358887 59.91124512 30.49975586 60.44506836 C33.50687835 64.24236604 34.50287462 67.30166184 34.6875 72.125 C33.1875 74.625 33.1875 74.625 30.6875 76.125 C27.23821825 76.32024236 24.93778937 76.01074717 22.06640625 73.9765625 C7.62267475 60.32948765 -9.29563343 38.46233134 -10.3125 18.125 C-11.29725214 19.22418816 -12.27510473 20.3295602 -13.25 21.4375 C-14.06791016 22.35982422 -14.06791016 22.35982422 -14.90234375 23.30078125 C-18.28291815 27.67398968 -17.77496745 32.88370221 -17.3125 38.125 C-14.89572571 51.64046384 -8.84567934 62.92717394 -2.125 74.74609375 C-1.30418945 76.20583618 -1.30418945 76.20583618 -0.46679688 77.69506836 C0.61450087 79.610159 1.71157806 81.51644803 2.82617188 83.41235352 C5.96801575 88.96365199 7.51654338 92.72334332 6.6875 99.125 C4.63369532 101.55913888 3.42241199 102.0321635 0.2890625 102.42797852 C-4.04956981 101.92270048 -5.6529652 98.99437358 -8.33203125 95.77685547 C-11.43041136 91.62811228 -13.91167415 87.26740507 -16.3125 82.6875 C-16.82159912 81.73174072 -17.33069824 80.77598145 -17.85522461 79.79125977 C-37.79624103 41.90112584 -37.79624103 41.90112584 -32.36328125 22.78515625 C-27.92899281 11.46862835 -21.71600118 6.39117266 -11.01953125 0.9609375 C-7.34167743 -0.17479225 -3.80551738 -0.08842132 0 0 Z " fill="#CC705C" transform="translate(649.3125,906.875)"/>
<path d="M0 0 C7.55904533 4.15977952 12.12780977 10.90278495 14.875 18.97265625 C16.25499791 28.11514237 14.136076 35.43289765 8.875 42.97265625 C6.42830753 45.47866248 3.92458119 47.26847853 0.875 48.97265625 C-0.7646875 49.90078125 -0.7646875 49.90078125 -2.4375 50.84765625 C-11.99108995 53.76231081 -19.68540647 51.80124489 -28.25 47.34765625 C-32.85176499 43.54619821 -36.23358038 38.6469151 -38.125 32.97265625 C-39.33421063 15.15166674 -39.33421063 15.15166674 -34.125 8.97265625 C-24.72979738 -0.80817035 -13.21251052 -4.34361283 0 0 Z " fill="#020101" transform="translate(1127.125,880.02734375)"/>
<path d="M0 0 C1.875 1.125 1.875 1.125 3 3 C3.56420999 6.70766563 3.42873333 8.38211961 1.2734375 11.48828125 C-2.51041085 15.66871852 -7.16242933 18.17467155 -12 21 C-13.67642578 21.98033203 -13.67642578 21.98033203 -15.38671875 22.98046875 C-30.86373168 31.75339846 -47.71638484 37.05844751 -65 41 C-65.71897461 41.16516113 -66.43794922 41.33032227 -67.17871094 41.50048828 C-81.39845841 44.65861777 -99.27530253 47.1201646 -113 41 C-115.88251132 38.58066144 -116.88520991 37.7030893 -117.5 33.9375 C-117 31 -117 31 -115.4375 29.0625 C-111.50684735 27.34913859 -108.05287186 28.44833041 -104.02856445 29.52978516 C-74.78519872 36.30830512 -38.41974717 20.24227001 -14.0390625 5.3203125 C-12.22448668 4.14535728 -10.49236759 2.90273623 -8.75 1.625 C-5.50204912 -0.2942437 -3.71126397 -0.57730773 0 0 Z " fill="#D4806D" transform="translate(1058,1150)"/>
<path d="M0 0 C2.21288512 0.12241078 4.42619725 0.22908897 6.63989258 0.33569336 C28.72628445 1.50733544 28.72628445 1.50733544 37.2824707 7.31030273 C42.44642834 14.01309015 41.6930939 22.29174427 41.2824707 30.31030273 C40.65083008 29.99577148 40.01918945 29.68124023 39.3684082 29.35717773 C25.19447832 22.57656575 11.68325022 20.13135363 -3.9050293 20.12280273 C-5.63849609 20.10443359 -5.63849609 20.10443359 -7.40698242 20.08569336 C-17.81580205 20.06816025 -27.56593872 20.78368036 -36.9753418 25.50561523 C-38.7175293 26.31030273 -38.7175293 26.31030273 -40.7175293 26.31030273 C-41.24347321 12.31435072 -41.24347321 12.31435072 -38.7175293 7.31030273 C-35.9547166 4.82908441 -32.96863954 3.07784039 -29.7175293 1.31030273 C-22.21036269 -3.69447501 -8.89097118 -0.50348473 0 0 Z " fill="#D6836C" transform="translate(987.717529296875,887.689697265625)"/>
<path d="M0 0 C-0.59415367 3.92353149 -1.79121645 6.8068528 -3.73828125 10.25390625 C-4.30506592 11.26332275 -4.87185059 12.27273926 -5.45581055 13.31274414 C-6.06851807 14.38516357 -6.68122559 15.45758301 -7.3125 16.5625 C-7.94260986 17.67423584 -8.57271973 18.78597168 -9.22192383 19.93139648 C-17.84908078 35.08938174 -26.64386689 50.01928101 -36.77001953 64.23095703 C-37.95706497 65.93824787 -39.07673895 67.67354664 -40.18359375 69.43359375 C-44.92066619 76.68233032 -44.92066619 76.68233032 -48.26953125 77.66796875 C-50.5 77.6875 -50.5 77.6875 -54 77 C-54.75823101 69.10662074 -52.04061297 62.99547248 -49.125 55.75 C-48.11107438 53.17164875 -47.10670124 50.58959957 -46.1015625 48.0078125 C-45.84413269 47.35038055 -45.58670288 46.69294861 -45.32147217 46.01559448 C-42.10826036 37.77977849 -39.1913334 29.44079663 -36.26220703 21.10058594 C-34.33810241 15.64748206 -32.37155121 10.27518122 -30 5 C-29.22398438 4.97421875 -28.44796875 4.9484375 -27.6484375 4.921875 C-19.99067303 4.51979667 -13.20875763 3.14793359 -5.8984375 0.83984375 C-3 0 -3 0 0 0 Z " fill="#020101" transform="translate(1277,1076)"/>
<path d="M0 0 C1.155 -0.02449219 2.31 -0.04898438 3.5 -0.07421875 C10.5689332 -0.09842743 15.28953876 0.47563283 21.25 4.375 C27.24873501 11.09924002 30.25 21.51128284 30.25 30.375 C17.5318259 30.68436099 4.88300009 30.13473499 -7.8125 29.4375 C-8.63133667 29.39393372 -9.45017334 29.35036743 -10.29382324 29.30548096 C-12.64543741 29.17904566 -14.99656321 29.0459052 -17.34765625 28.91015625 C-18.06460159 28.87155991 -18.78154694 28.83296356 -19.5202179 28.79319763 C-24.51898142 28.49050929 -24.51898142 28.49050929 -26.75 27.375 C-26.12703293 17.71901036 -23.71823409 9.34323409 -16.75 2.375 C-11.69247564 -0.82552916 -5.78002476 0.00636567 0 0 Z " fill="#D8856E" transform="translate(985.75,851.625)"/>
<path d="M0 0 C15.64304711 -0.98590633 27.93100602 2.50607865 40 13 C47.72218632 19.99396442 53.8897495 29.56710289 54.4375 40.12890625 C54.50675092 44.7687179 54.31088826 49.37121917 54 54 C53.67 54 53.34 54 53 54 C53 51.69 53 49.38 53 47 C52.4423999 46.82911865 51.8847998 46.6582373 51.31030273 46.48217773 C45.94423869 44.77538555 41.01854909 42.72717159 36.0625 40.0625 C35.34304199 39.67771484 34.62358398 39.29292969 33.88232422 38.89648438 C19.54719792 31.05875175 5.45804445 21.71964364 -6 10 C-2.7 10 0.6 10 4 10 C3.0581664 6.2326656 2.25073629 4.93574299 0 2 C0 1.34 0 0.68 0 0 Z " fill="#1C1D1D" transform="translate(1208,865)"/>
<path d="M0 0 C3.89490828 0.63256722 7.15198989 1.83362512 10.75 3.4375 C19.45888928 7.12734686 27.60063847 8.3323818 37 9 C38.96364225 14.11377529 40.7610502 19.25061468 42.44824219 24.46166992 C46.67274038 40.95697043 46.67274038 40.95697043 56 54 C55.67 55.32 55.34 56.64 55 58 C50.12617197 57.56836947 47.37795589 55.14986721 43.875 52 C42.71832726 50.98727604 41.56076164 49.97557104 40.40234375 48.96484375 C39.8285498 48.46065918 39.25475586 47.95647461 38.66357422 47.43701172 C36.31226133 45.40592459 33.87411723 43.48986777 31.4375 41.5625 C20.83346455 32.88506983 11.96693504 23.12172501 4 12 C3.41734375 11.18917969 2.8346875 10.37835937 2.234375 9.54296875 C-1.10455069 4.59879032 -1.10455069 4.59879032 -0.61328125 1.78515625 C-0.41089844 1.19605469 -0.20851563 0.60695313 0 0 Z " fill="#1B1C1D" transform="translate(689,1073)"/>
<path d="M0 0 C3.10628847 9.3188654 2.11961101 20.27163787 2 30 C0 27 0 27 0 25 C-0.52078125 24.76539063 -1.0415625 24.53078125 -1.578125 24.2890625 C-4.81104513 22.56831469 -7.75955649 20.47816906 -10.75 18.375 C-11.35199219 17.95476563 -11.95398438 17.53453125 -12.57421875 17.1015625 C-14.05113043 16.07006863 -15.52579194 15.03535421 -17 14 C-13.06904585 10.83995735 -9.08929966 7.7510163 -5.0859375 4.68359375 C-3.26075186 3.21045702 -1.61744949 1.69471618 0 0 Z " fill="#CB725D" transform="translate(699,923)"/>
<path d="M0 0 C4.62186312 0.56625475 4.62186312 0.56625475 6.328125 2.5234375 C6.63234375 3.13445313 6.9365625 3.74546875 7.25 4.375 C7.56453125 4.98085938 7.8790625 5.58671875 8.203125 6.2109375 C10.04854375 10.35408351 10.10380854 13.68486896 10.0625 18.1875 C10.05347656 19.45980469 10.04445313 20.73210938 10.03515625 22.04296875 C10.02355469 23.01878906 10.01195312 23.99460937 10 25 C2.85898354 22.62519685 2.85898354 22.62519685 1.0234375 19.15234375 C-0.49501591 12.90855399 -0.19435427 6.38129856 0 0 Z " fill="#E6B99B" transform="translate(1019,893)"/>
<path d="M0 0 C-8.8639311 3.25010807 -17.68147907 3.92164844 -27.01220703 4.6965332 C-29.10790294 4.9093907 -31.1980299 5.18142513 -33.28076172 5.49682617 C-48.03914038 7.6280034 -62.89709758 7.26377018 -77.77148438 7.19561768 C-80.73771635 7.18481277 -83.70390253 7.18518993 -86.67015076 7.18563652 C-115.71565653 7.18445558 -115.71565653 7.18445558 -130 6 C-130 5.67 -130 5.34 -130 5 C-128.84632431 5.00333092 -128.84632431 5.00333092 -127.66934204 5.00672913 C-120.2899377 5.02707331 -112.91054763 5.04214331 -105.53112221 5.05181217 C-101.74062494 5.05695064 -97.95015151 5.06387548 -94.15966797 5.07543945 C-56.75351138 5.3597543 -56.75351138 5.3597543 -19.625 1.375 C-17.41656109 1.00862304 -15.2075988 0.646946 -12.99691772 0.29434204 C-11.05051375 -0.01722062 -9.10644463 -0.34327308 -7.16259766 -0.67041016 C-4.34664479 -0.96387444 -2.62944254 -0.9392621 0 0 Z " fill="#B57462" transform="translate(1069,709)"/>
<path d="M0 0 C-0.23141091 2.67845818 -0.47183519 5.35525473 -0.73046875 8.03125 C-0.89287728 9.8200976 -1.02881321 11.61203223 -1.11328125 13.40625 C-1.25 15.5 -1.25 15.5 -2 19 C-4.43009674 20.99392553 -5.83909715 22 -9 22 C-9.24270568 15.54133224 -9.31419566 9.12809353 -7 3 C-4.48730856 0.32519944 -3.68762363 0 0 0 Z " fill="#E6B99A" transform="translate(956,892)"/>
<path d="M0 0 C-9.03944109 3.31446173 -18.1162936 3.9880504 -27.64160156 4.75048828 C-30.09432169 4.98052538 -30.09432169 4.98052538 -32.86865234 5.52075195 C-36.20109752 6.03077767 -39.34081314 6.11311554 -42.7109375 6.09765625 C-43.95488281 6.09443359 -45.19882812 6.09121094 -46.48046875 6.08789062 C-47.76566406 6.07951172 -49.05085937 6.07113281 -50.375 6.0625 C-51.68339844 6.05798828 -52.99179687 6.05347656 -54.33984375 6.04882812 C-57.55994281 6.03707594 -60.7799477 6.02064543 -64 6 C-64 5.67 -64 5.34 -64 5 C-63.08565186 4.99383667 -63.08565186 4.99383667 -62.15283203 4.98754883 C-46.19483626 4.80342944 -30.84586793 3.21786937 -15.12548828 0.63989258 C-14.0600177 0.46864113 -14.0600177 0.46864113 -12.97302246 0.29393005 C-11.0349038 -0.01951902 -9.09867348 -0.34458092 -7.16259766 -0.67041016 C-4.34664479 -0.96387444 -2.62944254 -0.9392621 0 0 Z " fill="#986453" transform="translate(1069,709)"/>
<path d="M0 0 C0.99 0.495 0.99 0.495 2 1 C3.70363822 1.22622081 5.41328701 1.40888473 7.125 1.5625 C8.03507812 1.64628906 8.94515625 1.73007812 9.8828125 1.81640625 C10.58148437 1.87699219 11.28015625 1.93757812 12 2 C7 7 7 7 4.8125 9.125 C2.82343774 11.07041718 2.82343774 11.07041718 1 14 C0.67 9.38 0.34 4.76 0 0 Z " fill="#C46F5B" transform="translate(1272,939)"/>
<path d="M0 0 C0.66 0.33 1.32 0.66 2 1 C0.38050958 2.50594681 -1.24575974 4.00460668 -2.875 5.5 C-4.23238281 6.75296875 -4.23238281 6.75296875 -5.6171875 8.03125 C-8 10 -8 10 -10 10 C-8.5741914 6.54804233 -6.90253666 4.8985744 -3.875 2.75 C-3.15054688 2.22921875 -2.42609375 1.7084375 -1.6796875 1.171875 C-1.12539063 0.78515625 -0.57109375 0.3984375 0 0 Z " fill="#272524" transform="translate(736,869)"/>
<path d="M0 0 C0.33 1.32 0.66 2.64 1 4 C-1.31 4 -3.62 4 -6 4 C-6 3.34 -6 2.68 -6 2 C-7.32 1.67 -8.64 1.34 -10 1 C-6.21812119 -0.83691257 -4.05431692 -1.15837626 0 0 Z " fill="#C88E77" transform="translate(1076,708)"/>
<path d="M0 0 C0.98120464 3.05263664 0.98120464 4.94736336 0 8 C-0.99 8 -1.98 8 -3 8 C-1.125 2.25 -1.125 2.25 0 0 Z " fill="#AA6A55" transform="translate(1308,904)"/>
</svg>
