<svg xmlns="http://www.w3.org/2000/svg" xmlnsXlink="http://www.w3.org/1999/xlink" width="" height="" viewBox="0 0 514 514" version="1.1" className="mySvg">
    <g id="surface1">
    <path id="anchor" className="anchor" style={{stroke:'none',fillRule:'nonzero',fill:'rgb(92.941177%,75.294119%,62.7451%)',fillOpacity:1}} d="M 281.34375 101.898438 C 281.585938 101.957031 281.824219 102.019531 282.070312 102.082031 C 288.488281 103.746094 294.367188 106.425781 300.195312 109.546875 C 300.988281 109.960938 301.792969 110.351562 302.601562 110.734375 C 306.566406 112.613281 310.328125 115.445312 313.359375 118.601562 C 313.742188 119 313.742188 119 314.332031 119.417969 C 314.460938 119.515625 314.589844 119.613281 314.726562 119.714844 C 314.726562 119.882812 314.726562 120.046875 314.726562 120.21875 C 314.890625 120.21875 315.054688 120.21875 315.226562 120.21875 C 315.875 120.824219 316.417969 121.542969 316.984375 122.226562 C 317.160156 122.4375 317.160156 122.4375 317.34375 122.652344 C 319.320312 125.003906 321.125 127.40625 322.757812 130.007812 C 322.851562 130.15625 322.945312 130.308594 323.046875 130.46875 C 323.722656 131.554688 324.378906 132.65625 325.015625 133.769531 C 325.105469 133.925781 325.195312 134.085938 325.289062 134.246094 C 328.027344 139.070312 330.109375 144.300781 331.789062 149.582031 C 331.863281 149.808594 331.9375 150.035156 332.011719 150.269531 C 336.742188 165.316406 337.863281 181.46875 336.164062 197.121094 C 336.054688 198.167969 336.050781 199.191406 336.074219 200.246094 C 336.121094 206.722656 334.570312 212.820312 332.292969 218.851562 C 332.441406 218.796875 332.59375 218.742188 332.746094 218.6875 C 335.9375 217.664062 339.519531 217.664062 342.582031 219.101562 C 345.75 220.996094 347.449219 224.34375 348.347656 227.828125 C 350.132812 236.035156 348.140625 244.75 343.652344 251.757812 C 340.453125 256.5625 336.332031 260.976562 331.789062 264.53125 C 331.558594 264.714844 331.328125 264.902344 331.089844 265.09375 C 329.734375 266.152344 328.339844 267.09375 326.851562 267.949219 C 326.679688 268.046875 326.511719 268.144531 326.339844 268.246094 C 325.46875 268.730469 324.660156 269.101562 323.691406 269.339844 C 321.730469 269.863281 320.605469 270.488281 319.496094 272.242188 C 318.742188 273.5625 318.054688 274.910156 317.386719 276.273438 C 316.710938 277.644531 315.957031 278.957031 315.164062 280.261719 C 314.980469 280.5625 314.980469 280.5625 314.796875 280.871094 C 313.6875 282.6875 312.503906 284.441406 311.269531 286.171875 C 310.972656 286.597656 310.691406 287.03125 310.410156 287.46875 C 310.246094 287.71875 310.078125 287.972656 309.910156 288.230469 C 309.703125 288.554688 309.703125 288.554688 309.492188 288.890625 C 308.953125 289.375 308.953125 289.375 307.976562 289.40625 C 307.441406 289.425781 307.441406 289.425781 306.945312 289.625 C 306.304688 290.425781 305.9375 291.34375 305.53125 292.277344 C 305.273438 292.832031 305.015625 293.382812 304.753906 293.933594 C 304.621094 294.21875 304.488281 294.503906 304.351562 294.796875 C 299.972656 303.75 293.441406 313.691406 285.925781 320.386719 C 285.214844 321.203125 285.25 322.472656 285.109375 323.507812 C 285.039062 323.964844 285.039062 323.964844 284.96875 324.433594 C 284.097656 330.707031 284.335938 337.351562 285.359375 343.585938 C 285.429688 344.019531 285.429688 344.019531 285.5 344.464844 C 286.949219 353.464844 289 362.46875 291.632812 371.195312 C 291.703125 371.425781 291.773438 371.660156 291.84375 371.898438 C 294.804688 381.621094 299.542969 390.265625 306.066406 398.015625 C 306.1875 398.164062 306.308594 398.308594 306.429688 398.457031 C 307.273438 399.4375 308.078125 400.058594 309.273438 400.539062 C 309.703125 400.808594 309.703125 400.808594 309.824219 401.308594 C 309.824219 401.5 309.828125 401.695312 309.832031 401.890625 C 309.847656 403.019531 310.1875 403.503906 310.960938 404.324219 C 311.5625 404.839844 312.1875 405.3125 312.828125 405.78125 C 313.003906 405.914062 313.183594 406.046875 313.367188 406.183594 C 314.9375 407.332031 316.554688 408.363281 318.238281 409.34375 C 318.625 409.570312 318.625 409.570312 319.019531 409.804688 C 321.550781 411.285156 324.160156 412.621094 326.765625 413.96875 C 327.507812 414.351562 328.246094 414.738281 328.984375 415.128906 C 331.351562 416.371094 333.726562 417.597656 336.121094 418.785156 C 337.933594 419.6875 339.734375 420.609375 341.519531 421.558594 C 343.324219 422.511719 345.136719 423.441406 346.953125 424.367188 C 350.5625 426.214844 354.164062 428.070312 357.707031 430.042969 C 358.476562 430.472656 359.25 430.894531 360.023438 431.320312 C 367.503906 435.445312 374.855469 439.773438 381.984375 444.480469 C 382.320312 444.699219 382.652344 444.917969 382.984375 445.136719 C 386.414062 447.394531 389.761719 449.769531 393.03125 452.257812 C 393.359375 452.511719 393.691406 452.761719 394.019531 453.007812 C 397.167969 455.394531 400.292969 457.808594 403.195312 460.484375 C 403.796875 461.023438 404.414062 461.519531 405.046875 462.015625 C 406.714844 463.375 408.230469 464.867188 409.75 466.390625 C 410.21875 466.859375 410.691406 467.328125 411.164062 467.796875 C 413.15625 469.777344 414.945312 471.839844 416.621094 474.09375 C 416.835938 474.382812 416.835938 474.382812 417.054688 474.671875 C 418.898438 477.199219 420.429688 479.871094 421.890625 482.628906 C 422.019531 482.871094 422.148438 483.109375 422.28125 483.359375 C 434.1875 505.707031 434.1875 505.707031 434.1875 514 C 311.117188 514 188.042969 514 61.238281 514 C 61.582031 511.765625 61.957031 509.726562 62.601562 507.585938 C 62.734375 507.148438 62.734375 507.148438 62.867188 506.703125 C 64.554688 501.238281 66.839844 496.078125 69.378906 490.960938 C 69.878906 489.941406 70.359375 488.914062 70.84375 487.886719 C 73.410156 482.433594 76.332031 477.335938 80.0625 472.589844 C 80.332031 472.242188 80.332031 472.242188 80.605469 471.890625 C 82.234375 469.875 84.050781 468.050781 85.882812 466.21875 C 86.011719 466.089844 86.144531 465.957031 86.277344 465.824219 C 87.757812 464.34375 89.253906 462.894531 90.851562 461.546875 C 90.988281 461.429688 91.121094 461.316406 91.261719 461.199219 C 91.78125 460.753906 92.304688 460.3125 92.828125 459.871094 C 93.515625 459.292969 94.199219 458.714844 94.875 458.125 C 97.089844 456.207031 99.425781 454.460938 101.78125 452.71875 C 102.355469 452.289062 102.929688 451.859375 103.5 451.429688 C 105.523438 449.894531 107.570312 448.414062 109.675781 446.988281 C 109.945312 446.804688 110.21875 446.621094 110.496094 446.433594 C 115.148438 443.292969 119.890625 440.289062 124.734375 437.453125 C 124.976562 437.308594 125.21875 437.167969 125.46875 437.023438 C 129.785156 434.5 134.148438 432.0625 138.539062 429.671875 C 138.820312 429.519531 139.097656 429.367188 139.386719 429.210938 C 144.078125 426.660156 148.824219 424.226562 153.578125 421.796875 C 155.484375 420.820312 157.390625 419.835938 159.292969 418.847656 C 161.285156 417.8125 163.285156 416.789062 165.300781 415.789062 C 171.703125 412.609375 178.121094 409.316406 183.714844 404.824219 C 183.910156 404.683594 184.105469 404.542969 184.308594 404.394531 C 184.855469 404 184.855469 404 185.472656 403.320312 C 185.578125 402.417969 185.578125 402.417969 185.472656 401.5625 C 185.613281 400.996094 185.613281 400.996094 185.972656 400.558594 C 186.246094 400.453125 186.515625 400.34375 186.792969 400.234375 C 193.464844 397.464844 198.675781 384.804688 201.203125 378.691406 C 203.523438 372.929688 205.160156 366.949219 206.554688 360.90625 C 206.621094 360.621094 206.621094 360.621094 206.6875 360.332031 C 207.78125 355.570312 208.820312 350.796875 209.675781 345.988281 C 209.71875 345.734375 209.71875 345.734375 209.765625 345.480469 C 210.519531 341.246094 210.917969 337.09375 210.898438 332.796875 C 210.898438 332.585938 210.898438 332.375 210.898438 332.15625 C 210.882812 329.4375 210.820312 326.734375 210.554688 324.027344 C 210.523438 323.640625 210.523438 323.640625 210.488281 323.25 C 210.273438 321.429688 209.617188 320.496094 208.3125 319.242188 C 208.066406 318.980469 207.820312 318.71875 207.578125 318.457031 C 207.460938 318.332031 207.34375 318.210938 207.226562 318.085938 C 205.691406 316.457031 204.28125 314.757812 202.925781 312.976562 C 202.652344 312.613281 202.375 312.25 202.09375 311.890625 C 199.929688 309.066406 197.878906 306.210938 196.011719 303.179688 C 195.894531 302.988281 195.773438 302.792969 195.652344 302.597656 C 192.886719 298.109375 190.378906 293.503906 188.074219 288.765625 C 188 288.605469 187.921875 288.449219 187.84375 288.289062 C 187.621094 287.835938 187.40625 287.382812 187.1875 286.929688 C 187.0625 286.667969 186.9375 286.410156 186.808594 286.140625 C 186.476562 285.359375 186.476562 285.359375 186.207031 284.402344 C 186.066406 283.597656 186.066406 283.597656 185.539062 283.316406 C 185.351562 283.246094 185.164062 283.175781 184.96875 283.101562 C 180.128906 279.609375 175.125 275.210938 172.421875 269.800781 C 171.808594 269.476562 171.195312 269.171875 170.570312 268.875 C 160.40625 263.898438 152 254.488281 148.039062 243.933594 C 146.183594 238.460938 146.152344 232.734375 147.324219 227.132812 C 147.511719 226.183594 147.589844 225.476562 147.402344 224.53125 C 147.105469 221.839844 148.246094 219.238281 149.285156 216.8125 C 151.652344 211.207031 152.78125 204.75 152.945312 198.6875 C 153.074219 194.820312 153.382812 190.972656 153.703125 187.117188 C 153.769531 186.324219 153.832031 185.535156 153.894531 184.742188 C 154.222656 180.636719 154.585938 176.542969 155.109375 172.457031 C 155.148438 172.152344 155.1875 171.847656 155.226562 171.535156 C 156.15625 164.578125 157.722656 157.644531 160.875 151.339844 C 160.953125 151.183594 161.027344 151.03125 161.109375 150.871094 C 162.4375 148.238281 164.21875 146.023438 166.148438 143.808594 C 166.316406 143.613281 166.484375 143.417969 166.660156 143.214844 C 171.59375 137.945312 178.390625 134.90625 185.523438 134.492188 C 189.773438 134.371094 193.839844 135.714844 197.566406 137.660156 C 197.738281 137.75 197.90625 137.839844 198.085938 137.929688 C 199.257812 138.570312 200.367188 139.3125 201.28125 140.296875 C 201.28125 140.460938 201.28125 140.628906 201.28125 140.796875 C 201.449219 140.796875 201.613281 140.796875 201.785156 140.796875 C 201.867188 140.507812 201.949219 140.21875 202.035156 139.917969 C 203.148438 136.625 204.949219 133.75 207.054688 131.007812 C 207.21875 130.792969 207.21875 130.792969 207.386719 130.574219 C 209.117188 128.304688 210.941406 126.121094 212.828125 123.984375 C 212.949219 123.84375 213.070312 123.707031 213.199219 123.5625 C 216.132812 120.261719 219.339844 117.347656 222.867188 114.695312 C 223.03125 114.570312 223.195312 114.445312 223.363281 114.316406 C 239.820312 101.777344 261.222656 96.785156 281.34375 101.898438 Z M 281.34375 101.898438 "/>
    <path style={{
    stroke:'none',
    fillRule:'nonzero',
    fill:'rgb(9.019608%,10.196079%,11.372549%)',
    fillOpacity:1,
    }} d="M 190.960938 400.425781 C 192.75 400.980469 194.332031 401.867188 195.964844 402.769531 C 196.59375 403.113281 197.226562 403.453125 197.855469 403.792969 C 198.097656 403.921875 198.097656 403.921875 198.339844 404.054688 C 210.871094 410.804688 224.242188 415.507812 238.015625 419.015625 C 238.917969 419.246094 239.816406 419.488281 240.714844 419.746094 C 245.597656 421.097656 251.171875 420.847656 255.996094 419.382812 C 256.277344 419.296875 256.554688 419.214844 256.84375 419.125 C 257.371094 418.964844 257.898438 418.796875 258.425781 418.625 C 259.371094 418.34375 260.324219 418.125 261.28125 417.90625 C 263.742188 417.347656 266.140625 416.628906 268.542969 415.867188 C 268.761719 415.800781 268.980469 415.730469 269.207031 415.660156 C 280.382812 412.125 291.222656 407.539062 301.417969 401.746094 C 303.125 400.789062 304.683594 400.078125 306.691406 400.308594 C 307.226562 400.761719 307.226562 400.761719 307.695312 401.3125 C 307.914062 401.4375 308.132812 401.558594 308.355469 401.6875 C 308.953125 402.0625 308.953125 402.0625 309.140625 402.507812 C 309.597656 403.324219 310.292969 403.800781 311.023438 404.355469 C 311.179688 404.476562 311.335938 404.597656 311.5 404.71875 C 311.988281 405.09375 312.476562 405.460938 312.96875 405.828125 C 313.109375 405.9375 313.253906 406.046875 313.398438 406.15625 C 317.679688 409.394531 322.476562 411.765625 327.238281 414.207031 C 328.316406 414.761719 329.386719 415.332031 330.457031 415.898438 C 332.226562 416.835938 334.011719 417.738281 335.804688 418.628906 C 337.734375 419.585938 339.648438 420.5625 341.546875 421.570312 C 343.339844 422.519531 345.144531 423.445312 346.949219 424.367188 C 350.5625 426.214844 354.164062 428.070312 357.707031 430.042969 C 358.476562 430.472656 359.25 430.894531 360.023438 431.320312 C 367.503906 435.445312 374.855469 439.773438 381.984375 444.480469 C 382.320312 444.699219 382.652344 444.917969 382.984375 445.136719 C 386.414062 447.394531 389.761719 449.769531 393.027344 452.257812 C 393.359375 452.511719 393.691406 452.761719 394.019531 453.007812 C 397.167969 455.394531 400.292969 457.808594 403.195312 460.484375 C 403.796875 461.023438 404.414062 461.519531 405.046875 462.015625 C 406.714844 463.375 408.230469 464.867188 409.75 466.390625 C 410.21875 466.859375 410.691406 467.328125 411.164062 467.796875 C 413.15625 469.777344 414.945312 471.839844 416.621094 474.09375 C 416.761719 474.285156 416.90625 474.476562 417.054688 474.671875 C 418.898438 477.199219 420.429688 479.871094 421.890625 482.628906 C 422.019531 482.871094 422.148438 483.109375 422.28125 483.359375 C 434.1875 505.707031 434.1875 505.707031 434.1875 514 C 311.117188 514 188.042969 514 61.238281 514 C 61.582031 511.765625 61.957031 509.726562 62.601562 507.585938 C 62.691406 507.292969 62.777344 507.003906 62.867188 506.703125 C 64.554688 501.238281 66.839844 496.078125 69.378906 490.960938 C 69.878906 489.941406 70.359375 488.914062 70.84375 487.886719 C 73.410156 482.433594 76.332031 477.335938 80.0625 472.589844 C 80.242188 472.359375 80.421875 472.125 80.605469 471.890625 C 82.234375 469.875 84.050781 468.050781 85.882812 466.21875 C 86.011719 466.089844 86.144531 465.957031 86.277344 465.824219 C 87.757812 464.34375 89.253906 462.894531 90.851562 461.546875 C 90.988281 461.429688 91.121094 461.316406 91.261719 461.199219 C 91.78125 460.753906 92.304688 460.3125 92.828125 459.871094 C 93.515625 459.292969 94.199219 458.714844 94.875 458.125 C 97.089844 456.207031 99.425781 454.460938 101.78125 452.71875 C 102.355469 452.289062 102.929688 451.859375 103.5 451.429688 C 105.523438 449.894531 107.570312 448.414062 109.675781 446.988281 C 109.945312 446.804688 110.21875 446.621094 110.496094 446.433594 C 115.148438 443.292969 119.890625 440.289062 124.734375 437.453125 C 124.976562 437.308594 125.21875 437.167969 125.46875 437.023438 C 129.785156 434.5 134.148438 432.0625 138.539062 429.671875 C 138.820312 429.519531 139.097656 429.367188 139.386719 429.210938 C 144.078125 426.660156 148.824219 424.226562 153.578125 421.796875 C 155.484375 420.820312 157.390625 419.835938 159.292969 418.847656 C 161.285156 417.8125 163.285156 416.789062 165.300781 415.789062 C 174.515625 411.210938 174.515625 411.210938 182.984375 405.40625 C 183.445312 405.039062 183.917969 404.675781 184.390625 404.320312 C 185.4375 403.542969 186.0625 402.941406 186.726562 401.8125 C 188.054688 400.53125 189.085938 399.953125 190.960938 400.425781 Z M 190.960938 400.425781 "/>
    <path style={{
    stroke:'none',
    fillRule:'nonzero',
    fill:'rgb(10.196079%,10.588235%,10.980392%)',
    fillOpacity:1,
    }} d="M 281.34375 101.898438 C 281.585938 101.957031 281.824219 102.019531 282.070312 102.082031 C 288.488281 103.746094 294.367188 106.425781 300.195312 109.546875 C 300.988281 109.960938 301.792969 110.351562 302.601562 110.734375 C 306.566406 112.613281 310.328125 115.445312 313.359375 118.601562 C 313.742188 119 313.742188 119 314.332031 119.417969 C 314.460938 119.515625 314.589844 119.613281 314.726562 119.714844 C 314.726562 119.882812 314.726562 120.046875 314.726562 120.21875 C 314.890625 120.21875 315.054688 120.21875 315.226562 120.21875 C 315.875 120.824219 316.417969 121.542969 316.984375 122.226562 C 317.160156 122.4375 317.160156 122.4375 317.34375 122.652344 C 319.320312 125.003906 321.125 127.40625 322.757812 130.007812 C 322.851562 130.15625 322.945312 130.308594 323.046875 130.46875 C 323.722656 131.554688 324.378906 132.65625 325.015625 133.769531 C 325.105469 133.925781 325.195312 134.085938 325.289062 134.246094 C 328.027344 139.070312 330.109375 144.300781 331.789062 149.582031 C 331.863281 149.808594 331.9375 150.035156 332.011719 150.269531 C 336.742188 165.316406 337.863281 181.46875 336.164062 197.121094 C 336.054688 198.167969 336.050781 199.191406 336.074219 200.246094 C 336.117188 205.964844 334.890625 211.375 333.140625 216.796875 C 333.070312 217.015625 333 217.234375 332.929688 217.460938 C 332.546875 218.59375 332.207031 219.304688 331.289062 220.105469 C 331.105469 220.558594 330.921875 221.011719 330.765625 221.476562 C 330.472656 222.292969 330.128906 223.089844 329.78125 223.886719 C 329.660156 224.175781 329.535156 224.460938 329.40625 224.757812 C 329.28125 225.046875 329.160156 225.332031 329.03125 225.628906 C 328.917969 225.894531 328.804688 226.160156 328.691406 226.4375 C 328.136719 227.722656 327.542969 228.988281 326.945312 230.253906 C 326.828125 230.507812 326.710938 230.757812 326.59375 231.015625 C 324.683594 235.054688 324.683594 235.054688 322.753906 236.011719 C 321.746094 236.328125 320.777344 236.375 319.742188 236.167969 C 318.960938 235.574219 318.960938 235.574219 318.488281 234.914062 C 318.488281 234.75 318.488281 234.582031 318.488281 234.414062 C 318.324219 234.414062 318.15625 234.414062 317.988281 234.414062 C 318.003906 234.140625 318.019531 233.871094 318.039062 233.59375 C 318.097656 232.570312 318.148438 231.550781 318.191406 230.53125 C 318.210938 230.089844 318.234375 229.652344 318.261719 229.214844 C 318.484375 225.636719 318.003906 223.359375 315.828125 220.429688 C 313.144531 217.527344 309.679688 215.511719 305.6875 215.085938 C 305.304688 215.082031 304.921875 215.082031 304.535156 215.085938 C 301.296875 215.105469 301.296875 215.105469 300.21875 214.335938 C 299.164062 212.972656 299.164062 212.972656 299.164062 212.074219 C 299.386719 212.015625 299.386719 212.015625 299.613281 211.953125 C 300.917969 211.570312 301.886719 211.238281 302.679688 210.066406 C 302.878906 208.988281 302.796875 208.101562 302.378906 207.085938 C 301.363281 205.894531 299.902344 205.398438 298.410156 205.046875 C 297.757812 205.019531 297.117188 205.042969 296.464844 205.070312 C 293.691406 205.167969 293.691406 205.167969 292.683594 204.488281 C 291.898438 203.683594 291.375 202.738281 290.871094 201.742188 C 290.523438 201.074219 290.097656 200.464844 289.675781 199.839844 C 287.617188 196.554688 287.617188 196.554688 287.617188 195.511719 C 287.453125 195.511719 287.289062 195.511719 287.117188 195.511719 C 286.734375 194.710938 286.355469 193.910156 285.972656 193.109375 C 285.859375 192.871094 285.742188 192.632812 285.625 192.386719 C 285.109375 191.296875 284.589844 190.207031 284.085938 189.113281 C 283.96875 188.863281 283.96875 188.863281 283.851562 188.609375 C 283.648438 188.167969 283.445312 187.726562 283.246094 187.285156 C 282.957031 186.691406 282.660156 186.132812 282.328125 185.5625 C 281.949219 184.898438 281.660156 184.304688 281.40625 183.589844 C 280.839844 182.121094 280.089844 180.761719 279.339844 179.382812 C 278.894531 178.5625 278.476562 177.730469 278.066406 176.890625 C 274.484375 169.683594 269.703125 163.53125 262.773438 159.371094 C 262.582031 159.253906 262.394531 159.140625 262.199219 159.023438 C 259.714844 157.523438 257.234375 156.371094 254.464844 155.503906 C 254.039062 155.371094 253.613281 155.226562 253.191406 155.085938 C 249.496094 153.871094 245.589844 152.902344 241.691406 152.84375 C 241.484375 152.839844 241.277344 152.835938 241.066406 152.832031 C 240.371094 152.816406 239.671875 152.804688 238.976562 152.796875 C 238.757812 152.792969 238.539062 152.789062 238.3125 152.789062 C 236.863281 152.785156 235.566406 152.988281 234.160156 153.347656 C 233.925781 153.394531 233.691406 153.441406 233.453125 153.488281 C 229.40625 154.417969 225.855469 157.535156 223.558594 160.90625 C 222.199219 163.136719 221.324219 165.003906 221.613281 167.652344 C 221 167.414062 220.394531 167.167969 219.800781 166.886719 C 218.042969 166.082031 216.457031 165.980469 214.539062 166.003906 C 214.238281 166.007812 213.9375 166.011719 213.628906 166.011719 C 209.195312 166.121094 205.78125 167.773438 202.667969 170.949219 C 202.214844 171.472656 202.214844 171.472656 201.785156 172.421875 C 202.945312 172.421875 204.105469 172.421875 205.296875 172.421875 C 205.296875 172.503906 205.296875 172.585938 205.296875 172.671875 C 204.933594 172.648438 204.933594 172.648438 204.5625 172.621094 C 202.550781 172.585938 202.550781 172.585938 200.8125 173.476562 C 200.152344 174.265625 199.585938 175.074219 199.023438 175.933594 C 198.796875 176.261719 198.570312 176.585938 198.339844 176.910156 C 197.316406 178.382812 196.425781 179.785156 195.761719 181.457031 C 195.597656 181.457031 195.429688 181.457031 195.257812 181.457031 C 195.167969 181.757812 195.167969 181.757812 195.070312 182.066406 C 194.835938 182.738281 194.585938 183.355469 194.289062 183.996094 C 192.3125 188.457031 192.027344 193.085938 191.730469 197.910156 C 191.71875 198.078125 191.710938 198.242188 191.699219 198.414062 C 191.648438 199.234375 191.601562 200.054688 191.550781 200.871094 C 191.023438 209.53125 191.023438 209.53125 188.957031 213.367188 C 188.679688 213.90625 188.679688 213.90625 188.484375 214.835938 C 189.3125 214.835938 190.140625 214.835938 190.992188 214.835938 C 190.992188 214.917969 190.992188 215 190.992188 215.085938 C 190.78125 215.082031 190.78125 215.082031 190.566406 215.078125 C 186.707031 215.035156 184.167969 215.53125 181.222656 218.160156 C 178.976562 220.660156 177.835938 223.714844 177.46875 227 C 177.179688 229.519531 176.738281 231.003906 174.679688 232.65625 C 174.507812 232.8125 174.332031 232.96875 174.152344 233.132812 C 171.527344 235.378906 167.40625 237.441406 163.902344 237.285156 C 163.386719 237.171875 163.386719 237.171875 162.804688 236.625 C 162.664062 236.390625 162.527344 236.15625 162.382812 235.917969 C 162.152344 235.722656 161.925781 235.523438 161.691406 235.320312 C 161.125 234.664062 161.125 234.664062 160.9375 233.878906 C 161.375 231.628906 163.109375 229.832031 164.496094 228.066406 C 165.988281 226.273438 165.988281 226.273438 166.648438 224.121094 C 166.316406 223.957031 165.984375 223.789062 165.644531 223.621094 C 165.644531 223.453125 165.644531 223.289062 165.644531 223.117188 C 160.261719 221.398438 160.261719 221.398438 154.851562 222.390625 C 153.664062 223.140625 152.824219 224.140625 151.933594 225.214844 C 151.175781 226.0625 150.714844 226.339844 149.597656 226.460938 C 148.664062 226.363281 148.253906 226.289062 147.574219 225.628906 C 146.558594 222.808594 148.179688 219.398438 149.285156 216.8125 C 151.652344 211.207031 152.78125 204.75 152.945312 198.6875 C 153.074219 194.820312 153.382812 190.972656 153.703125 187.117188 C 153.769531 186.324219 153.832031 185.535156 153.894531 184.742188 C 154.222656 180.636719 154.585938 176.542969 155.109375 172.457031 C 155.148438 172.152344 155.1875 171.847656 155.226562 171.535156 C 156.15625 164.578125 157.722656 157.644531 160.875 151.339844 C 160.953125 151.183594 161.027344 151.03125 161.109375 150.871094 C 162.4375 148.238281 164.21875 146.023438 166.148438 143.808594 C 166.316406 143.613281 166.484375 143.417969 166.660156 143.214844 C 171.59375 137.945312 178.390625 134.90625 185.523438 134.492188 C 189.773438 134.371094 193.839844 135.714844 197.566406 137.660156 C 197.738281 137.75 197.90625 137.839844 198.085938 137.929688 C 199.257812 138.570312 200.367188 139.3125 201.28125 140.296875 C 201.28125 140.460938 201.28125 140.628906 201.28125 140.796875 C 201.449219 140.796875 201.613281 140.796875 201.785156 140.796875 C 201.867188 140.507812 201.949219 140.21875 202.035156 139.917969 C 203.148438 136.625 204.949219 133.75 207.054688 131.007812 C 207.164062 130.867188 207.273438 130.722656 207.386719 130.574219 C 209.117188 128.304688 210.941406 126.121094 212.828125 123.984375 C 212.949219 123.84375 213.070312 123.707031 213.199219 123.5625 C 216.132812 120.261719 219.339844 117.347656 222.867188 114.695312 C 223.113281 114.507812 223.113281 114.507812 223.363281 114.316406 C 239.820312 101.777344 261.222656 96.785156 281.34375 101.898438 Z M 281.34375 101.898438 "/>
    <path style={{
     stroke:'none',fillRule:'nonzero',fill:'rgb(0.392157%,0.392157%,0.392157%)',fillOpacity:1,
    }}d="M 238.945312 152.5625 C 239.160156 152.5625 239.375 152.558594 239.59375 152.558594 C 242.828125 152.5625 245.855469 152.90625 249 153.675781 C 249.316406 153.75 249.636719 153.824219 249.964844 153.902344 C 252.9375 154.609375 255.761719 155.507812 258.507812 156.859375 C 258.761719 156.984375 258.761719 156.984375 259.023438 157.113281 C 267.109375 161.101562 272.765625 166.78125 277.078125 174.679688 C 277.371094 175.171875 277.664062 175.664062 277.957031 176.152344 C 278.921875 177.800781 279.761719 179.503906 280.601562 181.21875 C 280.9375 181.898438 281.28125 182.578125 281.628906 183.253906 C 281.847656 183.714844 281.847656 183.714844 282.175781 184.640625 C 282.515625 185.589844 282.976562 186.441406 283.460938 187.324219 C 284.097656 188.476562 284.621094 189.609375 285.082031 190.835938 C 285.554688 191.957031 286.167969 193.003906 286.769531 194.058594 C 287.117188 194.757812 287.117188 194.757812 287.117188 195.511719 C 287.28125 195.511719 287.449219 195.511719 287.617188 195.511719 C 287.738281 195.765625 287.855469 196.019531 287.980469 196.28125 C 288.675781 197.664062 289.464844 198.988281 290.285156 200.300781 C 290.679688 200.933594 291.027344 201.566406 291.34375 202.242188 C 291.828125 203.183594 292.300781 203.875 293.140625 204.546875 C 294.453125 204.882812 295.796875 204.816406 297.136719 204.792969 C 298.988281 204.761719 300.40625 205.300781 301.941406 206.304688 C 302.714844 207.101562 303.003906 207.8125 303.039062 208.921875 C 303.015625 209.8125 302.953125 210.035156 302.410156 210.789062 C 301.390625 211.527344 300.453125 212.074219 299.164062 212.074219 C 299.582031 213.121094 300.046875 213.867188 300.921875 214.585938 C 302.285156 214.945312 303.742188 214.847656 305.144531 214.832031 C 308.746094 214.851562 312.472656 216.875 315.039062 219.289062 C 317.472656 221.867188 318.582031 224.386719 318.488281 227.886719 C 318.433594 229.128906 318.351562 230.367188 318.269531 231.605469 C 318.246094 231.953125 318.222656 232.300781 318.199219 232.648438 C 318.164062 233.191406 318.128906 233.730469 318.09375 234.269531 C 318.023438 235.367188 317.953125 236.46875 317.890625 237.566406 C 317.851562 238.277344 317.808594 238.984375 317.765625 239.691406 C 317.738281 240.1875 317.710938 240.6875 317.683594 241.183594 C 317.355469 246.5625 314.316406 251.34375 310.441406 254.992188 C 308.675781 256.488281 306.835938 257.492188 304.6875 258.316406 C 304.445312 258.410156 304.445312 258.410156 304.199219 258.503906 C 301.191406 259.601562 298.257812 259.585938 295.097656 259.585938 C 294.601562 259.585938 294.105469 259.585938 293.613281 259.589844 C 292.578125 259.589844 291.542969 259.589844 290.507812 259.589844 C 289.1875 259.585938 287.871094 259.589844 286.554688 259.597656 C 285.53125 259.601562 284.511719 259.601562 283.488281 259.601562 C 283.003906 259.601562 282.515625 259.601562 282.03125 259.605469 C 275.941406 259.632812 271.609375 258.191406 267.117188 253.894531 C 263.296875 249.949219 261.394531 244.875 260.140625 239.628906 C 259.453125 236.824219 258.226562 233.804688 256.246094 231.652344 C 253.253906 230.039062 249.925781 229.582031 246.585938 229.566406 C 246.230469 229.5625 246.230469 229.5625 245.867188 229.5625 C 243.355469 229.585938 240.980469 230.429688 239.121094 232.179688 C 238.046875 233.398438 237.667969 234.074219 237.550781 235.722656 C 237 243.082031 233.988281 250.484375 228.371094 255.441406 C 224.726562 258.480469 220.34375 260.003906 215.628906 260.15625 C 215.359375 260.167969 215.09375 260.175781 214.816406 260.1875 C 211.375 260.300781 207.933594 260.335938 204.488281 260.351562 C 203.726562 260.355469 202.964844 260.359375 202.203125 260.371094 C 201.261719 260.382812 200.320312 260.390625 199.378906 260.390625 C 199.027344 260.394531 198.675781 260.398438 198.324219 260.402344 C 193.679688 260.480469 189.976562 258.402344 186.476562 255.492188 C 186.316406 255.375 186.160156 255.257812 185.996094 255.132812 C 182.695312 252.527344 180.847656 248.820312 179.449219 244.953125 C 179.382812 244.78125 179.320312 244.609375 179.253906 244.433594 C 178.441406 242.21875 177.871094 239.992188 177.441406 237.675781 C 177.386719 237.429688 177.335938 237.183594 177.285156 236.933594 C 176.234375 231.363281 176.582031 224.621094 179.761719 219.777344 C 181.410156 217.585938 183.738281 215.457031 186.511719 214.9375 C 187.171875 214.878906 187.820312 214.839844 188.484375 214.835938 C 188.503906 214.632812 188.523438 214.433594 188.546875 214.222656 C 188.703125 213.484375 188.867188 213.007812 189.1875 212.34375 C 190.613281 209.238281 190.933594 206.039062 191.148438 202.679688 C 191.179688 202.257812 191.210938 201.832031 191.242188 201.410156 C 191.300781 200.578125 191.359375 199.742188 191.417969 198.910156 C 191.84375 192.628906 192.265625 187.097656 195.257812 181.457031 C 195.425781 181.457031 195.589844 181.457031 195.761719 181.457031 C 195.789062 181.273438 195.8125 181.09375 195.839844 180.90625 C 196.550781 177.996094 199.410156 175.015625 201.429688 172.875 C 201.816406 172.421875 201.816406 172.421875 202.023438 171.804688 C 203.074219 169.25 206.171875 167.71875 208.503906 166.550781 C 210.441406 165.796875 212.417969 165.785156 214.476562 165.753906 C 214.902344 165.746094 214.902344 165.746094 215.339844 165.734375 C 217.628906 165.746094 219.335938 166.390625 221.359375 167.402344 C 221.339844 167.265625 221.316406 167.132812 221.289062 166.992188 C 221.042969 164.292969 222.671875 161.71875 224.246094 159.621094 C 224.535156 159.28125 224.828125 158.945312 225.125 158.617188 C 225.28125 158.445312 225.433594 158.273438 225.59375 158.097656 C 226.8125 156.8125 228.160156 155.8125 229.644531 154.851562 C 229.917969 154.671875 230.191406 154.488281 230.476562 154.304688 C 233.082031 152.867188 236.027344 152.550781 238.945312 152.5625 Z M 238.945312 152.5625 "/>
    <path style={{
    stroke:'none',fillRule:'nonzero',fill:'rgb(86.666667%,53.725493%,43.137255%)',fillOpacity:'1',
    }} d="M 209.566406 320.246094 C 210.574219 320.582031 211.136719 320.992188 211.855469 321.769531 C 212.976562 322.925781 214.160156 323.945312 215.425781 324.9375 C 215.71875 325.167969 216.007812 325.402344 216.296875 325.632812 C 221.941406 330.164062 228.273438 333.289062 234.867188 336.183594 C 235.039062 336.257812 235.214844 336.335938 235.390625 336.414062 C 237.875 337.511719 237.875 337.511719 240.4375 338.40625 C 240.9375 338.566406 240.9375 338.566406 241.414062 338.777344 C 243.261719 339.542969 245.203125 339.425781 247.171875 339.40625 C 247.796875 339.398438 248.417969 339.398438 249.042969 339.402344 C 249.441406 339.398438 249.839844 339.398438 250.238281 339.394531 C 250.421875 339.394531 250.605469 339.394531 250.796875 339.398438 C 251.746094 339.382812 252.421875 339.3125 253.234375 338.820312 C 253.882812 338.714844 253.882812 338.714844 254.554688 338.660156 C 254.890625 338.632812 254.890625 338.632812 255.230469 338.605469 C 255.402344 338.59375 255.570312 338.578125 255.746094 338.566406 C 255.746094 338.402344 255.746094 338.234375 255.746094 338.066406 C 255.964844 337.992188 256.183594 337.917969 256.40625 337.84375 C 258.21875 337.222656 259.914062 336.523438 261.617188 335.640625 C 262.40625 335.234375 263.207031 334.894531 264.027344 334.550781 C 267.707031 332.957031 271.234375 331.175781 274.589844 328.96875 C 274.777344 328.847656 274.964844 328.722656 275.160156 328.597656 C 275.324219 328.488281 275.488281 328.375 275.660156 328.261719 C 276.074219 328.027344 276.074219 328.027344 276.578125 328.027344 C 276.578125 327.859375 276.578125 327.695312 276.578125 327.523438 C 277.933594 326.519531 277.933594 326.519531 278.585938 326.519531 C 278.585938 326.355469 278.585938 326.1875 278.585938 326.019531 C 279 325.851562 279.414062 325.6875 279.839844 325.515625 C 279.839844 325.351562 279.839844 325.183594 279.839844 325.015625 C 280.960938 324.011719 280.960938 324.011719 281.59375 324.011719 C 281.59375 323.84375 281.59375 323.679688 281.59375 323.507812 C 281.992188 323.109375 281.992188 323.109375 282.519531 322.660156 C 282.703125 322.507812 282.886719 322.351562 283.074219 322.191406 C 283.25 322.046875 283.425781 321.902344 283.601562 321.75 C 283.839844 321.550781 284.078125 321.347656 284.324219 321.140625 C 284.859375 320.75 284.859375 320.75 285.359375 320.75 C 285.335938 320.929688 285.316406 321.109375 285.292969 321.296875 C 284.382812 328.730469 284.140625 336.171875 285.359375 343.585938 C 285.429688 344.019531 285.429688 344.019531 285.5 344.464844 C 286.949219 353.464844 289 362.46875 291.632812 371.195312 C 291.703125 371.425781 291.773438 371.660156 291.84375 371.898438 C 294.804688 381.621094 299.542969 390.265625 306.066406 398.015625 C 306.1875 398.164062 306.308594 398.308594 306.429688 398.457031 C 307.269531 399.433594 308.074219 400.058594 309.269531 400.53125 C 309.703125 400.808594 309.703125 400.808594 309.859375 401.351562 C 309.871094 401.554688 309.882812 401.761719 309.894531 401.96875 C 309.90625 402.175781 309.921875 402.378906 309.9375 402.59375 C 309.941406 402.75 309.949219 402.90625 309.957031 403.070312 C 309.707031 403.070312 309.460938 403.070312 309.203125 403.070312 C 309.089844 402.875 308.976562 402.683594 308.859375 402.488281 C 308.390625 401.714844 307.976562 401.480469 307.195312 401.0625 C 307.03125 400.894531 306.863281 400.730469 306.695312 400.558594 C 303.992188 400.28125 301.671875 401.792969 299.390625 403.035156 C 298.492188 403.523438 297.59375 404.003906 296.691406 404.484375 C 296.511719 404.578125 296.335938 404.675781 296.152344 404.773438 C 288.816406 408.703125 281.210938 411.738281 273.367188 414.492188 C 272.652344 414.742188 271.9375 415 271.226562 415.257812 C 268.925781 416.089844 266.632812 416.796875 264.261719 417.40625 C 263.933594 417.492188 263.601562 417.578125 263.273438 417.664062 C 261.019531 418.253906 258.761719 418.828125 256.5 419.382812 C 255.765625 419.5625 255.035156 419.746094 254.300781 419.929688 C 253.972656 420.011719 253.644531 420.09375 253.316406 420.175781 C 252.886719 420.285156 252.453125 420.394531 252.027344 420.519531 C 250.695312 420.800781 249.289062 420.707031 247.933594 420.714844 C 247.617188 420.722656 247.300781 420.730469 246.972656 420.738281 C 244.34375 420.753906 241.972656 420.289062 239.429688 419.632812 C 239.214844 419.578125 238.996094 419.523438 238.773438 419.464844 C 237.066406 419.035156 235.371094 418.585938 233.675781 418.125 C 233.28125 418.019531 233.28125 418.019531 232.878906 417.910156 C 219.128906 414.175781 205.863281 408.753906 193.460938 401.722656 C 193.148438 401.546875 193.148438 401.546875 192.828125 401.371094 C 192.558594 401.214844 192.558594 401.214844 192.285156 401.058594 C 191.148438 400.53125 189.972656 400.449219 188.734375 400.558594 C 188.046875 400.996094 188.046875 400.996094 187.480469 401.5625 C 187.296875 401.6875 187.117188 401.8125 186.929688 401.9375 C 186.425781 402.355469 186.222656 402.71875 185.972656 403.320312 C 185.808594 403.238281 185.640625 403.152344 185.472656 403.070312 C 185.445312 402.277344 185.480469 401.566406 185.722656 400.808594 C 186.570312 400.355469 186.570312 400.355469 187.121094 400.132812 C 195.898438 395.414062 201.371094 379.355469 204.011719 370.664062 C 204.964844 367.433594 205.796875 364.183594 206.554688 360.90625 C 206.597656 360.714844 206.640625 360.527344 206.6875 360.332031 C 207.78125 355.570312 208.820312 350.796875 209.675781 345.988281 C 209.707031 345.820312 209.734375 345.652344 209.765625 345.480469 C 210.519531 341.246094 210.917969 337.09375 210.898438 332.796875 C 210.898438 332.585938 210.898438 332.375 210.898438 332.15625 C 211.125 326.003906 211.125 326.003906 209.566406 320.246094 Z M 209.566406 320.246094 "/>
    <path style={{
    stroke:'none',
    fillRule:'nonzero',
    fill:'rgb(91.37255%,71.372551%,59.607846%)',
    fillOpacity:'1',
    }} d="M 207.714844 173.136719 C 208.613281 173.402344 209.503906 173.679688 210.394531 173.964844 C 212.15625 174.519531 213.945312 175.003906 215.722656 175.507812 C 216.285156 175.667969 216.847656 175.835938 217.40625 176.003906 C 220.152344 176.808594 222.949219 177.28125 225.769531 177.738281 C 225.964844 177.769531 226.160156 177.800781 226.359375 177.835938 C 232.949219 178.902344 239.457031 179.25 246.128906 179.230469 C 246.394531 179.226562 246.660156 179.226562 246.933594 179.226562 C 248.480469 179.222656 250.03125 179.210938 251.582031 179.203125 C 252.140625 179.199219 252.699219 179.195312 253.257812 179.195312 C 257.382812 179.183594 261.386719 178.613281 265.449219 177.941406 C 265.660156 177.90625 265.871094 177.871094 266.089844 177.835938 C 266.492188 177.773438 266.890625 177.703125 267.289062 177.636719 C 269.183594 177.328125 269.183594 177.328125 270.050781 177.691406 C 270.480469 178.28125 270.480469 178.28125 270.863281 179.070312 C 271.011719 179.367188 271.15625 179.664062 271.308594 179.96875 C 271.464844 180.296875 271.621094 180.625 271.777344 180.953125 C 271.941406 181.292969 272.105469 181.632812 272.273438 181.972656 C 273.640625 184.789062 274.929688 187.648438 276.21875 190.507812 C 278.957031 196.597656 278.957031 196.597656 282.363281 202.332031 C 282.921875 203.171875 283.101562 203.503906 283.101562 204.546875 C 282.855469 204.546875 282.609375 204.546875 282.355469 204.546875 C 280.035156 204.542969 277.71875 204.550781 275.398438 204.566406 C 274.207031 204.574219 273.011719 204.578125 271.820312 204.574219 C 270.671875 204.574219 269.519531 204.578125 268.371094 204.589844 C 267.929688 204.59375 267.492188 204.59375 267.050781 204.589844 C 266.4375 204.589844 265.824219 204.59375 265.207031 204.601562 C 264.9375 204.597656 264.9375 204.597656 264.65625 204.59375 C 264.082031 204.59375 264.082031 204.59375 263.273438 204.796875 C 262.109375 206.175781 261.929688 207.386719 261.949219 209.132812 C 262.046875 210.097656 262.371094 210.617188 263.023438 211.324219 C 264.195312 212.265625 265.3125 212.175781 266.746094 212.160156 C 267.117188 212.160156 267.117188 212.160156 267.496094 212.160156 C 268.03125 212.160156 268.570312 212.160156 269.105469 212.15625 C 269.957031 212.152344 270.804688 212.152344 271.652344 212.152344 C 274.066406 212.160156 276.480469 212.15625 278.894531 212.148438 C 280.375 212.140625 281.851562 212.144531 283.328125 212.148438 C 283.890625 212.148438 284.453125 212.148438 285.015625 212.144531 C 285.804688 212.136719 286.589844 212.140625 287.375 212.144531 C 287.609375 212.140625 287.839844 212.136719 288.078125 212.132812 C 289.242188 212.148438 289.929688 212.234375 290.789062 213.058594 C 291.382812 213.832031 291.382812 213.832031 291.382812 214.335938 C 291.078125 214.339844 290.773438 214.347656 290.460938 214.351562 C 287.53125 214.414062 284.601562 214.480469 281.671875 214.554688 C 280.898438 214.570312 280.125 214.589844 279.351562 214.605469 C 273.285156 214.730469 265.195312 214.996094 260.71875 219.652344 C 260.574219 219.816406 260.429688 219.980469 260.285156 220.148438 C 258.589844 221.640625 256.714844 221.46875 254.570312 221.441406 C 254.230469 221.4375 253.890625 221.433594 253.550781 221.433594 C 250.824219 221.402344 248.101562 221.285156 245.375 221.140625 C 245.183594 221.132812 244.992188 221.121094 244.796875 221.113281 C 239.234375 220.820312 239.234375 220.820312 236.796875 219.464844 C 236.636719 219.375 236.476562 219.289062 236.308594 219.199219 C 235.039062 218.484375 234.023438 217.597656 232.96875 216.585938 C 230.707031 214.601562 227.328125 214.210938 224.441406 214.269531 C 224.007812 214.277344 224.007812 214.277344 223.566406 214.28125 C 222.582031 214.292969 221.59375 214.3125 220.609375 214.335938 C 220.429688 214.335938 220.246094 214.339844 220.0625 214.347656 C 217.402344 214.402344 214.742188 214.476562 212.078125 214.546875 C 204.210938 214.765625 196.355469 214.917969 188.484375 214.835938 C 188.625 213.921875 188.765625 213.167969 189.1875 212.34375 C 190.613281 209.242188 190.933594 206.035156 191.148438 202.679688 C 191.179688 202.257812 191.210938 201.832031 191.242188 201.410156 C 191.300781 200.578125 191.359375 199.742188 191.417969 198.910156 C 191.84375 192.628906 192.265625 187.097656 195.257812 181.457031 C 195.425781 181.457031 195.589844 181.457031 195.761719 181.457031 C 195.789062 181.273438 195.8125 181.09375 195.839844 180.90625 C 196.359375 178.78125 198.175781 176.8125 199.503906 175.117188 C 200.023438 174.464844 200.023438 174.464844 200.355469 173.847656 C 201.789062 171.519531 205.527344 172.539062 207.714844 173.136719 Z M 207.714844 173.136719 "/>
    <path style={{
    stroke:'none',
    fillRule:'nonzero',
    fill:'rgb(92.54902%,74.901962%,62.7451%)',
    fillOpacity:'1',
    }} d="M 222.921875 216.074219 C 223.683594 216.0625 224.441406 216.054688 225.199219 216.046875 C 225.417969 216.042969 225.640625 216.039062 225.867188 216.035156 C 227.75 216.027344 229.234375 216.429688 230.898438 217.34375 C 231.078125 217.441406 231.257812 217.539062 231.441406 217.636719 C 233.320312 218.808594 234.113281 220.804688 234.664062 222.867188 C 234.804688 223.695312 234.878906 224.523438 234.945312 225.359375 C 234.964844 225.589844 234.984375 225.820312 235.003906 226.054688 C 235.0625 226.75 235.113281 227.441406 235.164062 228.136719 C 235.179688 228.339844 235.195312 228.542969 235.210938 228.753906 C 235.300781 230.050781 235.367188 231.351562 235.417969 232.65625 C 235.425781 232.925781 235.425781 232.925781 235.4375 233.199219 C 235.675781 239.917969 233.496094 246.964844 228.890625 251.980469 C 228.714844 252.175781 228.539062 252.371094 228.359375 252.570312 C 225.808594 255.277344 221.945312 257.585938 218.160156 257.894531 C 217.347656 257.960938 217.347656 257.960938 216.59375 258.253906 C 215.964844 258.316406 215.347656 258.359375 214.71875 258.394531 C 214.519531 258.402344 214.320312 258.414062 214.117188 258.425781 C 211.519531 258.550781 208.914062 258.550781 206.3125 258.550781 C 205.441406 258.554688 204.570312 258.558594 203.699219 258.5625 C 201.15625 258.570312 198.625 258.550781 196.089844 258.300781 C 195.902344 258.28125 195.71875 258.265625 195.523438 258.246094 C 191.519531 257.789062 187.761719 254.710938 185.222656 251.730469 C 184.636719 250.929688 184.167969 250.101562 183.714844 249.21875 C 183.636719 249.070312 183.558594 248.921875 183.480469 248.769531 C 179.796875 241.59375 177.59375 232.84375 179.699219 224.875 C 180.558594 222.242188 181.742188 220.929688 183.914062 219.28125 C 184.382812 218.917969 184.816406 218.542969 185.253906 218.144531 C 186.503906 217.195312 187.882812 217.03125 189.421875 216.949219 C 189.589844 216.941406 189.757812 216.929688 189.933594 216.921875 C 192.816406 216.777344 195.703125 216.722656 198.585938 216.65625 C 199.25 216.636719 199.910156 216.621094 200.574219 216.605469 C 201.957031 216.570312 203.335938 216.535156 204.71875 216.503906 C 206.304688 216.464844 207.886719 216.425781 209.46875 216.386719 C 211.007812 216.347656 212.546875 216.308594 214.089844 216.269531 C 214.734375 216.253906 215.382812 216.238281 216.027344 216.222656 C 218.328125 216.164062 220.625 216.117188 222.921875 216.074219 Z M 222.921875 216.074219 "/>
    <path style={{
    stroke:'none',
    fillRule:'nonzero',
    fill:'rgb(92.54902%,74.901962%,62.7451%)',
    fillOpacity:'1',
    }} d="M 287.394531 216.335938 C 288.152344 216.339844 288.910156 216.339844 289.667969 216.335938 C 292.917969 216.308594 295.523438 216.386719 298.347656 218.109375 C 299.054688 218.535156 299.640625 218.785156 300.417969 219.023438 C 301.847656 219.5625 302.902344 220.574219 304.054688 221.542969 C 307.6875 224.570312 312.074219 227.171875 316.480469 228.890625 C 316.539062 231.949219 316.410156 234.949219 316.109375 237.992188 C 316.042969 238.667969 315.980469 239.34375 315.921875 240.019531 C 315.445312 245.125 313.527344 249.441406 309.703125 252.984375 C 309.574219 253.117188 309.445312 253.25 309.3125 253.386719 C 305.679688 256.921875 299.988281 257.929688 295.125 257.875 C 294.644531 257.867188 294.167969 257.855469 293.691406 257.847656 C 293.1875 257.839844 292.683594 257.835938 292.179688 257.832031 C 290.90625 257.816406 289.632812 257.792969 288.359375 257.765625 C 287.414062 257.75 286.472656 257.738281 285.527344 257.726562 C 284.667969 257.714844 283.804688 257.703125 282.941406 257.683594 C 282.542969 257.679688 282.144531 257.671875 281.746094 257.667969 C 277.0625 257.59375 273.140625 256.636719 269.546875 253.484375 C 269.386719 253.347656 269.222656 253.207031 269.050781 253.0625 C 264.433594 248.800781 262.339844 242.21875 261.515625 236.167969 C 261.472656 235.859375 261.425781 235.550781 261.375 235.234375 C 261.035156 232.792969 260.957031 230.363281 260.9375 227.902344 C 260.933594 227.597656 260.929688 227.289062 260.925781 226.972656 C 260.925781 224.566406 261.109375 221.988281 262.773438 220.105469 C 264.308594 218.875 265.835938 218.253906 267.730469 217.785156 C 267.972656 217.722656 268.21875 217.660156 268.46875 217.59375 C 274.664062 216.035156 281.054688 216.285156 287.394531 216.335938 Z M 287.394531 216.335938 "/>
    <path style={{
    stroke:'none',
    fillRule:'nonzero',
    fill:'rgb(87.843138%,55.29412%,42.745098%)',
    fillOpacity:'1',
    }}  d="M 343.933594 219.996094 C 347.121094 222.792969 348.472656 227.039062 348.859375 231.148438 C 349.484375 240.824219 346.167969 249.492188 339.820312 256.75 C 337.335938 259.5625 334.753906 262.210938 331.789062 264.53125 C 331.441406 264.808594 331.441406 264.808594 331.089844 265.09375 C 329.734375 266.152344 328.339844 267.09375 326.851562 267.949219 C 326.597656 268.09375 326.597656 268.09375 326.339844 268.246094 C 325.46875 268.730469 324.660156 269.101562 323.691406 269.339844 C 321.730469 269.863281 320.605469 270.488281 319.496094 272.242188 C 318.742188 273.5625 318.054688 274.910156 317.386719 276.273438 C 316.710938 277.644531 315.957031 278.957031 315.164062 280.261719 C 315.042969 280.464844 314.921875 280.664062 314.796875 280.871094 C 313.6875 282.6875 312.503906 284.441406 311.269531 286.171875 C 310.972656 286.601562 310.691406 287.035156 310.410156 287.476562 C 309.222656 289.296875 309.222656 289.296875 308.382812 289.542969 C 307.824219 289.546875 307.824219 289.546875 306.945312 289.375 C 306.753906 287.394531 307.4375 285.859375 308.167969 284.042969 C 308.421875 283.394531 308.675781 282.746094 308.925781 282.097656 C 308.992188 281.933594 309.058594 281.769531 309.125 281.597656 C 309.574219 280.445312 310 279.285156 310.410156 278.121094 C 310.46875 277.960938 310.523438 277.804688 310.582031 277.640625 C 310.847656 276.882812 311.113281 276.125 311.375 275.367188 C 311.898438 273.867188 312.46875 272.457031 313.21875 271.054688 C 313.382812 271.054688 313.550781 271.054688 313.71875 271.054688 C 316.617188 261.488281 318.058594 251.90625 318.945312 241.972656 C 318.960938 241.796875 318.976562 241.621094 318.992188 241.4375 C 319.164062 239.511719 319.289062 237.601562 319.242188 235.667969 C 319.492188 235.792969 319.492188 235.792969 319.742188 235.917969 C 321.230469 236.113281 322.535156 236.050781 323.777344 235.160156 C 324.890625 234.019531 325.570312 232.5625 326.269531 231.148438 C 326.355469 230.972656 326.441406 230.800781 326.53125 230.617188 C 327.515625 228.613281 328.421875 226.585938 329.257812 224.515625 C 329.574219 223.773438 329.9375 223.066406 330.3125 222.351562 C 330.566406 221.800781 330.71875 221.253906 330.882812 220.671875 C 331.148438 219.847656 331.285156 219.609375 331.949219 218.992188 C 335.628906 217.289062 340.644531 217.589844 343.933594 219.996094 Z M 343.933594 219.996094 "/>
    <path style={{
    stroke:'none',fillRule:'nonzero',fill:'rgb(87.843138%,55.29412%,42.745098%)',fillOpacity:'1',
    }} d="M 165.644531 223.117188 C 165.644531 223.285156 165.644531 223.449219 165.644531 223.621094 C 166.058594 223.785156 166.472656 223.953125 166.898438 224.121094 C 166.558594 225.328125 166.054688 226.210938 165.332031 227.226562 C 165.230469 227.371094 165.128906 227.511719 165.023438 227.660156 C 164.472656 228.441406 163.902344 229.210938 163.324219 229.972656 C 161.9375 231.742188 161.9375 231.742188 161.222656 233.832031 C 161.421875 234.894531 161.824219 235.222656 162.632812 235.917969 C 162.75 236.09375 162.867188 236.265625 162.988281 236.445312 C 163.339844 236.953125 163.339844 236.953125 163.859375 237.074219 C 168.175781 237.117188 172.441406 234.5625 175.433594 231.652344 C 175.691406 232.425781 175.765625 233.078125 175.839844 233.886719 C 175.867188 234.195312 175.894531 234.5 175.921875 234.816406 C 175.945312 235.0625 175.945312 235.0625 175.964844 235.3125 C 176.011719 235.832031 176.058594 236.355469 176.105469 236.875 C 176.222656 238.171875 176.339844 239.46875 176.453125 240.769531 C 177.199219 249.691406 177.199219 249.691406 178.554688 258.539062 C 178.609375 258.820312 178.660156 259.101562 178.71875 259.394531 C 179.121094 261.472656 179.617188 263.5 180.203125 265.53125 C 180.285156 265.859375 180.367188 266.1875 180.449219 266.515625 C 180.84375 268.066406 181.238281 269.5625 181.949219 271 C 182.613281 272.433594 183.089844 273.9375 183.578125 275.4375 C 184.636719 279.578125 184.636719 279.578125 186.976562 282.851562 C 186.894531 283.183594 186.8125 283.511719 186.726562 283.855469 C 185.503906 283.746094 184.8125 283.140625 183.933594 282.347656 C 183.644531 282.09375 183.355469 281.839844 183.0625 281.585938 C 182.847656 281.398438 182.847656 281.398438 182.625 281.203125 C 182.035156 280.695312 181.425781 280.210938 180.8125 279.730469 C 177.855469 277.308594 174.949219 274.449219 173.269531 270.976562 C 172.324219 269.316406 170.554688 268.769531 168.890625 268.019531 C 159.476562 263.601562 151.609375 253.445312 148.039062 243.933594 C 146.210938 238.542969 145.453125 231.226562 147.824219 225.878906 C 147.988281 225.910156 148.152344 225.9375 148.320312 225.96875 C 149.378906 226.125 150.105469 226.226562 151.105469 225.800781 C 151.765625 225.191406 152.300781 224.574219 152.875 223.886719 C 156.316406 219.980469 161.449219 221.222656 165.644531 223.117188 Z M 165.644531 223.117188 "/>
    <path style={{
    stroke:'none',
    fillRule:'nonzero',
    fill:'rgb(85.490197%,52.549022%,43.529412%)',
    fillOpacity:'1',
    }}  d="M 256.246094 231.398438 C 256.722656 231.90625 256.980469 232.210938 257.054688 232.910156 C 257.042969 233.082031 257.03125 233.257812 257.015625 233.441406 C 256.980469 234.269531 257.042969 234.984375 257.226562 235.792969 C 257.546875 237.316406 257.710938 238.84375 257.878906 240.386719 C 258.160156 242.953125 258.160156 242.953125 258.539062 245.503906 C 259.0625 248.738281 259.046875 252.011719 259.039062 255.28125 C 259.039062 255.96875 259.039062 256.65625 259.042969 257.34375 C 259.042969 257.789062 259.042969 258.230469 259.042969 258.675781 C 259.042969 258.878906 259.042969 259.078125 259.042969 259.289062 C 259.035156 261.132812 258.90625 262.9375 258.394531 264.71875 C 258.335938 264.9375 258.273438 265.160156 258.207031 265.386719 C 258.003906 266.035156 257.761719 266.660156 257.5 267.289062 C 257.335938 267.289062 257.171875 267.289062 257 267.289062 C 256.953125 267.507812 256.90625 267.726562 256.859375 267.949219 C 256.273438 269.320312 255.238281 270 253.988281 270.757812 C 252.109375 271.5 250.03125 271.359375 248.039062 271.367188 C 247.496094 271.367188 246.957031 271.375 246.414062 271.382812 C 243.582031 271.40625 241.289062 271.082031 239.179688 269.046875 C 236.519531 265.820312 236.335938 261.449219 236.367188 257.46875 C 236.371094 256.898438 236.375 256.328125 236.375 255.757812 C 236.375 254.582031 236.394531 253.40625 236.421875 252.230469 C 236.425781 252.027344 236.429688 251.828125 236.433594 251.617188 C 236.527344 247.847656 237 244.164062 237.550781 240.4375 C 237.632812 239.867188 237.710938 239.296875 237.792969 238.726562 C 237.941406 237.691406 238.089844 236.65625 238.242188 235.621094 C 238.273438 235.417969 238.300781 235.214844 238.332031 235.003906 C 238.433594 234.382812 238.550781 233.773438 238.679688 233.15625 C 238.511719 233.074219 238.347656 232.992188 238.175781 232.90625 C 242.886719 228.417969 250.550781 227.996094 256.246094 231.398438 Z M 256.246094 231.398438 "/>
    <path style={{
    stroke:'none',
    fillRule:'nonzero',
    fill:'rgb(0%,0%,0%)',
    fillOpacity:'1',
    }} d="M 252.539062 127.726562 C 255.351562 127.691406 258.132812 127.722656 260.839844 128.546875 C 261.554688 128.761719 262.277344 128.929688 263.007812 129.097656 C 264.59375 129.488281 266.050781 130.09375 267.539062 130.757812 C 267.710938 130.832031 267.882812 130.90625 268.058594 130.984375 C 278.808594 135.660156 287.332031 144.050781 293.140625 154.101562 C 293.234375 154.261719 293.328125 154.421875 293.425781 154.589844 C 294.917969 157.152344 295.976562 159.820312 296.90625 162.632812 C 297.011719 162.957031 297.011719 162.957031 297.125 163.289062 C 298.960938 168.894531 299.914062 174.71875 300.90625 180.523438 C 302.316406 188.765625 303.933594 195.457031 310.078125 201.414062 C 310.753906 202.078125 311.363281 202.777344 311.972656 203.5 C 312.382812 203.953125 312.800781 204.371094 313.242188 204.792969 C 313.378906 204.925781 313.519531 205.058594 313.660156 205.195312 C 313.9375 205.457031 314.214844 205.71875 314.496094 205.976562 C 315.117188 206.570312 315.460938 206.902344 315.566406 207.773438 C 315.535156 207.953125 315.507812 208.128906 315.476562 208.3125 C 313.34375 209.023438 311 208.605469 308.953125 207.808594 C 308.765625 207.738281 308.578125 207.667969 308.382812 207.597656 C 303.558594 205.640625 299.953125 201.410156 297.40625 197.015625 C 297.277344 196.808594 297.148438 196.601562 297.015625 196.390625 C 295.925781 194.488281 295.324219 192.375 294.898438 190.242188 C 294.816406 190.15625 294.730469 190.074219 294.648438 189.988281 C 294.519531 189.347656 294.40625 188.707031 294.300781 188.0625 C 294.269531 187.867188 294.238281 187.675781 294.203125 187.476562 C 294.097656 186.855469 293.996094 186.234375 293.894531 185.613281 C 293.789062 184.992188 293.6875 184.375 293.585938 183.753906 C 293.519531 183.367188 293.457031 182.980469 293.390625 182.59375 C 293.238281 181.621094 293.238281 181.621094 292.890625 180.703125 C 292.839844 180.292969 292.792969 179.882812 292.753906 179.472656 C 292.292969 174.769531 291.320312 170.140625 289.878906 165.644531 C 289.789062 165.34375 289.703125 165.042969 289.609375 164.730469 C 289.214844 163.371094 288.796875 162.105469 288.117188 160.863281 C 287.871094 160.375 287.871094 160.375 287.527344 159.433594 C 287.140625 158.382812 286.652344 157.421875 286.097656 156.453125 C 286 156.28125 285.902344 156.109375 285.800781 155.929688 C 279.808594 145.570312 269.839844 137.289062 258.238281 134.058594 C 253.085938 132.878906 247.867188 133.125 243.199219 135.757812 C 242.144531 136.488281 241.308594 137.363281 240.464844 138.328125 C 239.933594 138.789062 239.933594 138.789062 239.378906 138.765625 C 238.929688 138.539062 238.929688 138.539062 238.679688 138.039062 C 238.523438 135.777344 239.070312 134.359375 240.53125 132.640625 C 243.277344 129.773438 247.101562 127.992188 251.09375 127.761719 C 251.574219 127.75 252.058594 127.738281 252.539062 127.726562 Z M 252.539062 127.726562 "/>
    <path style={{
    stroke:'none',fillRule:'nonzero',fill:'rgb(0%,0%,0%)',fillOpacity:'1',
    }}  d="M 189.332031 146.003906 C 191.296875 147.410156 192.796875 148.984375 193.503906 151.339844 C 193.613281 152.476562 193.636719 152.894531 193 153.847656 C 191.714844 154.042969 190.808594 153.589844 189.707031 152.984375 C 188 152.070312 186.769531 151.792969 184.828125 151.792969 C 184.628906 151.792969 184.425781 151.792969 184.222656 151.792969 C 182.671875 151.808594 181.203125 151.972656 179.699219 152.34375 C 179.699219 152.507812 179.699219 152.675781 179.699219 152.84375 C 179.429688 152.921875 179.160156 153 178.882812 153.078125 C 174.371094 154.804688 170.867188 159.421875 168.40625 163.386719 C 168.300781 163.554688 168.191406 163.726562 168.085938 163.902344 C 164.402344 169.886719 161.695312 176.03125 159.539062 182.703125 C 159.484375 182.878906 159.425781 183.058594 159.367188 183.238281 C 159.207031 183.726562 159.050781 184.214844 158.894531 184.703125 C 158.617188 185.472656 158.617188 185.472656 158.117188 186.226562 C 157.785156 186.140625 157.453125 186.058594 157.109375 185.972656 C 156.789062 184.988281 156.816406 183.988281 156.808594 182.960938 C 156.808594 182.765625 156.804688 182.570312 156.804688 182.367188 C 156.800781 181.726562 156.796875 181.089844 156.796875 180.453125 C 156.796875 180.234375 156.796875 180.019531 156.796875 179.796875 C 156.800781 176.613281 156.878906 173.523438 157.613281 170.414062 C 157.660156 170.21875 157.703125 170.023438 157.75 169.824219 C 158.332031 167.421875 159.070312 165.121094 160.125 162.882812 C 160.191406 162.734375 160.261719 162.585938 160.332031 162.429688 C 162.167969 158.523438 164.414062 154.929688 167.148438 151.589844 C 167.332031 151.367188 167.511719 151.148438 167.695312 150.917969 C 168.742188 149.691406 169.867188 148.65625 171.132812 147.667969 C 171.273438 147.558594 171.414062 147.449219 171.558594 147.335938 C 172.578125 146.570312 172.578125 146.570312 173.425781 146.570312 C 173.425781 146.40625 173.425781 146.238281 173.425781 146.070312 C 174.011719 145.824219 174.601562 145.585938 175.199219 145.355469 C 175.660156 145.171875 176.121094 144.980469 176.578125 144.773438 C 180.65625 143.113281 185.65625 143.707031 189.332031 146.003906 Z M 189.332031 146.003906 "/>
    <path style={{
    stroke:'none',fillRule:'nonzero',fill:'rgb(0.392157%,0.392157%,0%)',fillOpacity:'1',
    }} d="M 198.433594 204.890625 C 198.746094 204.886719 199.058594 204.886719 199.382812 204.882812 C 200.234375 204.878906 201.089844 204.882812 201.941406 204.886719 C 202.839844 204.890625 203.734375 204.890625 204.632812 204.886719 C 206.136719 204.886719 207.640625 204.890625 209.148438 204.898438 C 210.882812 204.90625 212.621094 204.90625 214.355469 204.902344 C 216.03125 204.898438 217.707031 204.898438 219.382812 204.902344 C 220.09375 204.90625 220.804688 204.90625 221.515625 204.902344 C 222.507812 204.902344 223.503906 204.90625 224.496094 204.914062 C 224.9375 204.910156 224.9375 204.910156 225.386719 204.910156 C 227.027344 204.929688 228.0625 205.0625 229.390625 206.050781 C 230.007812 206.785156 230.132812 207.21875 230.253906 208.167969 C 230.125 209.246094 229.816406 209.730469 229.140625 210.570312 C 228.902344 210.894531 228.902344 210.894531 228.65625 211.226562 C 227.503906 212.121094 226.441406 212.035156 225.015625 212.058594 C 224.726562 212.070312 224.433594 212.078125 224.136719 212.089844 C 223.175781 212.121094 222.214844 212.144531 221.253906 212.167969 C 220.585938 212.1875 219.917969 212.207031 219.25 212.226562 C 217.671875 212.277344 216.089844 212.320312 214.511719 212.363281 C 212.71875 212.410156 210.929688 212.460938 209.140625 212.515625 C 206.351562 212.601562 203.5625 212.679688 200.769531 212.757812 C 200.5 212.761719 200.226562 212.769531 199.949219 212.777344 C 199.222656 212.796875 198.496094 212.8125 197.769531 212.828125 C 197.441406 212.835938 197.441406 212.835938 197.109375 212.84375 C 195.851562 212.863281 195.167969 212.789062 194.160156 212.011719 C 193.957031 211.859375 193.753906 211.710938 193.542969 211.554688 C 192.855469 210.941406 192.324219 210.453125 192.140625 209.527344 C 192.136719 208.160156 192.296875 207.351562 193.25 206.304688 C 194.855469 204.914062 196.378906 204.867188 198.433594 204.890625 Z M 198.433594 204.890625 "/>
    <path style={{
    stroke:'none',fillRule:'nonzero',fill:'rgb(0%,0%,0%)',fillOpacity:'1',
    }}  d="M 194.882812 162.222656 C 195.429688 162.816406 195.511719 163.347656 195.511719 164.140625 C 195.144531 164.101562 194.777344 164.066406 194.414062 164.027344 C 194.105469 164 194.105469 164 193.796875 163.96875 C 193.25 163.886719 193.25 163.886719 192.75 163.636719 C 190.601562 163.460938 188.839844 163.515625 186.976562 164.640625 C 186.796875 164.742188 186.621094 164.84375 186.433594 164.945312 C 183.847656 166.519531 181.777344 168.859375 180.203125 171.417969 C 180.117188 171.554688 180.03125 171.691406 179.941406 171.832031 C 176.820312 176.875 174.566406 183.007812 174.429688 188.984375 C 174.632812 188.648438 174.632812 188.648438 174.84375 188.304688 C 176.050781 186.355469 177.316406 184.59375 178.945312 182.960938 C 179.1875 182.714844 179.1875 182.714844 179.4375 182.460938 C 180.988281 180.988281 182.859375 180.058594 184.96875 179.699219 C 184.96875 179.949219 184.96875 180.195312 184.96875 180.453125 C 184.539062 180.847656 184.539062 180.847656 183.949219 181.269531 C 182.15625 182.554688 180.757812 184.105469 179.496094 185.910156 C 179.304688 186.183594 179.304688 186.183594 179.109375 186.464844 C 176.347656 190.503906 174.320312 194.773438 173.714844 199.664062 C 173.535156 200.945312 173.535156 200.945312 172.941406 201.40625 C 172.269531 201.570312 171.824219 201.496094 171.164062 201.28125 C 170.875 200.699219 170.878906 200.355469 170.875 199.707031 C 170.871094 199.484375 170.871094 199.257812 170.867188 199.027344 C 170.867188 198.785156 170.863281 198.542969 170.863281 198.292969 C 170.863281 198.039062 170.859375 197.785156 170.859375 197.523438 C 170.855469 196.980469 170.855469 196.441406 170.855469 195.898438 C 170.851562 195.09375 170.84375 194.285156 170.835938 193.476562 C 170.820312 189.992188 171.097656 186.648438 171.667969 183.210938 C 171.734375 182.785156 171.734375 182.785156 171.800781 182.351562 C 172.972656 175.144531 176.976562 167.273438 182.917969 162.859375 C 186.714844 160.363281 191 159.105469 194.882812 162.222656 Z M 194.882812 162.222656 "/>
    <path style={{
    stroke:'none',fillRule:'nonzero',fill:'rgb(80.000001%,44.313726%,36.470589%)',fillOpacity:'1',
    }} d="M 328.277344 226.882812 C 328.558594 227.824219 328.558594 227.824219 328.277344 228.390625 C 328.414062 228.335938 328.550781 228.28125 328.695312 228.222656 C 330.921875 227.441406 333.558594 227.121094 335.789062 228.042969 C 336.136719 228.230469 336.476562 228.429688 336.8125 228.640625 C 336.984375 228.742188 337.160156 228.847656 337.339844 228.953125 C 339.0625 230.09375 340.152344 231.769531 340.667969 233.769531 C 340.730469 234.148438 340.785156 234.53125 340.828125 234.914062 C 340.851562 235.101562 340.878906 235.289062 340.90625 235.484375 C 341.3125 241.097656 337.535156 247.617188 334.300781 251.980469 C 333.203125 253.207031 333.203125 253.207031 332.261719 253.375 C 331.539062 253.234375 331.539062 253.234375 331.054688 252.875 C 330.640625 251.878906 330.78125 250.992188 331.039062 249.972656 C 331.523438 248.910156 332.117188 247.917969 332.714844 246.914062 C 336.101562 241.164062 336.101562 241.164062 336.8125 234.664062 C 336.425781 233.589844 336.023438 233.007812 335.054688 232.40625 C 335.03125 232.683594 335.011719 232.964844 334.992188 233.25 C 334.355469 238.101562 330.109375 242.84375 326.773438 246.207031 C 325.957031 246.75 325.707031 246.871094 324.765625 246.710938 C 324.0625 246.082031 323.777344 245.710938 323.710938 244.765625 C 324.160156 243.539062 324.933594 242.683594 325.765625 241.691406 C 328.65625 238.421875 328.65625 238.421875 330.789062 234.664062 C 330.707031 234.183594 330.707031 234.183594 330.535156 233.660156 C 330.511719 232.988281 330.523438 232.324219 330.535156 231.652344 C 330.269531 231.785156 330.003906 231.917969 329.726562 232.054688 C 327.121094 233.359375 327.121094 233.359375 324.511719 234.664062 C 324.941406 233.496094 325.523438 232.429688 326.113281 231.335938 C 326.898438 229.875 327.636719 228.414062 328.277344 226.882812 Z M 328.277344 226.882812 "/>
    <path id="eyes" style={{
    stroke:'none',fillRule:'nonzero',fill:'rgb(0.784314%,0.784314%,0.392157%)',fillOpacity:'1',
    }} d="M 221.425781 222.398438 C 223.242188 224.296875 223.980469 226.179688 223.957031 228.78125 C 223.765625 230.6875 222.808594 232.179688 221.359375 233.40625 C 221.179688 233.585938 221 233.761719 220.8125 233.941406 C 219.21875 235.003906 217.234375 235.453125 215.335938 235.164062 C 213.332031 234.621094 211.808594 233.730469 210.628906 232.011719 C 209.527344 230.078125 209.230469 228.332031 209.566406 226.128906 C 210.140625 224.152344 211.398438 222.761719 213.078125 221.613281 C 215.886719 220.128906 218.867188 220.722656 221.425781 222.398438 Z M 221.425781 222.398438 "/>
    <path style={{
    stroke:'none',fillRule:'nonzero',fill:'rgb(80.000001%,43.921569%,36.078432%)',fillOpacity:'1',
    }} d="M 162.960938 227.605469 C 163.148438 227.605469 163.332031 227.609375 163.527344 227.609375 C 163.980469 227.617188 164.4375 227.625 164.890625 227.636719 C 164.304688 228.515625 163.71875 229.390625 163.132812 230.269531 C 162.945312 230.5625 162.945312 230.5625 162.75 230.855469 C 162.441406 231.308594 162.117188 231.75 161.785156 232.183594 C 161.265625 233.101562 161.207031 233.625 161.378906 234.664062 C 161.941406 235.351562 161.941406 235.351562 162.632812 235.917969 C 162.792969 236.183594 162.792969 236.183594 162.953125 236.453125 C 163.363281 237 163.363281 237 164.117188 237.019531 C 164.390625 237.007812 164.660156 236.996094 164.9375 236.984375 C 165.210938 236.976562 165.484375 236.964844 165.765625 236.957031 C 165.972656 236.945312 166.183594 236.933594 166.398438 236.921875 C 166.417969 237.0625 166.441406 237.203125 166.460938 237.347656 C 166.707031 238.109375 167.117188 238.554688 167.636719 239.164062 C 167.9375 239.527344 167.9375 239.527344 168.246094 239.898438 C 168.40625 240.089844 168.40625 240.089844 168.570312 240.285156 C 169.152344 240.976562 169.722656 241.675781 170.289062 242.378906 C 170.394531 242.511719 170.503906 242.640625 170.617188 242.773438 C 171.371094 243.726562 171.621094 244.496094 171.667969 245.707031 C 171.292969 246.332031 171.292969 246.332031 170.664062 246.710938 C 169.796875 246.757812 169.222656 246.679688 168.5 246.171875 C 164.875 242.746094 160.628906 237.257812 160.375 232.152344 C 160.125 232.429688 159.882812 232.707031 159.636719 232.984375 C 159.429688 233.214844 159.429688 233.214844 159.222656 233.453125 C 158.375 234.550781 158.5 235.855469 158.617188 237.171875 C 159.222656 240.566406 160.742188 243.398438 162.429688 246.363281 C 162.636719 246.730469 162.636719 246.730469 162.84375 247.105469 C 163.117188 247.585938 163.390625 248.0625 163.671875 248.539062 C 164.460938 249.933594 164.847656 250.875 164.640625 252.484375 C 164.125 253.09375 163.820312 253.210938 163.035156 253.3125 C 161.945312 253.183594 161.542969 252.449219 160.871094 251.640625 C 160.09375 250.601562 159.472656 249.507812 158.867188 248.355469 C 158.742188 248.117188 158.613281 247.878906 158.480469 247.628906 C 153.476562 238.121094 153.476562 238.121094 154.839844 233.324219 C 155.953125 230.484375 157.511719 229.207031 160.195312 227.84375 C 161.121094 227.558594 162.007812 227.582031 162.960938 227.605469 Z M 162.960938 227.605469 "/>
    <path id="eyes" style= {{stroke:'none',fillRule:'nonzero',fill:'rgb(0.784314%,0.392157%,0.392157%)',fillOpacity:'1',}} d="M 282.882812 220.867188 C 284.777344 221.910156 285.925781 223.601562 286.617188 225.628906 C 286.960938 227.921875 286.429688 229.757812 285.109375 231.652344 C 284.496094 232.28125 283.867188 232.730469 283.101562 233.15625 C 282.691406 233.390625 282.691406 233.390625 282.269531 233.628906 C 279.871094 234.359375 277.941406 233.867188 275.792969 232.75 C 274.636719 231.796875 273.789062 230.566406 273.3125 229.140625 C 273.011719 224.667969 273.011719 224.667969 274.316406 223.117188 C 276.675781 220.664062 279.566406 219.777344 282.882812 220.867188 Z M 282.882812 220.867188 "/>
    <path style= {{stroke:'none',fillRule:'nonzero',fill:'rgb(83.137256%,50.196081%,42.745098%)',fillOpacity:'1',}} d="M 265.53125 288.625 C 266.003906 288.90625 266.003906 288.90625 266.285156 289.375 C 266.429688 290.304688 266.394531 290.726562 265.851562 291.507812 C 264.902344 292.554688 263.734375 293.183594 262.523438 293.894531 C 262.101562 294.140625 262.101562 294.140625 261.671875 294.390625 C 257.789062 296.59375 253.558594 297.925781 249.21875 298.914062 C 249.039062 298.953125 248.859375 298.996094 248.671875 299.039062 C 245.105469 299.832031 240.617188 300.449219 237.171875 298.914062 C 236.449219 298.304688 236.199219 298.085938 236.042969 297.140625 C 236.167969 296.402344 236.167969 296.402344 236.5625 295.917969 C 237.546875 295.488281 238.414062 295.761719 239.425781 296.035156 C 246.765625 297.734375 255.890625 293.703125 262.007812 289.957031 C 262.464844 289.664062 262.898438 289.351562 263.335938 289.03125 C 264.152344 288.550781 264.601562 288.476562 265.53125 288.625 Z M 265.53125 288.625 "/>
    <path style={{ stroke:'none',fillRule:'nonzero',fill:'rgb(83.92157%,51.372552%,42.352942%)',fillOpacity:'1'}} d="M 247.894531 222.789062 C 248.449219 222.820312 249.003906 222.847656 249.558594 222.875 C 255.105469 223.167969 255.105469 223.167969 257.25 224.625 C 258.546875 226.304688 258.359375 228.382812 258.253906 230.394531 C 258.097656 230.316406 257.9375 230.238281 257.773438 230.15625 C 254.21875 228.457031 250.828125 227.84375 246.914062 227.839844 C 246.480469 227.835938 246.480469 227.835938 246.035156 227.832031 C 243.421875 227.824219 240.976562 228.003906 238.613281 229.191406 C 238.175781 229.390625 238.175781 229.390625 237.675781 229.390625 C 237.542969 225.878906 237.542969 225.878906 238.175781 224.625 C 238.871094 224 239.621094 223.5625 240.433594 223.117188 C 242.320312 221.863281 245.664062 222.664062 247.894531 222.789062 Z M 247.894531 222.789062 "/>
    <path style={{stroke:'none',fillRule:'nonzero',fill:'rgb(0.784314%,0.392157%,0.392157%)',fillOpacity:'1',}} d="M 320.496094 270.050781 C 320.347656 271.035156 320.046875 271.757812 319.558594 272.625 C 319.417969 272.878906 319.273438 273.132812 319.128906 273.390625 C 318.972656 273.660156 318.820312 273.929688 318.660156 274.207031 C 318.503906 274.488281 318.34375 274.765625 318.183594 275.054688 C 316.015625 278.855469 313.808594 282.605469 311.269531 286.171875 C 310.972656 286.601562 310.691406 287.035156 310.410156 287.476562 C 309.222656 289.296875 309.222656 289.296875 308.382812 289.542969 C 307.824219 289.546875 307.824219 289.546875 306.945312 289.375 C 306.753906 287.394531 307.4375 285.859375 308.167969 284.042969 C 308.421875 283.394531 308.675781 282.746094 308.925781 282.101562 C 308.992188 281.933594 309.054688 281.769531 309.121094 281.601562 C 309.929688 279.53125 310.660156 277.441406 311.394531 275.347656 C 311.878906 273.976562 312.371094 272.628906 312.96875 271.304688 C 313.164062 271.300781 313.355469 271.292969 313.558594 271.285156 C 315.480469 271.183594 317.183594 270.839844 319.015625 270.261719 C 319.742188 270.050781 319.742188 270.050781 320.496094 270.050781 Z M 320.496094 270.050781 "/>
    <path style={{
    stroke:'none',fillRule:'nonzero',fill:'rgb(84.705883%,52.156866%,43.137255%)',fillOpacity:'1',
    }}  d="M 247.398438 213.738281 C 247.691406 213.730469 247.980469 213.726562 248.277344 213.71875 C 250.050781 213.714844 251.238281 213.855469 252.734375 214.835938 C 254.238281 216.523438 254.992188 219.136719 254.992188 221.359375 C 251.800781 221.4375 248.625 221.300781 245.4375 221.125 C 245.234375 221.113281 245.027344 221.105469 244.816406 221.09375 C 244.226562 221.0625 243.636719 221.027344 243.046875 220.992188 C 242.867188 220.984375 242.6875 220.972656 242.5 220.964844 C 241.246094 220.886719 241.246094 220.886719 240.6875 220.609375 C 240.84375 218.183594 241.449219 216.082031 243.195312 214.335938 C 244.464844 213.53125 245.949219 213.738281 247.398438 213.738281 Z M 247.398438 213.738281 "/>
    <path style={{stroke:'none',fillRule:'nonzero',fill:'rgb(10.980392%,11.372549%,11.372549%)',fillOpacity:'1',}} d="M 303.179688 217.09375 C 307.105469 216.847656 310.191406 217.722656 313.21875 220.359375 C 315.15625 222.113281 316.703125 224.515625 316.84375 227.167969 C 316.859375 228.332031 316.808594 229.484375 316.734375 230.648438 C 316.648438 230.648438 316.566406 230.648438 316.480469 230.648438 C 316.480469 230.066406 316.480469 229.488281 316.480469 228.890625 C 316.339844 228.847656 316.203125 228.804688 316.058594 228.761719 C 314.710938 228.332031 313.472656 227.816406 312.230469 227.148438 C 312.050781 227.054688 311.871094 226.957031 311.683594 226.855469 C 308.085938 224.890625 304.550781 222.546875 301.671875 219.605469 C 302.503906 219.605469 303.332031 219.605469 304.183594 219.605469 C 303.945312 218.660156 303.746094 218.332031 303.179688 217.597656 C 303.179688 217.429688 303.179688 217.265625 303.179688 217.09375 Z M 303.179688 217.09375 "/>
    <path style={{
    stroke:'none',fillRule:'nonzero',fill:'rgb(10.588235%,10.980392%,11.372549%)',fillOpacity:'1',
    }}  d="M 172.921875 269.296875 C 173.898438 269.457031 174.71875 269.757812 175.621094 270.160156 C 177.804688 271.085938 179.851562 271.390625 182.210938 271.554688 C 182.703125 272.839844 183.152344 274.128906 183.578125 275.4375 C 184.636719 279.578125 184.636719 279.578125 186.976562 282.851562 C 186.894531 283.183594 186.8125 283.511719 186.726562 283.855469 C 185.503906 283.746094 184.8125 283.140625 183.933594 282.347656 C 183.644531 282.09375 183.355469 281.839844 183.0625 281.585938 C 182.917969 281.460938 182.773438 281.332031 182.625 281.203125 C 182.035156 280.695312 181.425781 280.210938 180.8125 279.730469 C 178.152344 277.550781 175.925781 275.101562 173.925781 272.308594 C 173.78125 272.105469 173.632812 271.902344 173.484375 271.691406 C 172.644531 270.453125 172.644531 270.453125 172.769531 269.746094 C 172.820312 269.597656 172.871094 269.449219 172.921875 269.296875 Z M 172.921875 269.296875 "/>
    <path style={{
    stroke:'none',fillRule:'nonzero',fill:'rgb(79.607844%,44.705883%,36.470589%)',fillOpacity:'1',
    }}  d="M 175.433594 231.652344 C 176.210938 233.988281 175.964844 236.738281 175.933594 239.179688 C 175.433594 238.429688 175.433594 238.429688 175.433594 237.925781 C 175.300781 237.867188 175.171875 237.808594 175.035156 237.746094 C 174.226562 237.316406 173.484375 236.789062 172.734375 236.261719 C 172.582031 236.15625 172.433594 236.050781 172.277344 235.945312 C 171.90625 235.683594 171.535156 235.425781 171.164062 235.164062 C 172.152344 234.371094 173.152344 233.597656 174.15625 232.828125 C 174.613281 232.457031 175.027344 232.078125 175.433594 231.652344 Z M 175.433594 231.652344 "/>
    <path style={{stroke:'none',fillRule:'nonzero',fill:'rgb(90.196079%,72.549021%,60.784316%)',fillOpacity:'1'}} d="M 255.746094 224.121094 C 256.90625 224.265625 256.90625 224.265625 257.332031 224.753906 C 257.410156 224.910156 257.484375 225.0625 257.566406 225.21875 C 257.644531 225.371094 257.722656 225.523438 257.804688 225.679688 C 258.265625 226.71875 258.28125 227.558594 258.269531 228.6875 C 258.269531 229.007812 258.265625 229.324219 258.265625 229.65625 C 258.261719 229.898438 258.257812 230.144531 258.253906 230.398438 C 256.460938 229.800781 256.460938 229.800781 256.003906 228.929688 C 255.621094 227.363281 255.695312 225.722656 255.746094 224.121094 Z M 255.746094 224.121094 "/>
    <path style={{
    stroke:'none',fillRule:'nonzero',fill:'rgb(70.980394%,45.490196%,38.431373%)',fillOpacity:'1'
    }}  d="M 268.292969 177.941406 C 266.070312 178.757812 263.855469 178.925781 261.515625 179.121094 C 260.988281 179.175781 260.464844 179.242188 259.941406 179.320312 C 256.238281 179.855469 252.507812 179.765625 248.773438 179.75 C 248.03125 179.746094 247.285156 179.746094 246.542969 179.746094 C 239.253906 179.746094 239.253906 179.746094 235.667969 179.449219 C 235.667969 179.367188 235.667969 179.28125 235.667969 179.195312 C 235.957031 179.199219 235.957031 179.199219 236.25 179.199219 C 238.105469 179.203125 239.957031 179.207031 241.808594 179.210938 C 242.757812 179.210938 243.710938 179.214844 244.660156 179.214844 C 254.050781 179.289062 254.050781 179.289062 263.367188 178.289062 C 263.921875 178.195312 264.476562 178.105469 265.03125 178.015625 C 265.519531 177.9375 266.007812 177.855469 266.496094 177.773438 C 267.203125 177.699219 267.632812 177.707031 268.292969 177.941406 Z M 268.292969 177.941406 "/>
    <path style={{stroke:'none',fillRule:'nonzero',fill:'rgb(90.196079%,72.549021%,60.392159%)',fillOpacity:'1'}} d="M 239.933594 223.871094 C 239.875 224.542969 239.816406 225.214844 239.75 225.886719 C 239.710938 226.335938 239.675781 226.785156 239.652344 227.234375 C 239.621094 227.761719 239.621094 227.761719 239.429688 228.640625 C 238.820312 229.140625 238.46875 229.390625 237.675781 229.390625 C 237.613281 227.773438 237.597656 226.160156 238.175781 224.625 C 238.808594 223.953125 239.007812 223.871094 239.933594 223.871094 Z M 239.933594 223.871094 "/>
    <path style={{stroke:'none',fillRule:'nonzero',fill:'rgb(59.607846%,39.215687%,32.549021%)',fillOpacity:'1'}} d="M 268.292969 177.941406 C 266.023438 178.773438 263.746094 178.941406 261.355469 179.132812 C 260.742188 179.191406 260.742188 179.191406 260.042969 179.328125 C 259.207031 179.457031 258.421875 179.476562 257.574219 179.472656 C 257.261719 179.472656 256.949219 179.472656 256.628906 179.46875 C 256.304688 179.46875 255.984375 179.464844 255.652344 179.464844 C 255.324219 179.460938 254.996094 179.460938 254.65625 179.460938 C 253.847656 179.457031 253.039062 179.453125 252.230469 179.449219 C 252.230469 179.367188 252.230469 179.28125 252.230469 179.195312 C 252.460938 179.195312 252.460938 179.195312 252.695312 179.195312 C 256.699219 179.148438 260.550781 178.75 264.496094 178.101562 C 264.765625 178.058594 264.765625 178.058594 265.039062 178.015625 C 265.523438 177.9375 266.011719 177.855469 266.496094 177.773438 C 267.203125 177.699219 267.632812 177.707031 268.292969 177.941406 Z M 268.292969 177.941406 "/>
    <path style={{stroke:'none',fillRule:'nonzero',fill:'rgb(76.862746%,43.529412%,35.686275%)',fillOpacity:'1'}} d="M 319.242188 235.667969 C 319.492188 235.792969 319.492188 235.792969 319.742188 235.917969 C 320.171875 235.976562 320.601562 236.019531 321.03125 236.058594 C 321.257812 236.082031 321.488281 236.101562 321.722656 236.121094 C 321.898438 236.136719 322.074219 236.152344 322.253906 236.167969 C 321 237.421875 321 237.421875 320.449219 237.957031 C 319.949219 238.445312 319.949219 238.445312 319.492188 239.179688 C 319.410156 238.019531 319.328125 236.863281 319.242188 235.667969 Z M 319.242188 235.667969 "/>
    <path style={{stroke:'none',fillRule:'nonzero',fill:'rgb(15.294118%,14.509805%,14.117648%)',fillOpacity:'1'}} d="M 184.71875 218.097656 C 184.882812 218.179688 185.050781 218.265625 185.21875 218.351562 C 184.8125 218.726562 184.40625 219.105469 183.996094 219.480469 C 183.65625 219.792969 183.65625 219.792969 183.308594 220.113281 C 182.710938 220.609375 182.710938 220.609375 182.210938 220.609375 C 182.566406 219.742188 182.988281 219.328125 183.746094 218.789062 C 183.929688 218.65625 184.109375 218.527344 184.296875 218.394531 C 184.4375 218.296875 184.574219 218.199219 184.71875 218.097656 Z M 184.71875 218.097656 "/>
    <path style={{
    stroke:'none',fillRule:'nonzero',fill:'rgb(78.431374%,55.686277%,46.666667%)',fillOpacity:'1',
    }}  d="M 270.050781 177.691406 C 270.132812 178.023438 270.214844 178.355469 270.300781 178.695312 C 269.722656 178.695312 269.140625 178.695312 268.546875 178.695312 C 268.546875 178.53125 268.546875 178.363281 268.546875 178.195312 C 268.214844 178.109375 267.882812 178.027344 267.539062 177.941406 C 268.488281 177.480469 269.035156 177.402344 270.050781 177.691406 Z M 270.050781 177.691406 "/>
    <path style={{stroke:'none',fillRule:'nonzero',fill:'rgb(66.666669%,41.568628%,33.333334%)',fillOpacity:'1'}} d="M 328.277344 226.882812 C 328.523438 227.648438 328.523438 228.125 328.277344 228.890625 C 328.027344 228.890625 327.78125 228.890625 327.523438 228.890625 C 327.996094 227.449219 327.996094 227.449219 328.277344 226.882812 Z M 328.277344 226.882812 "/>
    </g>
    </svg>