<?xml version="1.0" encoding="UTF-8"?>
<svg xmlns="http://www.w3.org/2000/svg" xmlns:xlink="http://www.w3.org/1999/xlink" width="56px" height="56px" viewBox="0 0 56 56" version="1.1">
<g id="surface1">
<path style=" stroke:none;fill-rule:nonzero;fill:rgb(99.607843%,87.058824%,0%);fill-opacity:1;" d="M 0 0 C 18.480469 0 36.960938 0 56 0 C 56 18.480469 56 36.960938 56 56 C 37.519531 56 19.039062 56 0 56 C 0 37.519531 0 19.039062 0 0 Z M 0 0 "/>
<path style=" stroke:none;fill-rule:nonzero;fill:rgb(0.392157%,0.392157%,0%);fill-opacity:1;" d="M 47.78125 26.832031 C 47.9375 26.960938 48.085938 27.097656 48.234375 27.234375 C 48.324219 27.316406 48.414062 27.398438 48.507812 27.484375 C 49.160156 28.101562 49.648438 28.753906 50.09375 29.53125 C 49.769531 29.875 49.4375 30.125 49.039062 30.378906 C 48.917969 30.453125 48.800781 30.53125 48.679688 30.609375 C 48.554688 30.6875 48.429688 30.765625 48.304688 30.84375 C 48.179688 30.921875 48.054688 31 47.929688 31.078125 C 47.699219 31.226562 47.46875 31.371094 47.242188 31.515625 C 47.011719 31.660156 46.789062 31.808594 46.566406 31.964844 C 46.265625 32.15625 46.265625 32.15625 46.027344 32.15625 C 45.769531 32.015625 45.644531 31.855469 45.472656 31.617188 C 45.386719 31.5 45.386719 31.5 45.300781 31.378906 C 45.171875 31.171875 45.171875 31.171875 45.171875 30.953125 C 45.109375 30.921875 45.046875 30.890625 44.984375 30.859375 C 44.648438 30.691406 44.328125 30.5 44.003906 30.308594 C 43.324219 29.980469 42.449219 29.960938 41.726562 30.148438 C 41.128906 30.386719 40.695312 30.730469 40.359375 31.28125 C 40.136719 31.945312 40.132812 32.753906 40.421875 33.394531 C 41.214844 34.730469 43.023438 35.25 44.371094 35.847656 C 47.878906 37.398438 47.878906 37.398438 49.21875 38.609375 C 49.3125 38.691406 49.402344 38.769531 49.496094 38.851562 C 50.914062 40.167969 51.570312 41.785156 51.652344 43.691406 C 51.695312 45.613281 51.355469 47.425781 50.058594 48.925781 C 48.1875 50.871094 45.734375 51.597656 43.085938 51.65625 C 41.953125 51.667969 40.910156 51.574219 39.8125 51.296875 C 39.691406 51.269531 39.574219 51.238281 39.449219 51.207031 C 37.984375 50.804688 36.6875 50.113281 35.546875 49.109375 C 35.414062 49.011719 35.414062 49.011719 35.28125 48.910156 C 34.933594 48.617188 34.667969 48.289062 34.390625 47.925781 C 34.316406 47.828125 34.316406 47.828125 34.234375 47.730469 C 33.359375 46.605469 33.359375 46.605469 33.359375 46.15625 C 33.773438 45.917969 34.1875 45.683594 34.601562 45.445312 C 34.742188 45.363281 34.882812 45.285156 35.023438 45.203125 C 35.886719 44.710938 36.75 44.222656 37.625 43.75 C 37.695312 43.84375 37.761719 43.9375 37.832031 44.035156 C 38.765625 45.289062 39.859375 46.503906 41.488281 46.785156 C 42.917969 46.917969 44.128906 46.824219 45.445312 46.191406 C 46.023438 45.65625 46.296875 45.09375 46.339844 44.304688 C 46.304688 43.589844 46.085938 43.082031 45.609375 42.546875 C 44.4375 41.546875 42.769531 40.980469 41.367188 40.386719 C 39.199219 39.464844 37.148438 38.378906 35.875 36.3125 C 35.824219 36.226562 35.769531 36.144531 35.714844 36.054688 C 34.757812 34.332031 34.621094 32.242188 35.128906 30.359375 C 35.667969 28.550781 36.886719 27.171875 38.53125 26.273438 C 41.347656 24.914062 45.195312 24.914062 47.78125 26.832031 Z M 47.78125 26.832031 "/>
<path style=" stroke:none;fill-rule:nonzero;fill:rgb(0.392157%,0.392157%,0%);fill-opacity:1;" d="M 25.265625 25.703125 C 27 25.703125 28.730469 25.703125 30.515625 25.703125 C 30.527344 28.171875 30.539062 30.644531 30.542969 33.113281 C 30.546875 34.261719 30.550781 35.40625 30.558594 36.554688 C 30.5625 37.554688 30.566406 38.558594 30.566406 39.558594 C 30.566406 40.085938 30.570312 40.617188 30.574219 41.144531 C 30.617188 47.15625 30.617188 47.15625 28.613281 49.480469 C 27.015625 51.078125 24.789062 51.644531 22.585938 51.664062 C 21.136719 51.652344 19.792969 51.402344 18.484375 50.75 C 18.378906 50.699219 18.269531 50.648438 18.160156 50.59375 C 16.675781 49.808594 15.539062 48.511719 14.765625 47.03125 C 14.765625 46.921875 14.765625 46.816406 14.765625 46.703125 C 15.019531 46.515625 15.019531 46.515625 15.375 46.3125 C 15.4375 46.273438 15.5 46.238281 15.5625 46.199219 C 15.765625 46.082031 15.96875 45.964844 16.171875 45.847656 C 16.308594 45.773438 16.441406 45.695312 16.574219 45.617188 C 16.769531 45.503906 16.964844 45.390625 17.160156 45.277344 C 17.644531 44.996094 18.121094 44.707031 18.59375 44.410156 C 18.8125 44.296875 18.8125 44.296875 19.140625 44.296875 C 19.308594 44.535156 19.457031 44.769531 19.605469 45.023438 C 20.066406 45.769531 20.550781 46.4375 21.40625 46.761719 C 22.363281 46.960938 23.328125 46.929688 24.175781 46.425781 C 24.800781 45.957031 25.007812 45.253906 25.15625 44.515625 C 25.203125 43.898438 25.203125 43.285156 25.203125 42.664062 C 25.203125 42.480469 25.207031 42.292969 25.207031 42.109375 C 25.210938 41.605469 25.210938 41.105469 25.210938 40.605469 C 25.210938 40.082031 25.214844 39.558594 25.21875 39.03125 C 25.222656 38.042969 25.226562 37.050781 25.230469 36.058594 C 25.230469 34.929688 25.238281 33.800781 25.242188 32.667969 C 25.25 30.347656 25.257812 28.023438 25.265625 25.703125 Z M 25.265625 25.703125 "/>
</g>
</svg>
