<?xml version="1.0" encoding="UTF-8"?>
<svg xmlns="http://www.w3.org/2000/svg" xmlns:xlink="http://www.w3.org/1999/xlink" width="56px" height="56px" viewBox="0 0 56 56" version="1.1">
<g id="surface1">
<path style=" stroke:none;fill-rule:nonzero;fill:rgb(99.607843%,92.156863%,4.705882%);fill-opacity:1;" d="M 26.25 -0.0117188 C 26.390625 -0.0117188 26.53125 -0.0117188 26.671875 -0.0117188 C 26.964844 -0.0117188 27.261719 -0.0117188 27.554688 -0.0117188 C 27.925781 -0.0117188 28.296875 -0.0117188 28.667969 -0.0117188 C 28.960938 -0.0117188 29.25 -0.0117188 29.539062 -0.0117188 C 29.675781 -0.0117188 29.816406 -0.0117188 29.953125 -0.0117188 C 30.855469 -0.015625 31.765625 -0.0078125 32.667969 0.09375 C 32.699219 0.125 32.726562 0.15625 32.761719 0.1875 C 32.917969 0.207031 33.074219 0.226562 33.234375 0.238281 C 33.316406 0.246094 33.402344 0.253906 33.492188 0.261719 C 33.558594 0.269531 33.625 0.273438 33.691406 0.28125 C 33.691406 0.339844 33.691406 0.402344 33.691406 0.464844 C 33.78125 0.464844 33.78125 0.464844 33.875 0.464844 C 33.949219 0.460938 34.027344 0.460938 34.109375 0.460938 C 34.183594 0.460938 34.261719 0.457031 34.339844 0.457031 C 34.535156 0.464844 34.535156 0.464844 34.625 0.558594 C 34.753906 0.582031 34.878906 0.597656 35.003906 0.613281 C 35.128906 0.625 35.25 0.640625 35.375 0.652344 C 35.375 0.714844 35.375 0.777344 35.375 0.839844 C 35.558594 0.839844 35.742188 0.839844 35.933594 0.839844 C 35.933594 0.902344 35.933594 0.964844 35.933594 1.027344 C 36.027344 1.023438 36.121094 1.019531 36.21875 1.015625 C 36.605469 1.027344 36.878906 1.09375 37.238281 1.214844 C 37.238281 1.273438 37.238281 1.335938 37.238281 1.398438 C 37.339844 1.394531 37.339844 1.394531 37.445312 1.386719 C 37.726562 1.402344 37.917969 1.46875 38.171875 1.585938 C 38.171875 1.648438 38.171875 1.710938 38.171875 1.773438 C 38.242188 1.769531 38.308594 1.765625 38.378906 1.761719 C 38.660156 1.773438 38.851562 1.84375 39.105469 1.960938 C 39.105469 2.023438 39.105469 2.082031 39.105469 2.148438 C 39.230469 2.148438 39.351562 2.148438 39.480469 2.148438 C 39.480469 2.207031 39.480469 2.269531 39.480469 2.332031 C 39.546875 2.328125 39.613281 2.324219 39.683594 2.320312 C 39.964844 2.335938 40.160156 2.402344 40.414062 2.519531 C 40.414062 2.582031 40.414062 2.644531 40.414062 2.707031 C 40.535156 2.707031 40.660156 2.707031 40.785156 2.707031 C 40.785156 2.769531 40.785156 2.828125 40.785156 2.894531 C 40.839844 2.902344 40.890625 2.914062 40.941406 2.925781 C 41.199219 2.996094 41.414062 3.105469 41.648438 3.226562 C 41.734375 3.269531 41.816406 3.3125 41.902344 3.355469 C 41.996094 3.402344 41.996094 3.402344 42.09375 3.453125 C 42.09375 3.515625 42.09375 3.578125 42.09375 3.640625 C 42.214844 3.640625 42.339844 3.640625 42.464844 3.640625 C 42.464844 3.703125 42.464844 3.761719 42.464844 3.828125 C 42.523438 3.839844 42.582031 3.855469 42.640625 3.867188 C 42.839844 3.921875 42.839844 3.921875 43.027344 4.011719 C 43.027344 4.074219 43.027344 4.136719 43.027344 4.199219 C 43.148438 4.199219 43.273438 4.199219 43.398438 4.199219 C 43.398438 4.261719 43.398438 4.324219 43.398438 4.386719 C 43.460938 4.386719 43.523438 4.386719 43.585938 4.386719 C 43.585938 4.449219 43.585938 4.511719 43.585938 4.574219 C 43.710938 4.574219 43.832031 4.574219 43.960938 4.574219 C 43.960938 4.636719 43.960938 4.695312 43.960938 4.761719 C 44.023438 4.761719 44.082031 4.761719 44.148438 4.761719 C 44.148438 4.820312 44.148438 4.882812 44.148438 4.945312 C 44.203125 4.960938 44.261719 4.972656 44.320312 4.988281 C 44.519531 5.039062 44.519531 5.039062 44.707031 5.132812 C 44.707031 5.195312 44.707031 5.257812 44.707031 5.320312 C 44.769531 5.320312 44.828125 5.320312 44.894531 5.320312 C 44.894531 5.382812 44.894531 5.441406 44.894531 5.507812 C 45.015625 5.507812 45.140625 5.507812 45.265625 5.507812 C 45.265625 5.566406 45.265625 5.628906 45.265625 5.691406 C 45.328125 5.691406 45.390625 5.691406 45.453125 5.691406 C 45.453125 5.753906 45.453125 5.816406 45.453125 5.878906 C 45.515625 5.878906 45.578125 5.878906 45.640625 5.878906 C 45.640625 5.941406 45.640625 6.003906 45.640625 6.066406 C 45.824219 6.128906 46.007812 6.191406 46.199219 6.253906 C 46.199219 6.316406 46.199219 6.375 46.199219 6.441406 C 46.261719 6.441406 46.324219 6.441406 46.386719 6.441406 C 46.386719 6.5 46.386719 6.5625 46.386719 6.625 C 46.449219 6.625 46.511719 6.625 46.574219 6.625 C 46.574219 6.6875 46.574219 6.75 46.574219 6.8125 C 46.636719 6.8125 46.695312 6.8125 46.761719 6.8125 C 46.761719 6.875 46.761719 6.9375 46.761719 7 C 46.820312 7 46.882812 7 46.945312 7 C 46.945312 7.0625 46.945312 7.125 46.945312 7.1875 C 47.007812 7.1875 47.070312 7.1875 47.132812 7.1875 C 47.132812 7.25 47.132812 7.308594 47.132812 7.375 C 47.195312 7.375 47.257812 7.375 47.320312 7.375 C 47.320312 7.433594 47.320312 7.496094 47.320312 7.558594 C 47.371094 7.582031 47.425781 7.601562 47.476562 7.625 C 47.753906 7.78125 47.941406 7.984375 48.160156 8.214844 C 48.214844 8.265625 48.273438 8.316406 48.328125 8.371094 C 48.441406 8.492188 48.441406 8.492188 48.441406 8.679688 C 48.5 8.679688 48.5625 8.679688 48.625 8.679688 C 48.625 8.742188 48.625 8.804688 48.625 8.867188 C 48.6875 8.867188 48.75 8.867188 48.8125 8.867188 C 48.8125 8.929688 48.8125 8.988281 48.8125 9.054688 C 48.875 9.054688 48.9375 9.054688 49 9.054688 C 49 9.113281 49 9.175781 49 9.238281 C 49.0625 9.238281 49.125 9.238281 49.1875 9.238281 C 49.1875 9.300781 49.1875 9.363281 49.1875 9.425781 C 49.25 9.425781 49.308594 9.425781 49.375 9.425781 C 49.375 9.488281 49.375 9.550781 49.375 9.613281 C 49.433594 9.613281 49.496094 9.613281 49.558594 9.613281 C 49.558594 9.675781 49.558594 9.738281 49.558594 9.800781 C 49.621094 9.800781 49.683594 9.800781 49.746094 9.800781 C 49.808594 9.984375 49.871094 10.167969 49.933594 10.359375 C 49.996094 10.359375 50.054688 10.359375 50.121094 10.359375 C 50.121094 10.421875 50.121094 10.484375 50.121094 10.546875 C 50.179688 10.546875 50.242188 10.546875 50.308594 10.546875 C 50.492188 10.828125 50.492188 10.828125 50.492188 11.105469 C 50.554688 11.105469 50.617188 11.105469 50.679688 11.105469 C 50.679688 11.167969 50.679688 11.230469 50.679688 11.292969 C 50.742188 11.292969 50.804688 11.292969 50.867188 11.292969 C 51.054688 11.574219 51.054688 11.574219 51.054688 11.851562 C 51.113281 11.851562 51.175781 11.851562 51.238281 11.851562 C 51.238281 11.914062 51.238281 11.976562 51.238281 12.039062 C 51.300781 12.039062 51.363281 12.039062 51.425781 12.039062 C 51.425781 12.164062 51.425781 12.285156 51.425781 12.414062 C 51.488281 12.414062 51.550781 12.414062 51.613281 12.414062 C 51.613281 12.476562 51.613281 12.535156 51.613281 12.601562 C 51.675781 12.601562 51.738281 12.601562 51.800781 12.601562 C 51.800781 12.722656 51.800781 12.847656 51.800781 12.972656 C 51.863281 12.972656 51.921875 12.972656 51.988281 12.972656 C 52.171875 13.253906 52.171875 13.253906 52.171875 13.535156 C 52.234375 13.535156 52.296875 13.535156 52.359375 13.535156 C 52.359375 13.65625 52.359375 13.78125 52.359375 13.90625 C 52.421875 13.90625 52.484375 13.90625 52.546875 13.90625 C 52.921875 14.523438 52.921875 14.523438 52.921875 14.839844 C 52.980469 14.839844 53.042969 14.839844 53.105469 14.839844 C 53.105469 14.964844 53.105469 15.085938 53.105469 15.214844 C 53.167969 15.214844 53.230469 15.214844 53.292969 15.214844 C 53.292969 15.335938 53.292969 15.460938 53.292969 15.585938 C 53.355469 15.585938 53.417969 15.585938 53.480469 15.585938 C 53.542969 15.734375 53.605469 15.882812 53.667969 16.03125 C 53.703125 16.113281 53.734375 16.195312 53.773438 16.28125 C 53.851562 16.519531 53.851562 16.519531 53.851562 16.894531 C 53.914062 16.894531 53.976562 16.894531 54.039062 16.894531 C 54.039062 17.015625 54.039062 17.140625 54.039062 17.265625 C 54.101562 17.265625 54.164062 17.265625 54.226562 17.265625 C 54.226562 17.453125 54.226562 17.636719 54.226562 17.828125 C 54.289062 17.828125 54.351562 17.828125 54.414062 17.828125 C 54.429688 17.886719 54.445312 17.945312 54.464844 18.007812 C 54.574219 18.382812 54.679688 18.75 54.851562 19.105469 C 54.988281 19.445312 54.996094 19.703125 54.972656 20.066406 C 55.035156 20.066406 55.097656 20.066406 55.160156 20.066406 C 55.160156 20.25 55.160156 20.4375 55.160156 20.625 C 55.222656 20.625 55.28125 20.625 55.347656 20.625 C 55.347656 20.875 55.347656 21.121094 55.347656 21.375 C 55.410156 21.375 55.46875 21.375 55.535156 21.375 C 55.535156 21.679688 55.535156 21.988281 55.535156 22.308594 C 55.59375 22.308594 55.65625 22.308594 55.71875 22.308594 C 55.726562 22.371094 55.730469 22.4375 55.738281 22.507812 C 55.746094 22.59375 55.753906 22.679688 55.761719 22.765625 C 55.769531 22.851562 55.777344 22.9375 55.785156 23.027344 C 55.789062 23.238281 55.789062 23.238281 55.90625 23.332031 C 56.019531 24.28125 56.015625 25.238281 56.011719 26.191406 C 56.011719 26.335938 56.011719 26.484375 56.011719 26.628906 C 56.011719 26.933594 56.011719 27.234375 56.011719 27.539062 C 56.011719 27.921875 56.011719 28.308594 56.011719 28.691406 C 56.011719 28.992188 56.011719 29.292969 56.011719 29.59375 C 56.011719 29.734375 56.011719 29.875 56.011719 30.015625 C 56.015625 30.902344 56.011719 31.789062 55.90625 32.667969 C 55.875 32.699219 55.84375 32.726562 55.8125 32.761719 C 55.792969 32.917969 55.773438 33.074219 55.761719 33.234375 C 55.753906 33.316406 55.746094 33.402344 55.738281 33.492188 C 55.730469 33.558594 55.726562 33.625 55.71875 33.691406 C 55.660156 33.691406 55.597656 33.691406 55.535156 33.691406 C 55.535156 34 55.535156 34.308594 55.535156 34.625 C 55.472656 34.625 55.410156 34.625 55.347656 34.625 C 55.347656 34.875 55.347656 35.121094 55.347656 35.375 C 55.285156 35.375 55.222656 35.375 55.160156 35.375 C 55.160156 35.558594 55.160156 35.742188 55.160156 35.933594 C 55.097656 35.933594 55.035156 35.933594 54.972656 35.933594 C 54.980469 36.074219 54.980469 36.074219 54.992188 36.21875 C 54.976562 36.554688 54.917969 36.757812 54.773438 37.054688 C 54.617188 37.414062 54.519531 37.796875 54.414062 38.171875 C 54.351562 38.171875 54.289062 38.171875 54.226562 38.171875 C 54.226562 38.359375 54.226562 38.542969 54.226562 38.734375 C 54.164062 38.734375 54.101562 38.734375 54.039062 38.734375 C 54.039062 38.855469 54.039062 38.980469 54.039062 39.105469 C 53.976562 39.105469 53.917969 39.105469 53.851562 39.105469 C 53.839844 39.195312 53.839844 39.195312 53.824219 39.289062 C 53.738281 39.671875 53.609375 40.039062 53.480469 40.414062 C 53.417969 40.414062 53.355469 40.414062 53.292969 40.414062 C 53.292969 40.535156 53.292969 40.660156 53.292969 40.785156 C 53.230469 40.785156 53.171875 40.785156 53.105469 40.785156 C 53.105469 40.910156 53.105469 41.03125 53.105469 41.160156 C 53.046875 41.160156 52.984375 41.160156 52.921875 41.160156 C 52.910156 41.210938 52.902344 41.261719 52.890625 41.3125 C 52.808594 41.589844 52.679688 41.835938 52.546875 42.09375 C 52.484375 42.09375 52.421875 42.09375 52.359375 42.09375 C 52.359375 42.214844 52.359375 42.339844 52.359375 42.464844 C 52.296875 42.464844 52.238281 42.464844 52.171875 42.464844 C 52.160156 42.523438 52.144531 42.582031 52.132812 42.640625 C 52.078125 42.839844 52.078125 42.839844 51.988281 43.027344 C 51.925781 43.027344 51.863281 43.027344 51.800781 43.027344 C 51.800781 43.148438 51.800781 43.273438 51.800781 43.398438 C 51.738281 43.398438 51.675781 43.398438 51.613281 43.398438 C 51.613281 43.460938 51.613281 43.523438 51.613281 43.585938 C 51.550781 43.585938 51.488281 43.585938 51.425781 43.585938 C 51.425781 43.710938 51.425781 43.832031 51.425781 43.960938 C 51.363281 43.960938 51.304688 43.960938 51.238281 43.960938 C 51.238281 44.023438 51.238281 44.082031 51.238281 44.148438 C 51.179688 44.148438 51.117188 44.148438 51.054688 44.148438 C 51.039062 44.203125 51.027344 44.261719 51.011719 44.320312 C 50.960938 44.519531 50.960938 44.519531 50.867188 44.707031 C 50.804688 44.707031 50.742188 44.707031 50.679688 44.707031 C 50.679688 44.769531 50.679688 44.828125 50.679688 44.894531 C 50.617188 44.894531 50.558594 44.894531 50.492188 44.894531 C 50.480469 44.949219 50.464844 45.007812 50.453125 45.066406 C 50.398438 45.265625 50.398438 45.265625 50.308594 45.453125 C 50.246094 45.453125 50.183594 45.453125 50.121094 45.453125 C 50.121094 45.515625 50.121094 45.578125 50.121094 45.640625 C 50.058594 45.640625 49.996094 45.640625 49.933594 45.640625 C 49.871094 45.824219 49.808594 46.007812 49.746094 46.199219 C 49.683594 46.199219 49.625 46.199219 49.558594 46.199219 C 49.558594 46.261719 49.558594 46.324219 49.558594 46.386719 C 49.5 46.386719 49.4375 46.386719 49.375 46.386719 C 49.375 46.449219 49.375 46.511719 49.375 46.574219 C 49.3125 46.574219 49.25 46.574219 49.1875 46.574219 C 49.1875 46.636719 49.1875 46.695312 49.1875 46.761719 C 49.125 46.761719 49.0625 46.761719 49 46.761719 C 49 46.820312 49 46.882812 49 46.945312 C 48.9375 46.945312 48.875 46.945312 48.8125 46.945312 C 48.8125 47.007812 48.8125 47.070312 48.8125 47.132812 C 48.75 47.132812 48.691406 47.132812 48.625 47.132812 C 48.625 47.195312 48.625 47.257812 48.625 47.320312 C 48.566406 47.320312 48.503906 47.320312 48.441406 47.320312 C 48.417969 47.371094 48.398438 47.425781 48.375 47.476562 C 48.164062 47.851562 47.914062 48.117188 47.507812 48.253906 C 47.507812 48.316406 47.507812 48.375 47.507812 48.441406 C 47.445312 48.441406 47.382812 48.441406 47.320312 48.441406 C 47.320312 48.5 47.320312 48.5625 47.320312 48.625 C 47.257812 48.625 47.195312 48.625 47.132812 48.625 C 47.132812 48.6875 47.132812 48.75 47.132812 48.8125 C 47.070312 48.8125 47.011719 48.8125 46.945312 48.8125 C 46.945312 48.875 46.945312 48.9375 46.945312 49 C 46.886719 49 46.824219 49 46.761719 49 C 46.761719 49.0625 46.761719 49.125 46.761719 49.1875 C 46.699219 49.1875 46.636719 49.1875 46.574219 49.1875 C 46.574219 49.25 46.574219 49.308594 46.574219 49.375 C 46.511719 49.375 46.449219 49.375 46.386719 49.375 C 46.386719 49.433594 46.386719 49.496094 46.386719 49.558594 C 46.324219 49.558594 46.261719 49.558594 46.199219 49.558594 C 46.199219 49.621094 46.199219 49.683594 46.199219 49.746094 C 46.015625 49.808594 45.832031 49.871094 45.640625 49.933594 C 45.640625 49.996094 45.640625 50.054688 45.640625 50.121094 C 45.578125 50.121094 45.515625 50.121094 45.453125 50.121094 C 45.453125 50.179688 45.453125 50.242188 45.453125 50.308594 C 45.390625 50.308594 45.332031 50.308594 45.265625 50.308594 C 45.265625 50.367188 45.265625 50.429688 45.265625 50.492188 C 45.144531 50.492188 45.019531 50.492188 44.894531 50.492188 C 44.894531 50.554688 44.894531 50.617188 44.894531 50.679688 C 44.832031 50.679688 44.769531 50.679688 44.707031 50.679688 C 44.707031 50.742188 44.707031 50.804688 44.707031 50.867188 C 44.425781 51.054688 44.425781 51.054688 44.148438 51.054688 C 44.148438 51.113281 44.148438 51.175781 44.148438 51.238281 C 44.085938 51.238281 44.023438 51.238281 43.960938 51.238281 C 43.960938 51.300781 43.960938 51.363281 43.960938 51.425781 C 43.835938 51.425781 43.714844 51.425781 43.585938 51.425781 C 43.585938 51.488281 43.585938 51.550781 43.585938 51.613281 C 43.523438 51.613281 43.464844 51.613281 43.398438 51.613281 C 43.398438 51.675781 43.398438 51.738281 43.398438 51.800781 C 43.277344 51.800781 43.152344 51.800781 43.027344 51.800781 C 43.027344 51.863281 43.027344 51.921875 43.027344 51.988281 C 42.746094 52.171875 42.746094 52.171875 42.464844 52.171875 C 42.464844 52.234375 42.464844 52.296875 42.464844 52.359375 C 42.34375 52.359375 42.21875 52.359375 42.09375 52.359375 C 42.09375 52.421875 42.09375 52.484375 42.09375 52.546875 C 41.476562 52.921875 41.476562 52.921875 41.160156 52.921875 C 41.160156 52.980469 41.160156 53.042969 41.160156 53.105469 C 41.035156 53.105469 40.914062 53.105469 40.785156 53.105469 C 40.785156 53.167969 40.785156 53.230469 40.785156 53.292969 C 40.664062 53.292969 40.539062 53.292969 40.414062 53.292969 C 40.414062 53.355469 40.414062 53.417969 40.414062 53.480469 C 40.085938 53.628906 39.839844 53.6875 39.480469 53.667969 C 39.480469 53.726562 39.480469 53.789062 39.480469 53.851562 C 39.355469 53.851562 39.234375 53.851562 39.105469 53.851562 C 39.105469 53.914062 39.105469 53.976562 39.105469 54.039062 C 38.777344 54.191406 38.535156 54.246094 38.171875 54.226562 C 38.171875 54.289062 38.171875 54.351562 38.171875 54.414062 C 37.847656 54.5625 37.601562 54.621094 37.238281 54.601562 C 37.238281 54.660156 37.238281 54.722656 37.238281 54.785156 C 36.785156 54.933594 36.417969 54.992188 35.933594 54.972656 C 35.933594 55.035156 35.933594 55.097656 35.933594 55.160156 C 35.75 55.160156 35.5625 55.160156 35.375 55.160156 C 35.375 55.222656 35.375 55.28125 35.375 55.347656 C 35.183594 55.367188 34.992188 55.390625 34.800781 55.410156 C 34.625 55.421875 34.625 55.421875 34.535156 55.535156 C 34.390625 55.539062 34.25 55.542969 34.109375 55.539062 C 34.03125 55.539062 33.953125 55.539062 33.875 55.535156 C 33.8125 55.535156 33.753906 55.535156 33.691406 55.535156 C 33.691406 55.59375 33.691406 55.65625 33.691406 55.71875 C 33.628906 55.726562 33.5625 55.730469 33.492188 55.738281 C 33.40625 55.746094 33.320312 55.753906 33.234375 55.761719 C 33.148438 55.769531 33.0625 55.777344 32.972656 55.785156 C 32.761719 55.789062 32.761719 55.789062 32.667969 55.90625 C 31.699219 56.015625 30.722656 56.015625 29.75 56.011719 C 29.609375 56.011719 29.46875 56.011719 29.328125 56.011719 C 29.035156 56.011719 28.738281 56.011719 28.445312 56.011719 C 28.074219 56.011719 27.703125 56.011719 27.332031 56.011719 C 27.039062 56.011719 26.75 56.011719 26.460938 56.011719 C 26.324219 56.011719 26.183594 56.011719 26.046875 56.011719 C 25.144531 56.015625 24.234375 56.007812 23.332031 55.90625 C 23.300781 55.875 23.273438 55.84375 23.238281 55.8125 C 23.082031 55.792969 22.925781 55.773438 22.765625 55.761719 C 22.683594 55.753906 22.597656 55.746094 22.507812 55.738281 C 22.441406 55.730469 22.375 55.726562 22.308594 55.71875 C 22.308594 55.660156 22.308594 55.597656 22.308594 55.535156 C 22.246094 55.535156 22.1875 55.535156 22.125 55.535156 C 22.011719 55.539062 22.011719 55.539062 21.890625 55.539062 C 21.816406 55.539062 21.738281 55.542969 21.660156 55.542969 C 21.464844 55.535156 21.464844 55.535156 21.375 55.441406 C 21.246094 55.417969 21.121094 55.402344 20.996094 55.386719 C 20.871094 55.375 20.75 55.359375 20.625 55.347656 C 20.625 55.285156 20.625 55.222656 20.625 55.160156 C 20.441406 55.160156 20.257812 55.160156 20.066406 55.160156 C 20.066406 55.097656 20.066406 55.035156 20.066406 54.972656 C 19.925781 54.980469 19.925781 54.980469 19.78125 54.984375 C 19.394531 54.972656 19.121094 54.90625 18.761719 54.785156 C 18.761719 54.726562 18.761719 54.664062 18.761719 54.601562 C 18.691406 54.605469 18.625 54.609375 18.554688 54.613281 C 18.273438 54.597656 18.082031 54.53125 17.828125 54.414062 C 17.828125 54.351562 17.828125 54.289062 17.828125 54.226562 C 17.757812 54.230469 17.691406 54.234375 17.621094 54.238281 C 17.339844 54.226562 17.148438 54.15625 16.894531 54.039062 C 16.894531 53.976562 16.894531 53.917969 16.894531 53.851562 C 16.769531 53.851562 16.648438 53.851562 16.519531 53.851562 C 16.519531 53.792969 16.519531 53.730469 16.519531 53.667969 C 16.453125 53.671875 16.386719 53.675781 16.316406 53.679688 C 16.035156 53.664062 15.839844 53.597656 15.585938 53.480469 C 15.585938 53.417969 15.585938 53.355469 15.585938 53.292969 C 15.464844 53.292969 15.339844 53.292969 15.214844 53.292969 C 15.214844 53.230469 15.214844 53.171875 15.214844 53.105469 C 15.089844 53.105469 14.96875 53.105469 14.839844 53.105469 C 14.839844 53.046875 14.839844 52.984375 14.839844 52.921875 C 14.789062 52.910156 14.738281 52.902344 14.6875 52.890625 C 14.410156 52.808594 14.164062 52.679688 13.90625 52.546875 C 13.90625 52.484375 13.90625 52.421875 13.90625 52.359375 C 13.785156 52.359375 13.660156 52.359375 13.535156 52.359375 C 13.535156 52.296875 13.535156 52.238281 13.535156 52.171875 C 13.476562 52.160156 13.417969 52.144531 13.359375 52.132812 C 13.160156 52.078125 13.160156 52.078125 12.972656 51.988281 C 12.972656 51.925781 12.972656 51.863281 12.972656 51.800781 C 12.851562 51.800781 12.726562 51.800781 12.601562 51.800781 C 12.601562 51.738281 12.601562 51.675781 12.601562 51.613281 C 12.539062 51.613281 12.476562 51.613281 12.414062 51.613281 C 12.414062 51.550781 12.414062 51.488281 12.414062 51.425781 C 12.289062 51.425781 12.167969 51.425781 12.039062 51.425781 C 12.039062 51.363281 12.039062 51.304688 12.039062 51.238281 C 11.976562 51.238281 11.917969 51.238281 11.851562 51.238281 C 11.851562 51.179688 11.851562 51.117188 11.851562 51.054688 C 11.796875 51.039062 11.738281 51.027344 11.679688 51.011719 C 11.480469 50.960938 11.480469 50.960938 11.292969 50.867188 C 11.292969 50.804688 11.292969 50.742188 11.292969 50.679688 C 11.230469 50.679688 11.171875 50.679688 11.105469 50.679688 C 11.105469 50.617188 11.105469 50.558594 11.105469 50.492188 C 10.984375 50.492188 10.859375 50.492188 10.734375 50.492188 C 10.734375 50.433594 10.734375 50.371094 10.734375 50.308594 C 10.671875 50.308594 10.609375 50.308594 10.546875 50.308594 C 10.546875 50.246094 10.546875 50.183594 10.546875 50.121094 C 10.484375 50.121094 10.421875 50.121094 10.359375 50.121094 C 10.359375 50.058594 10.359375 49.996094 10.359375 49.933594 C 10.175781 49.871094 9.992188 49.808594 9.800781 49.746094 C 9.800781 49.683594 9.800781 49.625 9.800781 49.558594 C 9.738281 49.558594 9.675781 49.558594 9.613281 49.558594 C 9.613281 49.5 9.613281 49.4375 9.613281 49.375 C 9.550781 49.375 9.488281 49.375 9.425781 49.375 C 9.425781 49.3125 9.425781 49.25 9.425781 49.1875 C 9.363281 49.1875 9.304688 49.1875 9.238281 49.1875 C 9.238281 49.125 9.238281 49.0625 9.238281 49 C 9.179688 49 9.117188 49 9.054688 49 C 9.054688 48.9375 9.054688 48.875 9.054688 48.8125 C 8.992188 48.8125 8.929688 48.8125 8.867188 48.8125 C 8.867188 48.75 8.867188 48.691406 8.867188 48.625 C 8.804688 48.625 8.742188 48.625 8.679688 48.625 C 8.679688 48.566406 8.679688 48.503906 8.679688 48.441406 C 8.617188 48.441406 8.558594 48.441406 8.492188 48.441406 C 8.492188 48.378906 8.492188 48.316406 8.492188 48.253906 C 8.425781 48.234375 8.359375 48.214844 8.289062 48.195312 C 7.9375 48.023438 7.792969 47.824219 7.558594 47.507812 C 7.558594 47.445312 7.558594 47.382812 7.558594 47.320312 C 7.5 47.320312 7.4375 47.320312 7.375 47.320312 C 7.375 47.257812 7.375 47.195312 7.375 47.132812 C 7.3125 47.132812 7.25 47.132812 7.1875 47.132812 C 7.1875 47.070312 7.1875 47.011719 7.1875 46.945312 C 7.125 46.945312 7.0625 46.945312 7 46.945312 C 7 46.886719 7 46.824219 7 46.761719 C 6.9375 46.761719 6.875 46.761719 6.8125 46.761719 C 6.8125 46.699219 6.8125 46.636719 6.8125 46.574219 C 6.75 46.574219 6.691406 46.574219 6.625 46.574219 C 6.625 46.511719 6.625 46.449219 6.625 46.386719 C 6.566406 46.386719 6.503906 46.386719 6.441406 46.386719 C 6.441406 46.324219 6.441406 46.261719 6.441406 46.199219 C 6.378906 46.199219 6.316406 46.199219 6.253906 46.199219 C 6.191406 46.015625 6.128906 45.832031 6.066406 45.640625 C 6.003906 45.640625 5.945312 45.640625 5.878906 45.640625 C 5.878906 45.578125 5.878906 45.515625 5.878906 45.453125 C 5.820312 45.453125 5.757812 45.453125 5.691406 45.453125 C 5.507812 45.171875 5.507812 45.171875 5.507812 44.894531 C 5.445312 44.894531 5.382812 44.894531 5.320312 44.894531 C 5.320312 44.832031 5.320312 44.769531 5.320312 44.707031 C 5.257812 44.707031 5.195312 44.707031 5.132812 44.707031 C 4.945312 44.425781 4.945312 44.425781 4.945312 44.148438 C 4.886719 44.148438 4.824219 44.148438 4.761719 44.148438 C 4.761719 44.085938 4.761719 44.023438 4.761719 43.960938 C 4.699219 43.960938 4.636719 43.960938 4.574219 43.960938 C 4.574219 43.835938 4.574219 43.714844 4.574219 43.585938 C 4.511719 43.585938 4.449219 43.585938 4.386719 43.585938 C 4.386719 43.523438 4.386719 43.464844 4.386719 43.398438 C 4.324219 43.398438 4.261719 43.398438 4.199219 43.398438 C 4.199219 43.277344 4.199219 43.152344 4.199219 43.027344 C 4.136719 43.027344 4.078125 43.027344 4.011719 43.027344 C 3.828125 42.746094 3.828125 42.746094 3.828125 42.464844 C 3.765625 42.464844 3.703125 42.464844 3.640625 42.464844 C 3.640625 42.34375 3.640625 42.21875 3.640625 42.09375 C 3.578125 42.09375 3.515625 42.09375 3.453125 42.09375 C 3.078125 41.476562 3.078125 41.476562 3.078125 41.160156 C 3.019531 41.160156 2.957031 41.160156 2.894531 41.160156 C 2.894531 41.035156 2.894531 40.914062 2.894531 40.785156 C 2.832031 40.785156 2.769531 40.785156 2.707031 40.785156 C 2.707031 40.664062 2.707031 40.539062 2.707031 40.414062 C 2.644531 40.414062 2.582031 40.414062 2.519531 40.414062 C 2.457031 40.265625 2.394531 40.117188 2.332031 39.96875 C 2.28125 39.847656 2.28125 39.847656 2.226562 39.71875 C 2.148438 39.480469 2.148438 39.480469 2.148438 39.105469 C 2.085938 39.105469 2.023438 39.105469 1.960938 39.105469 C 1.808594 38.777344 1.753906 38.535156 1.773438 38.171875 C 1.710938 38.171875 1.648438 38.171875 1.585938 38.171875 C 1.570312 38.113281 1.554688 38.054688 1.535156 37.992188 C 1.425781 37.617188 1.320312 37.25 1.148438 36.894531 C 1.011719 36.554688 1.003906 36.296875 1.027344 35.933594 C 0.964844 35.933594 0.902344 35.933594 0.839844 35.933594 C 0.839844 35.75 0.839844 35.5625 0.839844 35.375 C 0.777344 35.375 0.71875 35.375 0.652344 35.375 C 0.652344 35.125 0.652344 34.878906 0.652344 34.625 C 0.589844 34.625 0.53125 34.625 0.464844 34.625 C 0.464844 34.320312 0.464844 34.011719 0.464844 33.691406 C 0.40625 33.691406 0.34375 33.691406 0.28125 33.691406 C 0.273438 33.59375 0.273438 33.59375 0.261719 33.492188 C 0.253906 33.40625 0.246094 33.320312 0.238281 33.234375 C 0.230469 33.148438 0.222656 33.0625 0.214844 32.972656 C 0.210938 32.761719 0.210938 32.761719 0.09375 32.667969 C -0.0195312 31.71875 -0.015625 30.761719 -0.0117188 29.808594 C -0.0117188 29.664062 -0.0117188 29.515625 -0.0117188 29.371094 C -0.0117188 29.066406 -0.0117188 28.765625 -0.0117188 28.460938 C -0.0117188 28.078125 -0.0117188 27.691406 -0.0117188 27.308594 C -0.0117188 27.007812 -0.0117188 26.707031 -0.0117188 26.40625 C -0.0117188 26.265625 -0.0117188 26.125 -0.0117188 25.984375 C -0.015625 25.097656 -0.0117188 24.210938 0.09375 23.332031 C 0.125 23.300781 0.15625 23.273438 0.1875 23.238281 C 0.207031 23.082031 0.226562 22.925781 0.238281 22.765625 C 0.246094 22.683594 0.253906 22.597656 0.261719 22.507812 C 0.269531 22.441406 0.273438 22.375 0.28125 22.308594 C 0.339844 22.308594 0.402344 22.308594 0.464844 22.308594 C 0.464844 22 0.464844 21.691406 0.464844 21.375 C 0.527344 21.375 0.589844 21.375 0.652344 21.375 C 0.652344 21.125 0.652344 20.878906 0.652344 20.625 C 0.714844 20.625 0.777344 20.625 0.839844 20.625 C 0.839844 20.441406 0.839844 20.257812 0.839844 20.066406 C 0.902344 20.066406 0.964844 20.066406 1.027344 20.066406 C 1.019531 19.972656 1.015625 19.878906 1.007812 19.78125 C 1.023438 19.445312 1.082031 19.242188 1.226562 18.945312 C 1.382812 18.585938 1.480469 18.203125 1.585938 17.828125 C 1.648438 17.828125 1.710938 17.828125 1.773438 17.828125 C 1.769531 17.757812 1.765625 17.691406 1.761719 17.621094 C 1.773438 17.339844 1.84375 17.148438 1.960938 16.894531 C 2.023438 16.894531 2.082031 16.894531 2.148438 16.894531 C 2.15625 16.832031 2.164062 16.773438 2.175781 16.710938 C 2.261719 16.328125 2.390625 15.960938 2.519531 15.585938 C 2.582031 15.585938 2.644531 15.585938 2.707031 15.585938 C 2.707031 15.464844 2.707031 15.339844 2.707031 15.214844 C 2.769531 15.214844 2.828125 15.214844 2.894531 15.214844 C 2.894531 15.089844 2.894531 14.96875 2.894531 14.839844 C 2.953125 14.839844 3.015625 14.839844 3.078125 14.839844 C 3.089844 14.789062 3.097656 14.738281 3.109375 14.6875 C 3.191406 14.410156 3.320312 14.164062 3.453125 13.90625 C 3.515625 13.90625 3.578125 13.90625 3.640625 13.90625 C 3.640625 13.785156 3.640625 13.660156 3.640625 13.535156 C 3.703125 13.535156 3.761719 13.535156 3.828125 13.535156 C 3.839844 13.476562 3.855469 13.417969 3.867188 13.359375 C 3.921875 13.160156 3.921875 13.160156 4.011719 12.972656 C 4.074219 12.972656 4.136719 12.972656 4.199219 12.972656 C 4.199219 12.851562 4.199219 12.726562 4.199219 12.601562 C 4.261719 12.601562 4.324219 12.601562 4.386719 12.601562 C 4.386719 12.539062 4.386719 12.476562 4.386719 12.414062 C 4.449219 12.414062 4.511719 12.414062 4.574219 12.414062 C 4.574219 12.289062 4.574219 12.167969 4.574219 12.039062 C 4.636719 12.039062 4.695312 12.039062 4.761719 12.039062 C 4.761719 11.976562 4.761719 11.917969 4.761719 11.851562 C 4.820312 11.851562 4.882812 11.851562 4.945312 11.851562 C 4.960938 11.796875 4.972656 11.738281 4.988281 11.679688 C 5.039062 11.480469 5.039062 11.480469 5.132812 11.292969 C 5.195312 11.292969 5.257812 11.292969 5.320312 11.292969 C 5.320312 11.230469 5.320312 11.171875 5.320312 11.105469 C 5.382812 11.105469 5.441406 11.105469 5.507812 11.105469 C 5.519531 11.050781 5.535156 10.992188 5.546875 10.933594 C 5.601562 10.734375 5.601562 10.734375 5.691406 10.546875 C 5.753906 10.546875 5.816406 10.546875 5.878906 10.546875 C 5.878906 10.484375 5.878906 10.421875 5.878906 10.359375 C 5.941406 10.359375 6.003906 10.359375 6.066406 10.359375 C 6.128906 10.175781 6.191406 9.992188 6.253906 9.800781 C 6.316406 9.800781 6.375 9.800781 6.441406 9.800781 C 6.441406 9.738281 6.441406 9.675781 6.441406 9.613281 C 6.5 9.613281 6.5625 9.613281 6.625 9.613281 C 6.625 9.550781 6.625 9.488281 6.625 9.425781 C 6.6875 9.425781 6.75 9.425781 6.8125 9.425781 C 6.8125 9.363281 6.8125 9.304688 6.8125 9.238281 C 6.875 9.238281 6.9375 9.238281 7 9.238281 C 7 9.179688 7 9.117188 7 9.054688 C 7.0625 9.054688 7.125 9.054688 7.1875 9.054688 C 7.1875 8.992188 7.1875 8.929688 7.1875 8.867188 C 7.25 8.867188 7.308594 8.867188 7.375 8.867188 C 7.375 8.804688 7.375 8.742188 7.375 8.679688 C 7.433594 8.679688 7.496094 8.679688 7.558594 8.679688 C 7.582031 8.628906 7.601562 8.574219 7.625 8.523438 C 7.78125 8.246094 7.984375 8.058594 8.214844 7.839844 C 8.265625 7.785156 8.316406 7.726562 8.371094 7.671875 C 8.492188 7.558594 8.492188 7.558594 8.679688 7.558594 C 8.679688 7.5 8.679688 7.4375 8.679688 7.375 C 8.742188 7.375 8.804688 7.375 8.867188 7.375 C 8.867188 7.3125 8.867188 7.25 8.867188 7.1875 C 8.929688 7.1875 8.988281 7.1875 9.054688 7.1875 C 9.054688 7.125 9.054688 7.0625 9.054688 7 C 9.113281 7 9.175781 7 9.238281 7 C 9.238281 6.9375 9.238281 6.875 9.238281 6.8125 C 9.300781 6.8125 9.363281 6.8125 9.425781 6.8125 C 9.425781 6.75 9.425781 6.691406 9.425781 6.625 C 9.488281 6.625 9.550781 6.625 9.613281 6.625 C 9.613281 6.566406 9.613281 6.503906 9.613281 6.441406 C 9.675781 6.441406 9.738281 6.441406 9.800781 6.441406 C 9.800781 6.378906 9.800781 6.316406 9.800781 6.253906 C 9.984375 6.191406 10.167969 6.128906 10.359375 6.066406 C 10.359375 6.003906 10.359375 5.945312 10.359375 5.878906 C 10.421875 5.878906 10.484375 5.878906 10.546875 5.878906 C 10.546875 5.820312 10.546875 5.757812 10.546875 5.691406 C 10.609375 5.691406 10.667969 5.691406 10.734375 5.691406 C 10.734375 5.632812 10.734375 5.570312 10.734375 5.507812 C 10.855469 5.507812 10.980469 5.507812 11.105469 5.507812 C 11.105469 5.445312 11.105469 5.382812 11.105469 5.320312 C 11.167969 5.320312 11.230469 5.320312 11.292969 5.320312 C 11.292969 5.257812 11.292969 5.195312 11.292969 5.132812 C 11.574219 4.945312 11.574219 4.945312 11.851562 4.945312 C 11.851562 4.886719 11.851562 4.824219 11.851562 4.761719 C 11.914062 4.761719 11.976562 4.761719 12.039062 4.761719 C 12.039062 4.699219 12.039062 4.636719 12.039062 4.574219 C 12.164062 4.574219 12.285156 4.574219 12.414062 4.574219 C 12.414062 4.511719 12.414062 4.449219 12.414062 4.386719 C 12.476562 4.386719 12.535156 4.386719 12.601562 4.386719 C 12.601562 4.324219 12.601562 4.261719 12.601562 4.199219 C 12.722656 4.199219 12.847656 4.199219 12.972656 4.199219 C 12.972656 4.136719 12.972656 4.078125 12.972656 4.011719 C 13.253906 3.828125 13.253906 3.828125 13.535156 3.828125 C 13.535156 3.765625 13.535156 3.703125 13.535156 3.640625 C 13.65625 3.640625 13.78125 3.640625 13.90625 3.640625 C 13.90625 3.578125 13.90625 3.515625 13.90625 3.453125 C 14.070312 3.359375 14.238281 3.265625 14.402344 3.171875 C 14.496094 3.121094 14.585938 3.070312 14.679688 3.015625 C 14.933594 2.894531 14.933594 2.894531 15.214844 2.894531 C 15.214844 2.832031 15.214844 2.769531 15.214844 2.707031 C 15.335938 2.707031 15.460938 2.707031 15.585938 2.707031 C 15.585938 2.644531 15.585938 2.582031 15.585938 2.519531 C 15.914062 2.371094 16.160156 2.3125 16.519531 2.332031 C 16.519531 2.273438 16.519531 2.210938 16.519531 2.148438 C 16.644531 2.148438 16.765625 2.148438 16.894531 2.148438 C 16.894531 2.085938 16.894531 2.023438 16.894531 1.960938 C 17.222656 1.808594 17.464844 1.753906 17.828125 1.773438 C 17.828125 1.710938 17.828125 1.648438 17.828125 1.585938 C 18.152344 1.4375 18.398438 1.378906 18.761719 1.398438 C 18.761719 1.339844 18.761719 1.277344 18.761719 1.214844 C 19.214844 1.066406 19.582031 1.007812 20.066406 1.027344 C 20.066406 0.964844 20.066406 0.902344 20.066406 0.839844 C 20.25 0.839844 20.4375 0.839844 20.625 0.839844 C 20.625 0.777344 20.625 0.71875 20.625 0.652344 C 20.816406 0.632812 21.007812 0.609375 21.199219 0.589844 C 21.375 0.578125 21.375 0.578125 21.464844 0.464844 C 21.609375 0.460938 21.75 0.457031 21.890625 0.460938 C 21.96875 0.460938 22.046875 0.460938 22.125 0.464844 C 22.1875 0.464844 22.246094 0.464844 22.308594 0.464844 C 22.308594 0.40625 22.308594 0.34375 22.308594 0.28125 C 22.371094 0.273438 22.4375 0.269531 22.507812 0.261719 C 22.636719 0.25 22.636719 0.25 22.765625 0.238281 C 22.851562 0.230469 22.9375 0.222656 23.027344 0.214844 C 23.238281 0.210938 23.238281 0.210938 23.332031 0.09375 C 24.300781 -0.015625 25.277344 -0.015625 26.25 -0.0117188 Z M 26.25 -0.0117188 "/>
<path style=" stroke:none;fill-rule:nonzero;fill:rgb(6.27451%,6.666667%,7.450981%);fill-opacity:1;" d="M 23.800781 18.480469 C 26.820312 18.480469 29.835938 18.480469 32.945312 18.480469 C 32.867188 18.882812 32.789062 19.101562 32.601562 19.449219 C 32.523438 19.59375 32.523438 19.59375 32.441406 19.742188 C 32.355469 19.898438 32.355469 19.898438 32.269531 20.054688 C 32.210938 20.164062 32.152344 20.269531 32.089844 20.382812 C 31.667969 21.160156 31.234375 21.929688 30.796875 22.695312 C 30.367188 23.457031 29.953125 24.222656 29.542969 24.996094 C 29.148438 25.738281 28.746094 26.476562 28.328125 27.207031 C 27.871094 28.003906 27.433594 28.808594 27.003906 29.617188 C 26.554688 30.453125 26.105469 31.289062 25.640625 32.117188 C 25.335938 32.664062 25.035156 33.210938 24.734375 33.757812 C 24.285156 34.570312 23.839844 35.382812 23.386719 36.191406 C 23.335938 36.28125 23.335938 36.28125 23.285156 36.371094 C 23.066406 36.761719 23.066406 36.761719 22.960938 36.867188 C 22.675781 36.875 22.394531 36.878906 22.109375 36.878906 C 22.019531 36.878906 21.929688 36.878906 21.839844 36.878906 C 21.542969 36.878906 21.246094 36.875 20.949219 36.875 C 20.746094 36.875 20.539062 36.875 20.335938 36.875 C 19.792969 36.875 19.253906 36.875 18.714844 36.875 C 18.164062 36.871094 17.609375 36.871094 17.058594 36.871094 C 15.976562 36.871094 14.894531 36.867188 13.8125 36.867188 C 13.933594 36.492188 14.066406 36.160156 14.253906 35.816406 C 14.328125 35.675781 14.328125 35.675781 14.40625 35.535156 C 14.457031 35.441406 14.511719 35.34375 14.566406 35.246094 C 14.648438 35.09375 14.648438 35.09375 14.730469 34.941406 C 15.0625 34.335938 15.398438 33.734375 15.738281 33.132812 C 16.03125 32.617188 16.3125 32.097656 16.597656 31.574219 C 17.019531 30.792969 17.457031 30.015625 17.902344 29.242188 C 18.46875 28.261719 18.996094 27.265625 19.527344 26.265625 C 20.492188 24.4375 20.492188 24.4375 20.976562 23.589844 C 21.289062 23.042969 21.585938 22.488281 21.886719 21.933594 C 22.300781 21.167969 22.71875 20.40625 23.148438 19.648438 C 23.367188 19.261719 23.582031 18.871094 23.800781 18.480469 Z M 23.800781 18.480469 "/>
<path style=" stroke:none;fill-rule:nonzero;fill:rgb(6.27451%,7.058824%,7.843138%);fill-opacity:1;" d="M 17.832031 18.453125 C 18.015625 18.453125 18.015625 18.453125 18.199219 18.453125 C 18.515625 18.453125 18.832031 18.457031 19.148438 18.460938 C 19.472656 18.464844 19.800781 18.464844 20.125 18.464844 C 20.757812 18.46875 21.390625 18.472656 22.027344 18.480469 C 21.949219 18.921875 21.777344 19.261719 21.554688 19.648438 C 21.46875 19.796875 21.382812 19.945312 21.300781 20.097656 C 21.253906 20.179688 21.203125 20.265625 21.15625 20.351562 C 20.886719 20.824219 20.625 21.304688 20.363281 21.78125 C 20.265625 21.957031 20.167969 22.136719 20.070312 22.3125 C 19.648438 23.074219 19.230469 23.839844 18.8125 24.605469 C 18.554688 25.082031 18.292969 25.554688 18.03125 26.03125 C 18 26.085938 17.96875 26.140625 17.9375 26.199219 C 17.8125 26.429688 17.683594 26.660156 17.554688 26.890625 C 17.105469 27.703125 16.660156 28.523438 16.222656 29.339844 C 15.769531 30.1875 15.304688 31.023438 14.832031 31.855469 C 14.386719 32.640625 13.957031 33.433594 13.53125 34.230469 C 13.21875 34.8125 12.902344 35.398438 12.578125 35.972656 C 12.542969 36.035156 12.507812 36.09375 12.476562 36.15625 C 12.335938 36.398438 12.195312 36.632812 12.039062 36.867188 C 11.871094 36.902344 11.871094 36.902344 11.667969 36.898438 C 11.550781 36.902344 11.550781 36.902344 11.429688 36.902344 C 11.34375 36.902344 11.257812 36.898438 11.171875 36.898438 C 11.082031 36.898438 10.992188 36.898438 10.898438 36.898438 C 10.597656 36.898438 10.300781 36.894531 10 36.894531 C 9.792969 36.894531 9.585938 36.894531 9.378906 36.894531 C 8.835938 36.890625 8.289062 36.890625 7.742188 36.886719 C 7.1875 36.882812 6.632812 36.882812 6.074219 36.878906 C 4.984375 36.878906 3.890625 36.871094 2.800781 36.867188 C 2.90625 36.65625 3.007812 36.449219 3.113281 36.238281 C 3.140625 36.179688 3.171875 36.121094 3.203125 36.058594 C 3.414062 35.636719 3.632812 35.21875 3.867188 34.808594 C 3.949219 34.664062 4.027344 34.523438 4.105469 34.378906 C 4.152344 34.300781 4.195312 34.222656 4.238281 34.140625 C 4.535156 33.617188 4.824219 33.089844 5.117188 32.5625 C 5.148438 32.503906 5.179688 32.445312 5.214844 32.386719 C 5.648438 31.597656 6.078125 30.808594 6.503906 30.019531 C 6.886719 29.304688 7.28125 28.597656 7.683594 27.894531 C 8.121094 27.121094 8.546875 26.34375 8.964844 25.558594 C 11.703125 20.386719 11.703125 20.386719 14.648438 19.0625 C 14.734375 19.023438 14.734375 19.023438 14.824219 18.984375 C 15.808594 18.558594 16.765625 18.4375 17.832031 18.453125 Z M 17.832031 18.453125 "/>
<path style=" stroke:none;fill-rule:nonzero;fill:rgb(5.882353%,6.666667%,7.450981%);fill-opacity:1;" d="M 35.589844 18.53125 C 35.679688 18.53125 35.769531 18.53125 35.863281 18.53125 C 36.15625 18.53125 36.453125 18.535156 36.75 18.535156 C 36.953125 18.539062 37.15625 18.539062 37.363281 18.539062 C 37.902344 18.539062 38.441406 18.542969 38.980469 18.546875 C 39.527344 18.550781 40.078125 18.554688 40.628906 18.554688 C 41.707031 18.558594 42.789062 18.566406 43.867188 18.574219 C 43.738281 18.972656 43.589844 19.320312 43.386719 19.683594 C 43.328125 19.792969 43.269531 19.898438 43.207031 20.007812 C 43.144531 20.121094 43.078125 20.238281 43.015625 20.351562 C 42.949219 20.472656 42.882812 20.59375 42.816406 20.710938 C 42.675781 20.960938 42.535156 21.210938 42.398438 21.460938 C 42.191406 21.832031 41.988281 22.203125 41.78125 22.574219 C 41.75 22.632812 41.714844 22.695312 41.683594 22.753906 C 41.527344 23.039062 41.371094 23.324219 41.214844 23.605469 C 40.917969 24.144531 40.617188 24.679688 40.3125 25.214844 C 39.8125 26.085938 39.339844 26.96875 38.867188 27.855469 C 38.246094 29.027344 37.613281 30.191406 36.957031 31.339844 C 36.777344 31.652344 36.601562 31.96875 36.4375 32.289062 C 35.320312 34.421875 33.542969 35.878906 31.265625 36.679688 C 30.425781 36.925781 29.640625 37 28.769531 36.988281 C 28.597656 36.988281 28.597656 36.988281 28.417969 36.984375 C 28.050781 36.984375 27.683594 36.980469 27.316406 36.976562 C 27.066406 36.976562 26.816406 36.976562 26.566406 36.972656 C 25.953125 36.96875 25.34375 36.964844 24.734375 36.960938 C 24.796875 36.601562 24.894531 36.335938 25.070312 36.015625 C 25.117188 35.925781 25.167969 35.835938 25.21875 35.742188 C 25.273438 35.644531 25.324219 35.546875 25.378906 35.449219 C 25.4375 35.347656 25.492188 35.25 25.546875 35.144531 C 25.710938 34.847656 25.875 34.550781 26.039062 34.253906 C 26.082031 34.175781 26.125 34.101562 26.167969 34.019531 C 26.316406 33.75 26.46875 33.484375 26.617188 33.214844 C 26.945312 32.625 27.265625 32.035156 27.585938 31.441406 C 27.953125 30.761719 28.324219 30.085938 28.703125 29.414062 C 29.074219 28.761719 29.429688 28.097656 29.785156 27.4375 C 30.125 26.808594 30.46875 26.183594 30.816406 25.5625 C 31.144531 24.972656 31.464844 24.382812 31.785156 23.789062 C 32.152344 23.109375 32.523438 22.433594 32.902344 21.761719 C 33.289062 21.082031 33.65625 20.390625 34.027344 19.699219 C 34.078125 19.609375 34.125 19.515625 34.175781 19.421875 C 34.242188 19.296875 34.242188 19.296875 34.308594 19.171875 C 34.351562 19.097656 34.394531 19.023438 34.441406 18.945312 C 34.472656 18.882812 34.5 18.816406 34.535156 18.75 C 34.839844 18.460938 35.1875 18.523438 35.589844 18.53125 Z M 35.589844 18.53125 "/>
<path style=" stroke:none;fill-rule:nonzero;fill:rgb(5.882353%,6.666667%,7.058824%);fill-opacity:1;" d="M 51.015625 18.734375 C 52.300781 19.417969 53.28125 20.246094 53.8125 21.636719 C 54.136719 22.769531 54.0625 24.121094 53.492188 25.160156 C 52.785156 26.355469 51.878906 27.09375 50.554688 27.546875 C 50.171875 27.636719 49.828125 27.65625 49.4375 27.648438 C 49.367188 27.648438 49.296875 27.648438 49.226562 27.648438 C 47.949219 27.625 46.980469 27.257812 46.042969 26.367188 C 45.175781 25.433594 44.699219 24.21875 44.648438 22.949219 C 44.695312 21.851562 45.132812 20.902344 45.828125 20.066406 C 45.902344 19.96875 45.902344 19.96875 45.980469 19.871094 C 47.160156 18.53125 49.378906 18.007812 51.015625 18.734375 Z M 51.015625 18.734375 "/>
<path style=" stroke:none;fill-rule:nonzero;fill:rgb(92.941177%,89.019608%,0%);fill-opacity:1;" d="M 17.734375 29.121094 C 17.824219 29.152344 17.917969 29.179688 18.011719 29.214844 C 17.675781 29.828125 17.335938 30.445312 16.988281 31.078125 C 16.894531 31.078125 16.800781 31.078125 16.707031 31.078125 C 16.78125 30.804688 16.78125 30.804688 16.894531 30.519531 C 16.984375 30.488281 17.078125 30.457031 17.171875 30.425781 C 17.289062 30.097656 17.289062 30.097656 17.359375 29.773438 C 17.421875 29.773438 17.484375 29.773438 17.546875 29.773438 C 17.515625 29.679688 17.484375 29.589844 17.453125 29.492188 C 17.585938 29.289062 17.585938 29.289062 17.734375 29.121094 Z M 17.734375 29.121094 "/>
<path style=" stroke:none;fill-rule:nonzero;fill:rgb(92.941177%,85.882354%,1.960784%);fill-opacity:1;" d="M 14.839844 31.640625 C 14.9375 31.941406 14.941406 31.992188 14.804688 32.296875 C 14.714844 32.453125 14.714844 32.453125 14.625 32.613281 C 14.421875 32.96875 14.234375 33.308594 14.09375 33.691406 C 14 33.691406 13.910156 33.691406 13.8125 33.691406 C 13.976562 33.242188 14.203125 32.828125 14.433594 32.402344 C 14.472656 32.332031 14.511719 32.257812 14.550781 32.179688 C 14.648438 32 14.742188 31.820312 14.839844 31.640625 Z M 14.839844 31.640625 "/>
<path style=" stroke:none;fill-rule:nonzero;fill:rgb(1.960784%,2.745098%,2.352941%);fill-opacity:1;" d="M 53.761719 22.308594 C 53.789062 22.308594 53.820312 22.308594 53.851562 22.308594 C 53.859375 22.589844 53.867188 22.871094 53.871094 23.152344 C 53.875 23.269531 53.875 23.269531 53.878906 23.390625 C 53.882812 23.910156 53.832031 24.277344 53.574219 24.734375 C 53.480469 24.765625 53.386719 24.796875 53.292969 24.828125 C 53.339844 24.6875 53.339844 24.6875 53.386719 24.546875 C 53.449219 24.546875 53.511719 24.546875 53.574219 24.546875 C 53.570312 24.429688 53.570312 24.3125 53.566406 24.191406 C 53.5625 23.925781 53.582031 23.777344 53.667969 23.519531 C 53.6875 23.3125 53.703125 23.105469 53.71875 22.894531 C 53.726562 22.785156 53.734375 22.675781 53.742188 22.5625 C 53.75 22.476562 53.753906 22.394531 53.761719 22.308594 Z M 53.761719 22.308594 "/>
<path style=" stroke:none;fill-rule:nonzero;fill:rgb(93.725491%,89.019608%,0%);fill-opacity:1;" d="M 21.652344 21.933594 C 21.746094 21.964844 21.839844 21.996094 21.933594 22.027344 C 21.65625 22.550781 21.378906 23.074219 21.09375 23.613281 C 21.0625 23.613281 21.03125 23.613281 21 23.613281 C 21 23.429688 21 23.242188 21 23.054688 C 21.09375 23.023438 21.183594 22.992188 21.28125 22.960938 C 21.3125 22.773438 21.339844 22.589844 21.375 22.398438 C 21.464844 22.371094 21.558594 22.339844 21.652344 22.308594 C 21.621094 22.214844 21.589844 22.121094 21.558594 22.027344 C 21.589844 21.996094 21.621094 21.964844 21.652344 21.933594 Z M 21.652344 21.933594 "/>
<path style=" stroke:none;fill-rule:nonzero;fill:rgb(13.333334%,8.627451%,2.745098%);fill-opacity:1;" d="M 52.359375 19.601562 C 52.695312 19.925781 52.996094 20.265625 53.292969 20.625 C 53.199219 20.65625 53.109375 20.6875 53.011719 20.71875 C 52.984375 20.597656 52.953125 20.472656 52.921875 20.347656 C 52.859375 20.347656 52.796875 20.347656 52.734375 20.347656 C 52.734375 20.285156 52.734375 20.222656 52.734375 20.160156 C 52.671875 20.160156 52.609375 20.160156 52.546875 20.160156 C 52.394531 19.972656 52.394531 19.972656 52.265625 19.785156 C 52.296875 19.726562 52.328125 19.664062 52.359375 19.601562 Z M 52.359375 19.601562 "/>
<path style=" stroke:none;fill-rule:nonzero;fill:rgb(87.058824%,79.215688%,1.568628%);fill-opacity:1;" d="M 19.320312 23.519531 C 19.351562 23.644531 19.382812 23.765625 19.414062 23.894531 C 19.351562 23.894531 19.289062 23.894531 19.226562 23.894531 C 19.214844 23.980469 19.203125 24.070312 19.191406 24.160156 C 19.132812 24.453125 19.132812 24.453125 18.945312 24.640625 C 18.914062 24.703125 18.886719 24.761719 18.851562 24.828125 C 18.792969 24.828125 18.730469 24.828125 18.667969 24.828125 C 18.832031 24.363281 19.078125 23.945312 19.320312 23.519531 Z M 19.320312 23.519531 "/>
<path style=" stroke:none;fill-rule:nonzero;fill:rgb(88.235295%,80.784315%,1.568628%);fill-opacity:1;" d="M 21.464844 19.601562 C 21.5625 19.847656 21.570312 19.945312 21.46875 20.195312 C 21.421875 20.265625 21.378906 20.339844 21.332031 20.417969 C 21.289062 20.492188 21.246094 20.566406 21.199219 20.644531 C 21.164062 20.699219 21.128906 20.753906 21.09375 20.8125 C 21.03125 20.8125 20.96875 20.8125 20.90625 20.8125 C 21.039062 20.363281 21.226562 20 21.464844 19.601562 Z M 21.464844 19.601562 "/>
<path style=" stroke:none;fill-rule:nonzero;fill:rgb(14.901961%,8.235294%,1.960784%);fill-opacity:1;" d="M 20.90625 18.480469 C 21.277344 18.480469 21.644531 18.480469 22.027344 18.480469 C 21.933594 18.945312 21.933594 18.945312 21.746094 19.132812 C 21.746094 18.980469 21.746094 18.824219 21.746094 18.667969 C 21.46875 18.636719 21.191406 18.605469 20.90625 18.574219 C 20.90625 18.542969 20.90625 18.511719 20.90625 18.480469 Z M 20.90625 18.480469 "/>
<path style=" stroke:none;fill-rule:nonzero;fill:rgb(94.117647%,91.37255%,0.392157%);fill-opacity:1;" d="M 15.121094 33.878906 C 15.179688 33.878906 15.242188 33.878906 15.308594 33.878906 C 15.183594 34.273438 15.03125 34.632812 14.839844 35 C 14.777344 34.9375 14.71875 34.875 14.652344 34.8125 C 14.652344 34.722656 14.652344 34.628906 14.652344 34.535156 C 14.746094 34.535156 14.839844 34.535156 14.933594 34.535156 C 14.996094 34.316406 15.054688 34.101562 15.121094 33.878906 Z M 15.121094 33.878906 "/>
<path style=" stroke:none;fill-rule:nonzero;fill:rgb(90.980393%,87.843138%,0%);fill-opacity:1;" d="M 29.679688 27.253906 C 29.773438 27.285156 29.863281 27.316406 29.960938 27.347656 C 29.773438 27.683594 29.589844 28.023438 29.398438 28.375 C 29.339844 28.34375 29.277344 28.3125 29.214844 28.28125 C 29.242188 28.15625 29.273438 28.035156 29.308594 27.90625 C 29.367188 27.90625 29.429688 27.90625 29.492188 27.90625 C 29.554688 27.691406 29.617188 27.476562 29.679688 27.253906 Z M 29.679688 27.253906 "/>
<path style=" stroke:none;fill-rule:nonzero;fill:rgb(20%,16.078432%,1.176471%);fill-opacity:1;" d="M 12.039062 20.71875 C 12.101562 20.75 12.164062 20.78125 12.226562 20.8125 C 11.90625 21.351562 11.90625 21.351562 11.644531 21.453125 C 11.589844 21.457031 11.535156 21.460938 11.480469 21.464844 C 11.613281 21.152344 11.792969 20.953125 12.039062 20.71875 Z M 12.039062 20.71875 "/>
<path style=" stroke:none;fill-rule:nonzero;fill:rgb(7.450981%,5.490196%,0.392157%);fill-opacity:1;" d="M 46.480469 19.414062 C 46.574219 19.445312 46.664062 19.476562 46.761719 19.507812 C 46.453125 19.785156 46.144531 20.0625 45.828125 20.347656 C 45.765625 20.316406 45.703125 20.285156 45.640625 20.253906 C 45.917969 19.976562 46.195312 19.699219 46.480469 19.414062 Z M 46.480469 19.414062 "/>
<path style=" stroke:none;fill-rule:nonzero;fill:rgb(10.588235%,8.627451%,2.745098%);fill-opacity:1;" d="M 35.746094 32.851562 C 35.839844 32.851562 35.929688 32.851562 36.027344 32.851562 C 35.902344 33.222656 35.753906 33.433594 35.464844 33.691406 C 35.464844 33.570312 35.464844 33.445312 35.464844 33.320312 C 35.527344 33.320312 35.589844 33.320312 35.652344 33.320312 C 35.683594 33.164062 35.714844 33.011719 35.746094 32.851562 Z M 35.746094 32.851562 "/>
<path style=" stroke:none;fill-rule:nonzero;fill:rgb(93.725491%,89.411765%,0%);fill-opacity:1;" d="M 30.332031 26.039062 C 30.425781 26.070312 30.519531 26.101562 30.613281 26.132812 C 30.429688 26.472656 30.242188 26.8125 30.054688 27.160156 C 29.941406 26.820312 29.992188 26.753906 30.140625 26.441406 C 30.195312 26.328125 30.195312 26.328125 30.25 26.214844 C 30.277344 26.15625 30.304688 26.097656 30.332031 26.039062 Z M 30.332031 26.039062 "/>
<path style=" stroke:none;fill-rule:nonzero;fill:rgb(89.019608%,81.960785%,2.352941%);fill-opacity:1;" d="M 14.839844 31.640625 C 14.910156 31.785156 14.910156 31.785156 14.933594 32.011719 C 14.828125 32.246094 14.699219 32.449219 14.558594 32.667969 C 14.5 32.667969 14.4375 32.667969 14.375 32.667969 C 14.507812 32.3125 14.667969 31.976562 14.839844 31.640625 Z M 14.839844 31.640625 "/>
<path style=" stroke:none;fill-rule:nonzero;fill:rgb(91.764706%,84.705883%,1.960784%);fill-opacity:1;" d="M 26.785156 29.867188 C 26.855469 30.011719 26.855469 30.011719 26.878906 30.238281 C 26.773438 30.472656 26.644531 30.675781 26.507812 30.894531 C 26.445312 30.894531 26.382812 30.894531 26.320312 30.894531 C 26.433594 30.515625 26.570312 30.199219 26.785156 29.867188 Z M 26.785156 29.867188 "/>
<path style=" stroke:none;fill-rule:nonzero;fill:rgb(16.078432%,11.764706%,3.137255%);fill-opacity:1;" d="M 20.347656 24.734375 C 20.410156 24.824219 20.46875 24.917969 20.535156 25.011719 C 20.472656 25.011719 20.410156 25.011719 20.347656 25.011719 C 20.335938 25.085938 20.328125 25.15625 20.316406 25.230469 C 20.25 25.496094 20.179688 25.589844 19.972656 25.761719 C 19.972656 25.460938 20.023438 25.347656 20.160156 25.089844 C 20.195312 25.023438 20.230469 24.957031 20.265625 24.886719 C 20.304688 24.8125 20.304688 24.8125 20.347656 24.734375 Z M 20.347656 24.734375 "/>
<path style=" stroke:none;fill-rule:nonzero;fill:rgb(93.725491%,86.666667%,0.784314%);fill-opacity:1;" d="M 33.039062 21.09375 C 33.070312 21.09375 33.101562 21.09375 33.132812 21.09375 C 33.0625 21.722656 33.0625 21.722656 32.851562 21.933594 C 32.824219 21.75 32.792969 21.5625 32.761719 21.375 C 32.820312 21.375 32.882812 21.375 32.945312 21.375 C 32.976562 21.28125 33.007812 21.1875 33.039062 21.09375 Z M 33.039062 21.09375 "/>
<path style=" stroke:none;fill-rule:nonzero;fill:rgb(92.941177%,87.450981%,0.392157%);fill-opacity:1;" d="M 7.746094 27.253906 C 7.863281 27.398438 7.863281 27.398438 7.933594 27.625 C 7.832031 27.867188 7.703125 28.0625 7.558594 28.28125 C 7.472656 28.078125 7.453125 27.949219 7.523438 27.738281 C 7.59375 27.574219 7.667969 27.414062 7.746094 27.253906 Z M 7.746094 27.253906 "/>
<path style=" stroke:none;fill-rule:nonzero;fill:rgb(91.37255%,85.09804%,1.176471%);fill-opacity:1;" d="M 29.308594 25.292969 C 29.335938 25.292969 29.367188 25.292969 29.398438 25.292969 C 29.425781 25.578125 29.421875 25.726562 29.273438 25.976562 C 29.195312 26.054688 29.195312 26.054688 29.121094 26.132812 C 29.058594 26.132812 28.996094 26.132812 28.933594 26.132812 C 29.03125 25.816406 29.121094 25.570312 29.308594 25.292969 Z M 29.308594 25.292969 "/>
<path style=" stroke:none;fill-rule:nonzero;fill:rgb(94.901961%,89.019608%,0.392157%);fill-opacity:1;" d="M 10.359375 22.960938 C 10.195312 23.496094 10.195312 23.496094 9.988281 23.707031 C 9.890625 23.414062 9.886719 23.332031 9.988281 23.054688 C 10.171875 22.960938 10.171875 22.960938 10.359375 22.960938 Z M 10.359375 22.960938 "/>
<path style=" stroke:none;fill-rule:nonzero;fill:rgb(92.941177%,87.843138%,0.392157%);fill-opacity:1;" d="M 26.601562 32.851562 C 26.660156 32.945312 26.722656 33.039062 26.785156 33.132812 C 26.664062 33.347656 26.539062 33.566406 26.414062 33.785156 C 26.285156 33.398438 26.429688 33.214844 26.601562 32.851562 Z M 26.601562 32.851562 "/>
<path style=" stroke:none;fill-rule:nonzero;fill:rgb(90.588236%,83.529413%,1.960784%);fill-opacity:1;" d="M 25.292969 32.574219 C 25.375 32.804688 25.398438 32.914062 25.316406 33.152344 C 25.199219 33.320312 25.199219 33.320312 24.921875 33.414062 C 25.019531 33.097656 25.109375 32.851562 25.292969 32.574219 Z M 25.292969 32.574219 "/>
<path style=" stroke:none;fill-rule:nonzero;fill:rgb(17.254902%,12.941177%,3.137255%);fill-opacity:1;" d="M 8.773438 25.945312 C 8.835938 26.105469 8.835938 26.105469 8.867188 26.320312 C 8.746094 26.578125 8.746094 26.578125 8.585938 26.785156 C 8.523438 26.785156 8.464844 26.785156 8.398438 26.785156 C 8.5 26.46875 8.585938 26.226562 8.773438 25.945312 Z M 8.773438 25.945312 "/>
<path style=" stroke:none;fill-rule:nonzero;fill:rgb(90.980393%,83.529413%,1.176471%);fill-opacity:1;" d="M 18.199219 25.574219 C 18.261719 25.574219 18.324219 25.574219 18.386719 25.574219 C 18.324219 25.789062 18.261719 26.003906 18.199219 26.226562 C 18.109375 26.226562 18.015625 26.226562 17.921875 26.226562 C 18.09375 25.679688 18.09375 25.679688 18.199219 25.574219 Z M 18.199219 25.574219 "/>
<path style=" stroke:none;fill-rule:nonzero;fill:rgb(91.764706%,86.274511%,0%);fill-opacity:1;" d="M 30.800781 25.199219 C 30.890625 25.230469 30.984375 25.261719 31.078125 25.292969 C 30.957031 25.507812 30.832031 25.722656 30.707031 25.945312 C 30.675781 25.945312 30.644531 25.945312 30.613281 25.945312 C 30.695312 25.304688 30.695312 25.304688 30.800781 25.199219 Z M 30.800781 25.199219 "/>
<path style=" stroke:none;fill-rule:nonzero;fill:rgb(15.294118%,12.54902%,3.529412%);fill-opacity:1;" d="M 9.894531 23.894531 C 9.984375 23.894531 10.078125 23.894531 10.171875 23.894531 C 10.050781 24.164062 9.925781 24.347656 9.707031 24.546875 C 9.675781 24.484375 9.644531 24.421875 9.613281 24.359375 C 9.730469 24.113281 9.730469 24.113281 9.894531 23.894531 Z M 9.894531 23.894531 "/>
<path style=" stroke:none;fill-rule:nonzero;fill:rgb(92.54902%,85.490197%,0%);fill-opacity:1;" d="M 20.71875 23.707031 C 20.8125 23.738281 20.90625 23.769531 21 23.800781 C 20.875 24.015625 20.753906 24.230469 20.625 24.453125 C 20.566406 24.332031 20.503906 24.207031 20.441406 24.078125 C 20.53125 23.957031 20.625 23.832031 20.71875 23.707031 Z M 20.71875 23.707031 "/>
<path style=" stroke:none;fill-rule:nonzero;fill:rgb(17.647059%,14.117648%,3.529412%);fill-opacity:1;" d="M 6.253906 30.519531 C 6.316406 30.613281 6.375 30.703125 6.441406 30.800781 C 6.347656 30.832031 6.253906 30.863281 6.160156 30.894531 C 6.128906 31.046875 6.097656 31.203125 6.066406 31.359375 C 6.003906 31.359375 5.945312 31.359375 5.878906 31.359375 C 5.980469 31.042969 6.066406 30.796875 6.253906 30.519531 Z M 6.253906 30.519531 "/>
<path style=" stroke:none;fill-rule:nonzero;fill:rgb(94.117647%,89.803922%,0.392157%);fill-opacity:1;" d="M 31.921875 23.148438 C 31.980469 23.238281 32.042969 23.332031 32.105469 23.425781 C 31.984375 23.613281 31.859375 23.800781 31.734375 23.988281 C 31.703125 23.988281 31.671875 23.988281 31.640625 23.988281 C 31.640625 23.832031 31.640625 23.679688 31.640625 23.519531 C 31.703125 23.488281 31.761719 23.457031 31.828125 23.425781 C 31.859375 23.335938 31.886719 23.242188 31.921875 23.148438 Z M 31.921875 23.148438 "/>
<path style=" stroke:none;fill-rule:nonzero;fill:rgb(90.196079%,85.882354%,0.784314%);fill-opacity:1;" d="M 21.652344 21.933594 C 21.746094 21.964844 21.839844 21.996094 21.933594 22.027344 C 21.808594 22.273438 21.6875 22.519531 21.558594 22.773438 C 21.527344 22.773438 21.5 22.773438 21.464844 22.773438 C 21.464844 22.621094 21.464844 22.464844 21.464844 22.308594 C 21.527344 22.308594 21.589844 22.308594 21.652344 22.308594 C 21.621094 22.214844 21.589844 22.121094 21.558594 22.027344 C 21.589844 21.996094 21.621094 21.964844 21.652344 21.933594 Z M 21.652344 21.933594 "/>
<path style=" stroke:none;fill-rule:nonzero;fill:rgb(90.196079%,83.137256%,2.352941%);fill-opacity:1;" d="M 32.386719 19.601562 C 32.449219 19.722656 32.511719 19.847656 32.574219 19.972656 C 32.449219 20.128906 32.328125 20.28125 32.199219 20.441406 C 32.105469 20.160156 32.105469 20.160156 32.242188 19.863281 C 32.289062 19.777344 32.335938 19.6875 32.386719 19.601562 Z M 32.386719 19.601562 "/>
<path style=" stroke:none;fill-rule:nonzero;fill:rgb(91.37255%,86.274511%,0.392157%);fill-opacity:1;" d="M 16.613281 31.171875 C 16.707031 31.203125 16.796875 31.234375 16.894531 31.265625 C 16.773438 31.425781 16.648438 31.582031 16.519531 31.734375 C 16.457031 31.734375 16.398438 31.734375 16.332031 31.734375 C 16.507812 31.277344 16.507812 31.277344 16.613281 31.171875 Z M 16.613281 31.171875 "/>
<path style=" stroke:none;fill-rule:nonzero;fill:rgb(92.941177%,87.450981%,0.392157%);fill-opacity:1;" d="M 18.292969 28.09375 C 18.355469 28.15625 18.417969 28.214844 18.480469 28.28125 C 18.355469 28.527344 18.234375 28.773438 18.105469 29.027344 C 17.976562 28.636719 18.125 28.453125 18.292969 28.09375 Z M 18.292969 28.09375 "/>
</g>
</svg>
