<?xml version="1.0" encoding="UTF-8"?>
<svg xmlns="http://www.w3.org/2000/svg" xmlns:xlink="http://www.w3.org/1999/xlink" width="56px" height="56px" viewBox="0 0 55 29" version="1.1">
<g id="surface1">
<path style=" stroke:none;fill-rule:nonzero;fill:rgb(99.607843%,99.607843%,99.607843%);fill-opacity:1;" d="M 0 0 C 18.148438 0 36.300781 0 55 0 C 55 9.570312 55 19.140625 55 29 C 36.851562 29 18.699219 29 0 29 C 0 19.429688 0 9.859375 0 0 Z M 0 0 "/>
<path style=" stroke:none;fill-rule:nonzero;fill:rgb(40.000001%,20%,60.000002%);fill-opacity:1;" d="M 14.851562 1.796875 C 16.90625 1.792969 18.964844 1.789062 21.019531 1.789062 C 21.066406 1.789062 21.066406 1.789062 21.113281 1.789062 C 21.773438 1.789062 22.4375 1.789062 23.097656 1.789062 C 23.421875 1.789062 23.746094 1.789062 24.070312 1.789062 C 24.105469 1.789062 24.136719 1.789062 24.171875 1.789062 C 25.214844 1.785156 26.261719 1.785156 27.308594 1.785156 C 28.382812 1.785156 29.460938 1.78125 30.535156 1.78125 C 31.230469 1.78125 31.921875 1.78125 32.613281 1.78125 C 33.070312 1.78125 33.523438 1.78125 33.976562 1.78125 C 34.238281 1.78125 34.503906 1.78125 34.765625 1.777344 C 35.003906 1.777344 35.246094 1.777344 35.484375 1.777344 C 35.570312 1.777344 35.660156 1.777344 35.746094 1.777344 C 36.390625 1.773438 37.050781 1.796875 37.644531 2.085938 C 37.675781 2.101562 37.707031 2.113281 37.738281 2.128906 C 38.757812 2.609375 39.480469 3.378906 39.921875 4.417969 C 40.066406 4.847656 40.15625 5.253906 40.15625 5.707031 C 40.15625 5.753906 40.15625 5.753906 40.15625 5.800781 C 40.15625 5.902344 40.15625 6.007812 40.15625 6.109375 C 40.15625 6.183594 40.15625 6.257812 40.15625 6.335938 C 40.15625 6.539062 40.15625 6.746094 40.15625 6.949219 C 40.15625 7.171875 40.15625 7.390625 40.15625 7.613281 C 40.160156 8.097656 40.160156 8.582031 40.160156 9.066406 C 40.160156 9.367188 40.160156 9.671875 40.160156 9.972656 C 40.160156 10.8125 40.160156 11.648438 40.160156 12.484375 C 40.160156 12.539062 40.160156 12.59375 40.160156 12.648438 C 40.160156 12.703125 40.160156 12.757812 40.160156 12.8125 C 40.160156 12.921875 40.160156 13.027344 40.160156 13.136719 C 40.160156 13.191406 40.160156 13.246094 40.160156 13.300781 C 40.160156 14.175781 40.160156 15.050781 40.164062 15.925781 C 40.164062 16.824219 40.164062 17.722656 40.164062 18.621094 C 40.164062 19.125 40.164062 19.628906 40.164062 20.132812 C 40.167969 20.5625 40.167969 20.992188 40.167969 21.421875 C 40.167969 21.640625 40.167969 21.859375 40.167969 22.078125 C 40.167969 22.277344 40.167969 22.480469 40.167969 22.679688 C 40.167969 22.753906 40.167969 22.824219 40.167969 22.898438 C 40.171875 23.507812 40.128906 24.132812 39.859375 24.691406 C 39.847656 24.722656 39.832031 24.75 39.816406 24.78125 C 39.292969 25.90625 38.441406 26.632812 37.28125 27.054688 C 36.789062 27.203125 36.292969 27.21875 35.78125 27.214844 C 35.707031 27.21875 35.632812 27.21875 35.554688 27.21875 C 35.351562 27.21875 35.148438 27.21875 34.945312 27.21875 C 34.722656 27.21875 34.503906 27.21875 34.285156 27.21875 C 33.851562 27.21875 33.421875 27.21875 32.988281 27.21875 C 32.640625 27.21875 32.289062 27.21875 31.9375 27.21875 C 31.886719 27.21875 31.839844 27.21875 31.785156 27.21875 C 31.683594 27.21875 31.582031 27.21875 31.480469 27.21875 C 30.53125 27.21875 29.578125 27.21875 28.628906 27.21875 C 27.757812 27.21875 26.890625 27.21875 26.019531 27.21875 C 25.125 27.222656 24.230469 27.222656 23.339844 27.222656 C 22.835938 27.222656 22.335938 27.222656 21.832031 27.222656 C 21.40625 27.222656 20.980469 27.222656 20.554688 27.222656 C 20.335938 27.222656 20.117188 27.222656 19.898438 27.222656 C 19.699219 27.222656 19.5 27.222656 19.300781 27.222656 C 19.230469 27.222656 19.15625 27.222656 19.085938 27.222656 C 17.859375 27.226562 16.824219 26.824219 15.941406 25.953125 C 15.070312 25.011719 14.835938 23.910156 14.839844 22.675781 C 14.839844 22.585938 14.839844 22.496094 14.839844 22.40625 C 14.839844 22.15625 14.839844 21.910156 14.839844 21.664062 C 14.839844 21.398438 14.839844 21.128906 14.839844 20.863281 C 14.839844 20.402344 14.839844 19.9375 14.839844 19.476562 C 14.839844 18.808594 14.839844 18.140625 14.839844 17.472656 C 14.839844 16.390625 14.84375 15.308594 14.84375 14.222656 C 14.84375 13.171875 14.84375 12.121094 14.84375 11.066406 C 14.84375 11.035156 14.84375 11.003906 14.84375 10.96875 C 14.84375 10.644531 14.84375 10.316406 14.84375 9.992188 C 14.84375 9.328125 14.847656 8.664062 14.847656 8 C 14.847656 7.96875 14.847656 7.9375 14.847656 7.90625 C 14.847656 5.871094 14.847656 3.832031 14.851562 1.796875 Z M 14.851562 1.796875 "/>
<path style=" stroke:none;fill-rule:nonzero;fill:rgb(99.607843%,99.215686%,99.607843%);fill-opacity:1;" d="M 37.164062 16.214844 C 37.605469 16.558594 37.902344 17.175781 37.996094 17.722656 C 37.996094 17.964844 37.996094 18.207031 37.996094 18.457031 C 37.453125 18.457031 36.90625 18.457031 36.347656 18.457031 C 36.300781 18.230469 36.253906 18.003906 36.207031 17.769531 C 36.0625 17.511719 36.0625 17.511719 35.839844 17.398438 C 35.601562 17.367188 35.398438 17.371094 35.175781 17.476562 C 35 17.644531 34.933594 17.792969 34.90625 18.035156 C 34.90625 18.101562 34.90625 18.164062 34.90625 18.226562 C 34.90625 18.257812 34.90625 18.289062 34.90625 18.320312 C 34.90625 18.589844 34.96875 18.792969 35.128906 19.007812 C 35.417969 19.265625 35.761719 19.40625 36.109375 19.566406 C 36.527344 19.753906 36.917969 19.945312 37.261719 20.253906 C 37.296875 20.285156 37.332031 20.3125 37.367188 20.34375 C 37.835938 20.773438 38.089844 21.382812 38.144531 22.011719 C 38.152344 22.160156 38.152344 22.3125 38.152344 22.460938 C 38.148438 22.511719 38.148438 22.566406 38.148438 22.621094 C 38.136719 23.34375 37.960938 24.054688 37.445312 24.59375 C 36.863281 25.101562 36.265625 25.234375 35.515625 25.238281 C 35.460938 25.242188 35.410156 25.242188 35.355469 25.242188 C 34.714844 25.25 34.15625 25.035156 33.679688 24.605469 C 33.128906 24.019531 33 23.230469 33 22.464844 C 33.574219 22.464844 34.148438 22.464844 34.742188 22.464844 C 34.785156 22.691406 34.832031 22.917969 34.878906 23.152344 C 35.007812 23.429688 35.007812 23.429688 35.242188 23.582031 C 35.480469 23.660156 35.710938 23.640625 35.949219 23.566406 C 36.140625 23.425781 36.234375 23.234375 36.269531 22.996094 C 36.277344 22.878906 36.277344 22.765625 36.273438 22.648438 C 36.273438 22.609375 36.273438 22.570312 36.273438 22.527344 C 36.273438 22.222656 36.238281 21.964844 36.039062 21.726562 C 35.761719 21.457031 35.441406 21.308594 35.097656 21.15625 C 34.65625 20.949219 34.246094 20.75 33.871094 20.4375 C 33.816406 20.394531 33.816406 20.394531 33.765625 20.351562 C 33.503906 20.117188 33.367188 19.835938 33.230469 19.515625 C 33.203125 19.460938 33.203125 19.460938 33.179688 19.40625 C 33.058594 19.0625 33.082031 18.695312 33.078125 18.335938 C 33.074219 18.28125 33.074219 18.222656 33.074219 18.167969 C 33.070312 17.503906 33.292969 16.882812 33.746094 16.394531 C 34.6875 15.523438 36.136719 15.511719 37.164062 16.214844 Z M 37.164062 16.214844 "/>
<path style=" stroke:none;fill-rule:nonzero;fill:rgb(99.607843%,99.215686%,99.607843%);fill-opacity:1;" d="M 29.875 15.726562 C 29.917969 15.730469 29.964844 15.730469 30.011719 15.730469 C 30.636719 15.738281 31.21875 15.933594 31.671875 16.386719 C 32.199219 17.042969 32.3125 17.609375 32.3125 18.457031 C 31.769531 18.457031 31.222656 18.457031 30.664062 18.457031 C 30.617188 18.183594 30.617188 18.183594 30.570312 17.90625 C 30.492188 17.710938 30.441406 17.589844 30.292969 17.445312 C 30.019531 17.351562 29.753906 17.351562 29.492188 17.476562 C 29.320312 17.640625 29.238281 17.804688 29.222656 18.046875 C 29.21875 18.113281 29.21875 18.179688 29.222656 18.246094 C 29.222656 18.296875 29.222656 18.296875 29.222656 18.351562 C 29.230469 18.609375 29.253906 18.8125 29.425781 19.011719 C 29.699219 19.230469 30.007812 19.371094 30.328125 19.507812 C 31.101562 19.851562 31.84375 20.277344 32.222656 21.082031 C 32.277344 21.234375 32.320312 21.386719 32.359375 21.542969 C 32.375 21.597656 32.390625 21.652344 32.40625 21.707031 C 32.464844 21.949219 32.464844 22.1875 32.460938 22.433594 C 32.460938 22.5 32.460938 22.5 32.460938 22.566406 C 32.460938 23.308594 32.269531 24.023438 31.761719 24.582031 C 31.1875 25.101562 30.582031 25.234375 29.832031 25.238281 C 29.777344 25.242188 29.726562 25.242188 29.671875 25.242188 C 29.03125 25.25 28.476562 25.035156 28 24.609375 C 27.445312 24.023438 27.316406 23.242188 27.316406 22.464844 C 27.890625 22.464844 28.464844 22.464844 29.058594 22.464844 C 29.105469 22.707031 29.148438 22.949219 29.195312 23.199219 C 29.375 23.488281 29.375 23.488281 29.652344 23.613281 C 29.878906 23.644531 30.085938 23.644531 30.292969 23.546875 C 30.488281 23.386719 30.554688 23.199219 30.585938 22.953125 C 30.589844 22.835938 30.59375 22.71875 30.589844 22.601562 C 30.59375 22.5625 30.59375 22.523438 30.59375 22.484375 C 30.59375 22.160156 30.527344 21.933594 30.316406 21.6875 C 30.054688 21.4375 29.742188 21.304688 29.417969 21.15625 C 28.671875 20.8125 27.953125 20.4375 27.589844 19.65625 C 27.578125 19.628906 27.566406 19.597656 27.550781 19.570312 C 27.242188 18.847656 27.285156 17.941406 27.546875 17.214844 C 27.78125 16.660156 28.15625 16.242188 28.691406 15.972656 C 28.71875 15.957031 28.75 15.945312 28.777344 15.929688 C 29.140625 15.761719 29.484375 15.726562 29.875 15.726562 Z M 29.875 15.726562 "/>
<path style=" stroke:none;fill-rule:nonzero;fill:rgb(99.215686%,99.215686%,99.607843%);fill-opacity:1;" d="M 25.851562 16.339844 C 26.359375 16.8125 26.578125 17.410156 26.628906 18.089844 C 26.628906 18.332031 26.628906 18.578125 26.628906 18.828125 C 26.007812 18.828125 25.390625 18.828125 24.75 18.828125 C 24.734375 18.582031 24.71875 18.339844 24.703125 18.089844 C 24.613281 17.835938 24.519531 17.683594 24.292969 17.539062 C 24.039062 17.453125 23.789062 17.453125 23.542969 17.554688 C 23.289062 17.808594 23.21875 18.140625 23.214844 18.488281 C 23.214844 18.527344 23.214844 18.570312 23.214844 18.613281 C 23.214844 18.660156 23.214844 18.703125 23.214844 18.75 C 23.214844 18.898438 23.214844 19.046875 23.214844 19.195312 C 23.214844 19.296875 23.214844 19.402344 23.214844 19.503906 C 23.214844 19.722656 23.214844 19.9375 23.214844 20.15625 C 23.21875 20.429688 23.21875 20.707031 23.214844 20.984375 C 23.214844 21.199219 23.214844 21.414062 23.21875 21.625 C 23.21875 21.726562 23.21875 21.832031 23.21875 21.933594 C 23.21875 22.074219 23.21875 22.21875 23.21875 22.359375 C 23.21875 22.421875 23.21875 22.421875 23.21875 22.488281 C 23.222656 22.773438 23.242188 23.097656 23.441406 23.320312 C 23.671875 23.515625 23.828125 23.539062 24.121094 23.535156 C 24.304688 23.515625 24.390625 23.46875 24.519531 23.339844 C 24.757812 22.996094 24.722656 22.65625 24.75 22.234375 C 25.371094 22.234375 25.992188 22.234375 26.628906 22.234375 C 26.628906 23.101562 26.570312 23.78125 25.988281 24.441406 C 25.964844 24.472656 25.941406 24.5 25.917969 24.527344 C 25.550781 24.949219 24.917969 25.1875 24.371094 25.238281 C 24.210938 25.246094 24.050781 25.25 23.890625 25.25 C 23.835938 25.25 23.777344 25.246094 23.71875 25.246094 C 22.976562 25.234375 22.441406 25.003906 21.894531 24.496094 C 21.398438 23.976562 21.304688 23.253906 21.304688 22.5625 C 21.304688 22.515625 21.304688 22.464844 21.304688 22.414062 C 21.300781 22.253906 21.300781 22.089844 21.300781 21.929688 C 21.300781 21.871094 21.300781 21.816406 21.300781 21.761719 C 21.300781 21.464844 21.300781 21.171875 21.300781 20.875 C 21.296875 20.574219 21.296875 20.269531 21.296875 19.964844 C 21.292969 19.734375 21.292969 19.5 21.292969 19.265625 C 21.292969 19.152344 21.292969 19.039062 21.292969 18.929688 C 21.285156 18.136719 21.28125 17.375 21.769531 16.710938 C 21.789062 16.679688 21.8125 16.652344 21.832031 16.621094 C 22.1875 16.15625 22.851562 15.851562 23.417969 15.753906 C 24.300781 15.675781 25.136719 15.769531 25.851562 16.339844 Z M 25.851562 16.339844 "/>
</g>
</svg>
