<svg width="262" height="87" viewBox="0 0 262 87" fill="none" xmlns="http://www.w3.org/2000/svg">
<path d="M148.591 5.31906C145.383 2.75212 137.844 4.31548 134.039 4.31548C124.804 4.31548 115.614 4.07148 106.441 5.31906C85.2758 8.19751 64.203 10.1594 43.9956 17.3621C29.1216 22.6637 12.0677 30.002 4.74432 45.4624C1.49999 52.3116 6.82378 62.5777 12.3827 66.4262C26.1921 75.9865 46.0033 79.3758 62.2831 81.0339C80.9771 82.9379 99.7208 82.595 118.484 82.595C135.382 82.595 152.233 82.9586 169.053 81.0896C193.423 78.3819 218.888 75.4078 240.754 64.0845C247.851 60.4091 253.869 55.1673 256.755 47.4696C259.609 39.8593 255.334 34.8406 249.284 30.4644C234.418 19.71 211.161 18.5826 193.864 15.1319C157.488 7.87504 121.431 4.31548 84.362 4.31548" stroke="#FFC000" stroke-width="7" stroke-linecap="round"/>
</svg>
