<?xml version="1.0" encoding="UTF-8"?>
<svg xmlns="http://www.w3.org/2000/svg" xmlns:xlink="http://www.w3.org/1999/xlink" width="56px" height="34px" viewBox="0 0 55 34" version="1.1">
<defs>
<clipPath id="clip1">
  <path d="M 0 0 L 55 0 L 55 33.382812 L 0 33.382812 Z M 0 0 "/>
</clipPath>
</defs>
<g id="surface1">
<g clip-path="url(#clip1)" clip-rule="nonzero">
<path style=" stroke:none;fill-rule:evenodd;fill:rgb(21.960784%,74.117649%,97.254902%);fill-opacity:1;" d="M 27.5 0 C 20.167969 0 15.582031 3.710938 13.75 11.128906 C 16.5 7.417969 19.707031 6.027344 23.375 6.953125 C 25.46875 7.484375 26.960938 9.019531 28.617188 10.71875 C 31.3125 13.488281 34.433594 16.691406 41.25 16.691406 C 48.582031 16.691406 53.167969 12.980469 55 5.5625 C 52.25 9.273438 49.042969 10.664062 45.375 9.738281 C 43.28125 9.207031 41.789062 7.671875 40.132812 5.972656 C 37.4375 3.203125 34.316406 0 27.5 0 Z M 13.75 16.691406 C 6.417969 16.691406 1.832031 20.398438 0 27.816406 C 2.75 24.109375 5.957031 22.71875 9.625 23.644531 C 11.71875 24.175781 13.210938 25.710938 14.867188 27.410156 C 17.5625 30.175781 20.683594 33.382812 27.5 33.382812 C 34.832031 33.382812 39.417969 29.671875 41.25 22.253906 C 38.5 25.964844 35.292969 27.355469 31.625 26.425781 C 29.53125 25.898438 28.039062 24.363281 26.382812 22.664062 C 23.6875 19.894531 20.566406 16.691406 13.75 16.691406 Z M 13.75 16.691406 "/>
</g>
</g>
</svg>
