<?xml version="1.0" encoding="UTF-8"?>
<svg xmlns="http://www.w3.org/2000/svg" xmlns:xlink="http://www.w3.org/1999/xlink" width="56px" height="56px" viewBox="0 0 56 56" version="1.1">
<g id="surface1">
<path style=" stroke:none;fill-rule:nonzero;fill:rgb(0%,0%,0%);fill-opacity:1;" d="M 6.292969 -0.0429688 C 6.488281 -0.0429688 6.679688 -0.0429688 6.875 -0.0429688 C 7.410156 -0.046875 7.945312 -0.046875 8.476562 -0.0429688 C 9.054688 -0.0429688 9.628906 -0.046875 10.207031 -0.046875 C 11.335938 -0.046875 12.464844 -0.046875 13.589844 -0.046875 C 14.507812 -0.046875 15.425781 -0.046875 16.34375 -0.046875 C 16.539062 -0.046875 16.539062 -0.046875 16.738281 -0.046875 C 17.003906 -0.046875 17.269531 -0.046875 17.535156 -0.0507812 C 20.023438 -0.0507812 22.511719 -0.0507812 25 -0.046875 C 27.273438 -0.046875 29.546875 -0.0507812 31.824219 -0.0507812 C 34.160156 -0.0546875 36.496094 -0.0546875 38.835938 -0.0546875 C 40.144531 -0.0546875 41.457031 -0.0546875 42.769531 -0.0546875 C 43.886719 -0.0585938 45.003906 -0.0585938 46.117188 -0.0546875 C 46.6875 -0.0546875 47.257812 -0.0546875 47.828125 -0.0546875 C 48.347656 -0.0585938 48.871094 -0.0585938 49.394531 -0.0546875 C 49.582031 -0.0546875 49.769531 -0.0546875 49.957031 -0.0546875 C 51.691406 -0.0664062 53.179688 0.277344 54.488281 1.488281 C 55.824219 2.90625 56.050781 4.433594 56.042969 6.292969 C 56.042969 6.488281 56.042969 6.679688 56.042969 6.875 C 56.046875 7.410156 56.046875 7.945312 56.042969 8.476562 C 56.042969 9.054688 56.046875 9.628906 56.046875 10.207031 C 56.046875 11.335938 56.046875 12.464844 56.046875 13.589844 C 56.046875 14.507812 56.046875 15.425781 56.046875 16.34375 C 56.046875 16.472656 56.046875 16.605469 56.046875 16.738281 C 56.046875 17.003906 56.046875 17.269531 56.050781 17.535156 C 56.050781 20.023438 56.050781 22.511719 56.046875 25 C 56.046875 27.273438 56.050781 29.546875 56.050781 31.824219 C 56.054688 34.160156 56.054688 36.496094 56.054688 38.835938 C 56.054688 40.144531 56.054688 41.457031 56.054688 42.769531 C 56.058594 43.886719 56.058594 45.003906 56.054688 46.117188 C 56.054688 46.6875 56.054688 47.257812 56.054688 47.828125 C 56.058594 48.347656 56.058594 48.871094 56.054688 49.394531 C 56.054688 49.582031 56.054688 49.769531 56.054688 49.957031 C 56.066406 51.742188 55.679688 53.199219 54.449219 54.550781 C 53.054688 55.851562 51.519531 56.050781 49.707031 56.042969 C 49.511719 56.042969 49.320312 56.042969 49.125 56.042969 C 48.589844 56.046875 48.054688 56.046875 47.523438 56.042969 C 46.945312 56.042969 46.371094 56.046875 45.792969 56.046875 C 44.664062 56.046875 43.535156 56.046875 42.410156 56.046875 C 41.492188 56.046875 40.574219 56.046875 39.65625 56.046875 C 39.460938 56.046875 39.460938 56.046875 39.261719 56.046875 C 38.996094 56.046875 38.730469 56.046875 38.464844 56.050781 C 35.976562 56.050781 33.488281 56.050781 31 56.046875 C 28.726562 56.046875 26.453125 56.050781 24.175781 56.050781 C 21.839844 56.054688 19.503906 56.054688 17.164062 56.054688 C 15.855469 56.054688 14.542969 56.054688 13.230469 56.054688 C 12.113281 56.058594 10.996094 56.058594 9.882812 56.054688 C 9.3125 56.054688 8.742188 56.054688 8.171875 56.054688 C 7.652344 56.058594 7.128906 56.058594 6.605469 56.054688 C 6.417969 56.054688 6.230469 56.054688 6.042969 56.054688 C 4.257812 56.066406 2.800781 55.679688 1.449219 54.449219 C 0.148438 53.054688 -0.0507812 51.519531 -0.0429688 49.707031 C -0.0429688 49.511719 -0.0429688 49.320312 -0.0429688 49.125 C -0.046875 48.589844 -0.046875 48.054688 -0.0429688 47.523438 C -0.0429688 46.945312 -0.046875 46.371094 -0.046875 45.792969 C -0.046875 44.664062 -0.046875 43.535156 -0.046875 42.410156 C -0.046875 41.492188 -0.046875 40.574219 -0.046875 39.65625 C -0.046875 39.527344 -0.046875 39.394531 -0.046875 39.261719 C -0.046875 38.996094 -0.046875 38.730469 -0.0507812 38.464844 C -0.0507812 35.976562 -0.0507812 33.488281 -0.046875 31 C -0.046875 28.726562 -0.0507812 26.453125 -0.0507812 24.175781 C -0.0546875 21.839844 -0.0546875 19.503906 -0.0546875 17.164062 C -0.0546875 15.855469 -0.0546875 14.542969 -0.0546875 13.230469 C -0.0585938 12.113281 -0.0585938 10.996094 -0.0546875 9.882812 C -0.0546875 9.3125 -0.0546875 8.742188 -0.0546875 8.171875 C -0.0585938 7.652344 -0.0585938 7.128906 -0.0546875 6.605469 C -0.0546875 6.417969 -0.0546875 6.230469 -0.0546875 6.042969 C -0.0664062 4.257812 0.320312 2.800781 1.550781 1.449219 C 2.945312 0.148438 4.480469 -0.0507812 6.292969 -0.0429688 Z M 36.113281 28.949219 C 35.046875 30.207031 34.460938 31.851562 34.53125 33.507812 C 34.753906 35.628906 35.542969 37.269531 37.179688 38.664062 C 38.597656 39.78125 40.335938 40.4375 41.972656 41.160156 C 44.882812 42.441406 44.882812 42.441406 45.4375 43.726562 C 45.597656 44.339844 45.574219 44.933594 45.382812 45.535156 C 44.699219 46.484375 43.796875 46.785156 42.667969 47.003906 C 39.734375 47.253906 37.140625 46.441406 34.78125 44.734375 C 34.746094 44.734375 34.710938 44.734375 34.671875 44.734375 C 34.671875 46.46875 34.671875 48.199219 34.671875 49.984375 C 35.4375 50.332031 36.097656 50.628906 36.894531 50.824219 C 36.984375 50.847656 37.070312 50.871094 37.164062 50.894531 C 38.433594 51.207031 39.710938 51.34375 41.015625 51.40625 C 41.109375 51.410156 41.203125 51.414062 41.296875 51.421875 C 44.25 51.488281 47.410156 50.90625 49.621094 48.824219 C 51.113281 47.277344 51.351562 45.507812 51.328125 43.453125 C 51.289062 42.132812 50.890625 41.089844 50.09375 40.03125 C 50 39.90625 50 39.90625 49.902344 39.777344 C 48.726562 38.332031 46.953125 37.480469 45.285156 36.734375 C 45.214844 36.703125 45.144531 36.671875 45.074219 36.640625 C 44.730469 36.488281 44.382812 36.335938 44.035156 36.183594 C 41.9375 35.265625 41.9375 35.265625 41.234375 34.5625 C 41.164062 34.5625 41.089844 34.5625 41.015625 34.5625 C 40.941406 34.417969 40.871094 34.269531 40.796875 34.125 C 40.738281 34.03125 40.679688 33.941406 40.617188 33.84375 C 40.386719 33.261719 40.34375 32.636719 40.546875 32.03125 C 40.984375 31.210938 41.699219 30.898438 42.546875 30.625 C 44.824219 30.015625 47.535156 30.515625 49.582031 31.644531 C 49.675781 31.699219 49.769531 31.753906 49.867188 31.8125 C 50.082031 31.953125 50.082031 31.953125 50.3125 31.9375 C 50.3125 30.3125 50.3125 28.6875 50.3125 27.015625 C 49.488281 26.714844 48.769531 26.480469 47.917969 26.339844 C 47.816406 26.320312 47.710938 26.300781 47.601562 26.285156 C 46.828125 26.152344 46.066406 26.054688 45.28125 26.03125 C 45.15625 26.027344 45.03125 26.023438 44.902344 26.019531 C 41.6875 25.960938 38.4375 26.566406 36.113281 28.949219 Z M 12.90625 26.578125 C 12.90625 28.058594 12.90625 29.539062 12.90625 31.0625 C 15.214844 31.0625 17.527344 31.0625 19.90625 31.0625 C 19.90625 37.667969 19.90625 44.273438 19.90625 51.078125 C 21.710938 51.078125 23.515625 51.078125 25.375 51.078125 C 25.375 44.472656 25.375 37.867188 25.375 31.0625 C 27.722656 31.0625 30.066406 31.0625 32.484375 31.0625 C 32.484375 29.582031 32.484375 28.101562 32.484375 26.578125 C 26.023438 26.578125 19.5625 26.578125 12.90625 26.578125 Z M 12.90625 26.578125 "/>
</g>
</svg>
